<?xml version="1.0" standalone="no"?>
<!DOCTYPE svg PUBLIC "-//W3C//DTD SVG 1.1//EN" "http://www.w3.org/Graphics/SVG/1.1/DTD/svg11.dtd" >
<svg xmlns="http://www.w3.org/2000/svg" xmlns:xlink="http://www.w3.org/1999/xlink" version="1.1">
<metadata>
Created by FontForge 20190801 at Thu Sep 28 14:06:24 2017
 By Unknown
Copyright (c) 2017, Bakoom studio
</metadata>
<defs>
<font id="Neoneon" horiz-adv-x="504" vert-adv-y="1000" >
  <font-face 
    font-family="Neoneon"
    font-weight="400"
    font-stretch="normal"
    units-per-em="1000"
    panose-1="2 0 5 3 0 0 0 0 0 0"
    ascent="800"
    descent="-200"
    x-height="800"
    cap-height="800"
    bbox="-10.7068 -125.6 788.208 1012.32"
    underline-thickness="99"
    underline-position="-297"
    stemh="28"
    stemv="28"
    unicode-range="U+0020-00FC"
  />
<missing-glyph horiz-adv-x="500" 
d="M50 0v533h400v-533h-400zM100 50h300v433h-300v-433z" />
    <glyph glyph-name=".notdef" horiz-adv-x="500" 
d="M50 0v533h400v-533h-400zM100 50h300v433h-300v-433z" />
    <glyph glyph-name="space" unicode=" " horiz-adv-x="348" vert-adv-y="0" 
 />
    <glyph glyph-name="exclam" unicode="!" horiz-adv-x="301" vert-adv-y="0" 
d="M68 143.2c-33.5996 4.7998 -48 28.7998 -48.7998 79.2002c0 0.799805 -1.60059 40 -1.60059 54.3994l-14.3994 409.601c0 8 6.39941 14.3994 14.3994 14.3994s15.2002 -5.59961 15.2002 -13.5996l14.4004 -408.8c0 -12 1.59961 -55.2002 1.59961 -55.2002
c0.799805 -46.4004 13.6006 -50.4004 22.4004 -51.2002h29.5996c8 0 15.2002 -6.40039 15.2002 -14.4004s-7.2002 -14.3994 -15.2002 -14.3994h-30.3994h-2.40039zM174.4 7.2002l-0.800781 -0.799805l-0.799805 -1.60059l-1.59961 -0.799805l-0.799805 -0.799805
l-0.800781 -0.799805l-1.59961 -0.800781l-0.799805 -0.799805h-1.60059l-0.799805 -0.799805h-3.2002h-120.8c-8 0 -14.3994 7.2002 -14.3994 15.2002v0.799805v1.59961l-1.60059 51.2002c0 8 6.40039 15.2002 14.4004 15.2002s15.2002 -6.40039 15.2002 -14.4004
l0.799805 -40h92c3.2002 96 24.7998 646.4 24.7998 692c0 43.2002 -8.7998 48.8008 -42.4004 48.8008h-114.399c-8 0 -15.2002 6.39941 -15.2002 14.3994s7.2002 15.2002 15.2002 15.2002h114.399c52 0 72 -21.5996 72 -78.4004c0 -49.5996 -24.7998 -680 -25.5996 -707.199
v-1.60059v-1.59961l-0.799805 -1.60059v-0.799805z" />
    <glyph glyph-name="quotedbl" unicode="&#x22;" horiz-adv-x="533" vert-adv-y="0" 
d="M81.5996 512.8c-8 0 -16 1.60059 -24 4.7998c-7.19922 3.2002 -10.3994 12 -7.19922 19.2002c3.19922 7.2002 11.1992 10.4004 18.3994 7.2002c10.4004 -4.7998 20.7998 -2.40039 31.2002 4.7998s18.4004 18.4004 21.5996 27.2002l44 100
c7.2002 16.7998 7.2002 36 0.800781 52.7998c-6.40039 16.7998 -20.8008 31.2002 -37.6006 38.4004s-36 7.2002 -52.7998 0.799805s-31.2002 -20 -38.4004 -36.7998c-7.19922 -16.7998 -7.19922 -36 -0.799805 -52.7998c6.40039 -16.8008 20 -31.2002 36.7998 -38.4004
c7.2002 -3.2002 11.2002 -12 8 -19.2002c-3.19922 -7.2002 -11.1992 -10.3994 -18.3994 -7.2002c-24 10.4004 -43.2002 29.6006 -52.7998 53.6006c-9.60059 24 -8.80078 51.2002 1.59961 75.2002s29.5996 42.3994 53.5996 52c24 9.59961 50.4004 9.59961 74.4004 -0.800781
c24 -10.3994 42.4004 -30.3994 52 -54.3994s9.59961 -50.4004 -0.799805 -74.4004l-43.2002 -100c-6.40039 -16 -18.4004 -29.5996 -31.2002 -39.2002c-11.2002 -8 -22.3994 -12.7998 -35.2002 -12.7998zM315.2 512.8c-8 0 -16 1.60059 -24 4.7998
c-7.2002 3.2002 -10.4004 12 -7.2002 19.2002s11.2002 10.4004 18.4004 7.2002c10.3994 -4.7998 20.7998 -2.40039 31.1992 4.7998c10.4004 7.2002 19.2002 18.4004 22.4004 27.2002l43.2002 100c15.2002 35.2002 -0.799805 76 -36 91.2002s-76.7998 -0.799805 -92 -36
c-7.2002 -16.7998 -7.2002 -36 -0.799805 -52.7998c6.39941 -16.8008 20.7998 -31.2002 37.5996 -38.4004c7.2002 -3.2002 10.4004 -12 7.2002 -19.2002s-11.2002 -10.3994 -18.4004 -7.2002c-24 10.4004 -42.3994 29.6006 -52 53.6006
c-9.59961 24 -9.59961 51.2002 0.799805 75.2002c21.6006 49.5996 79.2002 72.7998 128.801 51.1992c49.5996 -21.5996 72 -79.1992 50.3994 -128.8l-43.2002 -99.2002c-6.39941 -16 -18.3994 -30.3994 -31.1992 -40c-11.2002 -8 -22.4004 -12.7998 -35.2002 -12.7998z" />
    <glyph glyph-name="numbersign" unicode="#" horiz-adv-x="673" vert-adv-y="0" 
d="M379.2 0h-101.601c-4 0 -8.7998 1.59961 -11.1992 4.7998c-2.40039 3.2002 -4 8 -3.2002 12l32 216.8c0.799805 8 8.7998 12.8008 16.7998 12c8 -0.799805 12.7998 -8.7998 12 -16.7998l-28.7998 -199.2h71.2002l29.5996 203.2
c0.799805 7.2002 7.2002 12.7998 14.4004 12.7998h105.6v72.8008h-92c-4 0 -8.7998 1.59961 -11.2002 4.7998c-2.39941 3.2002 -4 8 -3.2002 12l19.2002 132.8c0.799805 7.2002 7.2002 12.7998 14.4004 12.7998h100.8v72h-84.7998c-4 0 -8.7998 1.60059 -11.2002 4.7998
c-2.40039 3.2002 -4.7998 8 -4 12l28.7998 200.801h-69.5996l-44.7998 -306.4l-20 -132.8c-0.800781 -8 -8.80078 -13.6006 -16.8008 -12.7998c-8 0.799805 -12.7998 8.7998 -12 16.7998l19.2002 132.8l47.2002 319.2c0.799805 7.2002 8 12.7998 15.2002 12.7998h98.3994
c4 0 8.80078 -1.59961 11.2002 -4.7998c2.40039 -3.2002 4.7998 -8 4 -12l-28.7998 -200.8h83.2002c8 0 14.3994 -7.2002 14.3994 -15.2002v-100.8c0 -8 -6.39941 -15.2002 -14.3994 -15.2002h-103.2l-14.4004 -103.2h89.6006c8 0 14.3994 -6.40039 14.3994 -14.4004
v-102.399c0 -8 -6.39941 -15.2002 -14.3994 -15.2002h-108l-29.6006 -203.2c-0.799805 -7.2002 -7.19922 -12.7998 -14.3994 -12.7998zM183.2 0h-100.8c-4 0 -9.60059 1.59961 -12 4.7998c-2.40039 3.2002 -4 8 -3.2002 12l28.7998 199.2h-81.5996
c-8 0 -15.2002 7.2002 -15.2002 15.2002v102.399c0 8 7.2002 14.4004 15.2002 14.4004h101.6l15.2002 103.2h-88.7998c-8 0 -15.2002 7.2002 -15.2002 15.2002v100.8c0 8 7.2002 15.2002 15.2002 15.2002h108l29.5996 204.8c0.799805 7.2002 7.2002 12.7998 14.4004 12.7998
h99.1992c4 0 8.80078 -1.59961 11.2002 -4.7998c2.40039 -3.2002 4 -8 3.2002 -12l-31.2002 -217.601c-0.799805 -8 -8.7998 -13.5996 -16.7998 -12.7998s-12.7998 8.7998 -12 16.7998l28 200.801h-68.7998l-29.6006 -204.801
c-0.799805 -7.19922 -7.19922 -12.7998 -14.3994 -12.7998h-106.4v-72h91.2002c4 0 8.7998 -2.39941 11.2002 -5.59961c2.39941 -3.2002 4 -7.2002 3.2002 -11.2002l-19.2002 -132.8c-0.799805 -7.2002 -7.2002 -12.7998 -14.4004 -12.7998h-100v-72.8008h84.7998
c4 0 8 -1.59961 10.4004 -4.7998s4.7998 -8 4 -12l-28.7998 -199.2h71.2002l44 305.601l18.3994 132.8c0.799805 8 8 13.5996 16 12.7998s13.6006 -8.7998 12.7998 -16.7998l-17.5996 -132.8l-45.5996 -318.4c-0.800781 -7.2002 -8 -12.7998 -15.2002 -12.7998z" />
    <glyph glyph-name="percent" unicode="%" horiz-adv-x="682" vert-adv-y="0" 
d="M104 0h-1.59961c-0.800781 0 -3.2002 0.799805 -4 1.59961c-1.60059 0.800781 -2.40039 1.60059 -3.2002 3.2002c-0.799805 0.799805 -2.40039 3.2002 -2.40039 4.7998v4c0 0.800781 0.799805 1.60059 0.799805 2.40039l304.801 776.8
c1.59961 4 5.59961 7.2002 10.3994 7.2002h71.2002c4 0 7.2002 -1.59961 9.59961 -4.7998c1.60059 -3.2002 2.40039 -8 0.800781 -11.2002l-138.4 -353.6c-2.40039 -5.60059 -9.59961 -8.80078 -15.2002 -6.40039c-5.59961 2.40039 -8.7998 9.59961 -6.39941 15.2002
l132.8 337.6h-46.4004l-295.2 -753.6h45.6006l135.2 344c2.39941 5.59961 9.59961 8.7998 15.1992 6.39941c5.60059 -2.39941 8.80078 -9.59961 6.40039 -15.1992l-138.4 -351.2c-1.59961 -4 -5.59961 -7.2002 -10.3994 -7.2002h-70.4004h-0.799805zM140.8 599.2
c-4 0 -8.7998 3.2002 -10.3994 7.2002c-2.40039 5.59961 0 12.7998 5.59961 15.1992c18.4004 8 34.4004 23.2002 42.4004 41.6006c17.5996 40.7998 -0.800781 88.7998 -41.6006 106.399c-20 8.80078 -41.5996 9.60059 -61.5996 1.60059s-36 -22.4004 -44.7998 -42.4004
c-8.80078 -20 -9.60059 -42.3994 -1.60059 -62.3994s22.4004 -36 42.4004 -44.8008c5.59961 -2.39941 8.7998 -9.59961 6.39941 -15.1992c-2.39941 -5.60059 -9.59961 -8 -15.1992 -5.60059c-25.6006 11.2002 -45.6006 32 -55.2002 57.6006
c-10.4004 25.5996 -8.7998 54.3994 2.39941 80c11.2002 25.5996 32 44 57.6006 54.3994c25.5996 10.4004 53.5996 9.60059 79.2002 -1.59961c25.5996 -11.2002 44.7998 -32 55.1992 -57.6006c10.4004 -25.5996 8.80078 -54.3994 -2.39941 -80
c-10.4004 -24 -29.6006 -43.1992 -53.6006 -53.5996c-1.59961 -0.799805 -3.19922 -0.799805 -4.7998 -0.799805zM515.2 0c-4.7998 0 -9.60059 3.2002 -11.2002 7.2002c-2.40039 5.59961 0.799805 12.7998 6.40039 15.2002c18.3994 8 34.3994 23.1992 42.3994 41.5996
c17.6006 40.7998 -0.799805 88.7998 -41.5996 106.4c-40.7998 17.5996 -88.7998 0 -106.4 -40.8008c-17.5996 -40.7998 0 -89.5996 40.7998 -107.199c5.60059 -2.40039 8 -9.60059 5.60059 -15.2002c-2.40039 -5.60059 -9.60059 -8 -15.2002 -5.60059
c-52 23.2002 -76 85.6006 -52.7998 137.601s85.5996 76 137.6 52.7998s76 -85.5996 52.7998 -137.6c-10.3994 -24 -30.3994 -43.2002 -54.3994 -53.6006c-1.60059 -0.799805 -2.40039 -0.799805 -4 -0.799805z" />
    <glyph glyph-name="ampersand" unicode="&#x26;" horiz-adv-x="652" vert-adv-y="0" 
d="M433.6 0c-4 0 -8.7998 1.59961 -11.1992 4.7998c-4.80078 5.60059 -4 15.2002 1.59961 20l85.5996 70.4004l-56.7998 88.7998c-2.39941 4 -2.39941 9.59961 0 14.4004c41.6006 71.1992 66.4004 149.6 71.2002 225.6l-69.5996 12
c-6.40039 -49.5996 -16.8008 -104 -44.8008 -153.6c-2.39941 -4 -6.39941 -7.2002 -10.3994 -7.2002s-8.7998 1.59961 -12 4.7998c-30.4004 32.7998 -71.2002 97.5996 -90.4004 132.8c-3.2002 6.40039 -2.39941 14.4004 3.2002 18.4004c46.4004 33.5996 104 74.3994 104 176
c0 152.8 -113.6 164.8 -148.8 164.8c-116.8 0 -147.2 -103.2 -147.2 -164.8c0 -14.4004 4.7998 -44 10.4004 -64.7998c1.59961 -7.2002 -1.60059 -16 -8.80078 -17.6006c-7.19922 -1.59961 -16 2.40039 -17.5996 9.60059c-6.40039 24 -12 56 -12 72.7998
c0 92.7998 55.2002 192.8 175.2 192.8c131.2 0 176.8 -104 176.8 -192.8c0 -108 -57.5996 -156.8 -104.8 -191.2c16.7998 -29.5996 44 -72 67.2002 -101.6c21.5996 45.5996 29.5996 95.1992 34.3994 139.199c0 4 1.60059 7.2002 4.7998 9.60059
c3.2002 2.39941 7.2002 4 11.2002 3.2002l96 -16.8008c7.2002 -0.799805 11.2002 -8 11.2002 -15.1992c-3.2002 -82.4004 -28 -165.601 -71.2002 -242.4l59.2002 -92c4 -5.59961 2.40039 -12.7998 -3.2002 -17.5996l-94.3994 -79.2002
c-2.40039 -2.40039 -5.60059 -3.2002 -8.80078 -3.2002zM208.8 0c-155.2 0 -209.6 126.4 -209.6 235.2c0 153.6 100.8 209.6 134.399 228v0.799805c101.601 49.5996 175.2 90.4004 175.2 152.8c0 24.7998 -5.59961 54.4004 -33.5996 54.4004
c-36 0 -38.4004 -43.2002 -38.4004 -52c0 -4.7998 0.799805 -8.7998 1.60059 -13.6006c0.799805 -7.19922 -4.80078 -15.1992 -12 -16c-7.2002 -0.799805 -14.4004 3.2002 -15.2002 11.2002c-0.799805 6.40039 -1.60059 12.7998 -1.60059 18.4004
c0 39.2002 20 80 65.6006 80c38.3994 0 60.7998 -31.2002 60.7998 -82.4004c0 -78.3994 -78.4004 -124 -189.6 -178.399c-33.6006 -18.4004 -120 -66.4004 -120 -203.2c0 -34.4004 9.59961 -207.2 182.399 -207.2c73.6006 0 112.8 24 145.601 48.7998
c-4 6.40039 -8.80078 13.6006 -13.6006 20.7998c-44 65.6006 -114.399 171.2 -148 231.2c-23.2002 -22.3994 -36 -52.7998 -36 -88.7998c0 -34.4004 8.7998 -73.5996 70.4004 -94.4004c7.2002 -2.39941 11.2002 -10.3994 8.7998 -17.5996
s-11.2002 -11.2002 -18.4004 -8.7998c-88.7998 30.3994 -88 98.3994 -88 120.8c0 64.7998 32 101.6 59.2002 121.6c3.2002 2.40039 7.2002 3.2002 11.2002 2.40039s8 -4.7998 9.59961 -8c27.2002 -53.5996 109.601 -176 154.4 -242.4
c8 -12.7998 15.2002 -23.1992 20.7998 -32c0.799805 -0.799805 1.60059 -2.39941 1.60059 -4c0 -1.59961 0.799805 -4.7998 0.799805 -6.39941c0 -1.60059 -1.60059 -4 -2.40039 -5.60059c-0.799805 -0.799805 -2.39941 -2.39941 -3.2002 -3.19922
c-44.7998 -34.4004 -88.7998 -62.4004 -172.8 -62.4004z" />
    <glyph glyph-name="quotesingle" unicode="'" horiz-adv-x="299" vert-adv-y="0" 
d="M81.5996 513.6c-8 0 -16 1.60059 -24 4.80078c-7.19922 3.19922 -10.3994 11.1992 -7.19922 18.3994c3.19922 7.2002 11.1992 10.4004 18.3994 7.2002c10.4004 -4.7998 20.7998 -2.40039 31.2002 4.7998s18.4004 19.2002 21.5996 28l44 99.2002
c7.2002 16.7998 7.2002 36.7998 0.800781 53.5996c-6.40039 16.8008 -20.8008 30.4004 -37.6006 37.6006s-36 7.2002 -52.7998 0.799805s-31.2002 -20 -38.4004 -36.7998c-7.19922 -16.7998 -7.19922 -36 -0.799805 -52.7998c6.40039 -16.8008 20 -31.2002 36.7998 -38.4004
c7.2002 -3.2002 11.2002 -11.2002 8 -18.4004c-3.19922 -7.19922 -11.1992 -10.3994 -18.3994 -7.19922c-24 10.3994 -43.2002 29.5996 -52.7998 53.5996c-9.60059 24 -8.80078 50.4004 1.59961 74.4004s29.5996 42.3994 53.5996 52
c24 9.59961 50.4004 9.59961 74.4004 -0.800781c24 -10.3994 42.4004 -29.5996 52 -53.5996s9.59961 -50.4004 -0.799805 -74.4004l-43.2002 -100c-6.40039 -16 -18.4004 -30.3994 -31.2002 -40c-11.2002 -8 -22.3994 -12 -35.2002 -12z" />
    <glyph glyph-name="parenleft" unicode="(" horiz-adv-x="335" vert-adv-y="0" 
d="M221.6 -76.7998h-101.6c-4.7998 0 -9.59961 2.39941 -12 7.2002c-49.5996 94.3994 -107.2 273.6 -107.2 468v28.7998c0 7.2002 6.40039 13.5996 14.4004 13.5996c7.2002 0 13.5996 -7.2002 13.5996 -14.3994c0 -9.60059 -0.799805 -18.4004 -0.799805 -28
c0 -184 53.5996 -354.4 100.8 -448h72c-24 60.7998 -53.5996 159.199 -73.5996 333.6c-7.2002 60 -22.4004 86.4004 -48 129.6l-14.4004 23.2002c-25.5996 43.2002 -54.3994 92.7998 -46.3994 152.8c22.3994 132 60.7998 223.2 89.5996 276
c2.40039 4 7.2002 7.2002 12 7.2002h101.6c4.80078 0 9.60059 -2.39941 12 -6.39941c2.40039 -4 2.40039 -8.80078 0.800781 -12.8008c-48.8008 -120.8 -76 -247.199 -83.2002 -386.399c0 -7.2002 -6.40039 -12.7998 -14.4004 -12.7998
c-7.2002 0 -12.7998 7.19922 -12.7998 14.3994c6.40039 135.2 32 259.2 77.5996 376.8h-72.7998c-27.2002 -52 -62.3994 -138.399 -83.2002 -260.8c-7.19922 -49.5996 18.4004 -92 43.2002 -133.6l13.6006 -23.2002c27.1992 -44.7998 44.7998 -74.4004 52 -140.8
c16.7998 -143.2 42.3994 -256 80 -345.601c1.59961 -4 1.59961 -8.7998 -0.800781 -12.7998c-2.39941 -4 -7.19922 -5.59961 -12 -5.59961z" />
    <glyph glyph-name="parenright" unicode=")" horiz-adv-x="335" vert-adv-y="0" 
d="M14.4004 -76.7998h101.6c4.7998 0 9.59961 2.39941 12 7.2002c49.5996 94.3994 107.2 273.6 107.2 468c0 9.59961 -0.799805 19.1992 -0.799805 28.7998c0 7.2002 -5.60059 13.5996 -13.6006 13.5996c-7.2002 0 -13.5996 -7.2002 -13.5996 -14.3994
c0 -9.60059 0.799805 -18.4004 0.799805 -28c0 -184 -53.5996 -354.4 -100.8 -448h-72.7998c24 60.7998 54.3994 159.199 74.3994 333.6c7.2002 60 22.4004 86.4004 48 129.6l13.6006 23.2002c25.5996 43.2002 55.1992 92.7998 47.1992 152.8
c-22.3994 132 -60.7998 223.2 -89.5996 276c-2.40039 4 -7.2002 7.2002 -12 7.2002h-101.6c-4.80078 0 -9.60059 -2.39941 -12 -6.39941c-2.40039 -4 -3.2002 -8.80078 -1.60059 -12.8008c48.7998 -120.8 76 -247.199 83.2002 -386.399
c0 -7.2002 7.2002 -12.7998 15.2002 -12.7998c7.2002 0 12.7998 7.19922 12.7998 14.3994c-6.40039 135.2 -32 259.2 -77.5996 376.8h72.7998c27.2002 -52 62.3994 -138.399 83.2002 -260.8c7.19922 -49.5996 -18.4004 -92 -43.2002 -133.6l-13.6006 -23.2002
c-27.1992 -44.7998 -44.7998 -74.4004 -52 -140.8c-16.7998 -143.2 -43.1992 -256 -80.7998 -345.601c-1.59961 -4 -0.799805 -8.7998 1.60059 -12.7998c2.39941 -4 7.19922 -5.59961 12 -5.59961z" />
    <glyph glyph-name="asterisk" unicode="*" horiz-adv-x="533" vert-adv-y="0" 
d="M136.8 385.6c-1.59961 0 -3.2002 0.800781 -4.7998 1.60059l-72 48c-4.7998 3.2002 -6.40039 9.59961 -3.2002 14.3994l60 88.8008h-107.2c-5.59961 0 -9.59961 4.7998 -9.59961 10.3994v85.6006c0 5.59961 4 10.3994 9.59961 10.3994h88
c40.8008 0 53.6006 -16 69.6006 -39.2002l132.8 -196l54.4004 36.8008l-24 36c-3.2002 4.7998 -1.60059 10.3994 3.19922 13.5996c4.80078 3.2002 10.4004 2.40039 13.6006 -2.40039l29.5996 -44c3.2002 -4.7998 2.40039 -11.1992 -2.39941 -14.3994l-72 -48
c-2.40039 -1.60059 -4.80078 -1.60059 -7.2002 -1.60059c-2.40039 0 -4.7998 2.40039 -6.40039 4.80078l-137.6 204c-13.6006 20 -21.6006 30.3994 -53.6006 30.3994h-77.5996v-66.3994h115.2c3.2002 0 8 -2.40039 9.59961 -5.60059
c1.60059 -3.2002 0.799805 -7.2002 -0.799805 -10.3994l-64.7998 -96l55.2002 -36.8008l34.3994 51.2002c3.2002 4.7998 9.60059 5.60059 14.4004 2.40039s5.59961 -8.7998 2.39941 -13.6006l-40 -60c-1.59961 -2.39941 -5.59961 -4 -8.7998 -4zM424 538.4h-84.7998
c-38.4004 0 -52 7.19922 -72.7998 39.1992c-16.8008 25.6006 -108 160.801 -132 196l-55.2002 -37.5996l24.7998 -36c3.2002 -4.7998 1.59961 -11.2002 -3.2002 -14.4004c-4.7998 -3.19922 -10.3994 -2.39941 -13.5996 2.40039l-30.4004 45.5996
c-3.2002 4.80078 -1.59961 10.4004 3.2002 13.6006l72 48.7998c4.7998 3.2002 10.4004 1.59961 13.5996 -3.2002c0.800781 -1.59961 118.4 -176 137.601 -204.8c16.7998 -25.5996 24.7998 -29.5996 56 -29.5996h75.2002v66.3994h-116
c-3.2002 0 -7.2002 2.40039 -8.80078 5.60059c-1.59961 3.19922 -1.59961 6.39941 0 9.59961l64.8008 96l-54.4004 37.5996l-33.5996 -49.5996c-3.2002 -4.7998 -9.60059 -5.59961 -14.4004 -2.40039c-4.7998 3.2002 -5.59961 8.80078 -2.40039 13.6006l39.2002 57.5996
c1.60059 2.40039 4 4.7998 6.40039 4.7998c2.39941 0 4.7998 0 7.2002 -1.59961l72 -48.7998c4.7998 -3.2002 5.59961 -8.7998 2.39941 -13.6006l-60 -88.7998h107.2c5.59961 0 9.59961 -4.7998 9.59961 -10.3994v-85.6006c0 -5.59961 -4 -10.3994 -9.59961 -10.3994z" />
    <glyph glyph-name="plus" unicode="+" horiz-adv-x="709" vert-adv-y="0" 
d="M595.2 380c8 0 14.3994 -6.40039 14.3994 -14.4004v-121.6c0 -8 -6.39941 -14.4004 -14.3994 -14.4004h-131.2c-8 0 -15.2002 6.40039 -15.2002 14.4004s7.2002 15.2002 15.2002 15.2002h116v91.2002h-200v-335.2c0 -8 -6.40039 -15.2002 -14.4004 -15.2002h-121.6
c-8 0 -14.4004 7.2002 -14.4004 15.2002v214.399h-214.399c-8 0 -15.2002 6.40039 -15.2002 14.4004v121.6c0 8 7.2002 14.4004 15.2002 14.4004h214.399v215.2c0 8 6.40039 14.3994 14.4004 14.3994h121.6c8 0 14.4004 -6.39941 14.4004 -14.3994v-132
c0 -8 -6.40039 -15.2002 -14.4004 -15.2002s-15.1992 7.2002 -15.1992 15.2002v116.8h-91.2002v-214.4c0 -8 -7.2002 -15.1992 -15.2002 -15.1992h-214.4v-91.2002h214.4c8 0 15.2002 -7.2002 15.2002 -15.2002v-214.4h91.2002v336c0 8 7.19922 14.4004 15.1992 14.4004
h229.601z" />
    <glyph glyph-name="comma" unicode="," horiz-adv-x="303" vert-adv-y="0" 
d="M81.5996 -102.4c-8 0 -15.1992 1.60059 -24 4.80078c-7.19922 3.19922 -11.1992 12 -8 19.1992c3.2002 7.2002 12 10.4004 19.2002 7.2002c28 -12 48.7998 20 54.4004 32.7998l44.7998 100.801c7.2002 16.7998 8 36 0.799805 53.5996s-20 31.2002 -37.5996 38.4004
c-17.6006 7.19922 -37.6006 8 -55.2002 0.799805s-32 -20.7998 -39.2002 -37.6006c-7.2002 -16.7998 -8 -35.1992 -0.799805 -52.7998c7.2002 -17.5996 20 -32 37.5996 -39.2002c7.2002 -3.19922 11.2002 -11.1992 8 -18.3994
c-3.19922 -7.2002 -12 -10.4004 -19.1992 -7.2002c-24.8008 10.4004 -44 28.7998 -53.6006 53.5996c-9.59961 24.8008 -9.59961 52 0.799805 76c10.4004 24 31.2002 43.2002 56 52.8008c24.8008 9.59961 52 9.59961 76.8008 -0.800781
c24.7998 -10.3994 44 -29.5996 53.5996 -54.3994s9.59961 -52 -0.799805 -76l-44.7998 -100.8c-10.4004 -24 -36 -52.8008 -68.8008 -52.8008z" />
    <glyph glyph-name="hyphen" unicode="-" horiz-adv-x="344" vert-adv-y="0" 
d="M244.8 346.4c0 -8 -6.39941 -14.4004 -14.3994 -14.4004s-14.4004 6.40039 -14.4004 14.4004v77.5996h-188.8v-63.2002h94.3994c8 0 14.4004 -6.39941 14.4004 -14.3994s-6.40039 -13.6006 -14.4004 -13.6006h-108.8c-8 0 -14.3994 5.60059 -14.3994 13.6006v92
c0 8 6.39941 14.3994 14.3994 14.3994h217.601c8 0 14.3994 -6.39941 14.3994 -14.3994v-92z" />
    <glyph glyph-name="period" unicode="." horiz-adv-x="302" vert-adv-y="0" 
d="M136 0c-5.59961 0 -11.2002 3.2002 -13.5996 8.7998c-3.2002 7.2002 0.799805 16 8 19.2002c16.7998 7.2002 29.5996 19.2002 36.7998 36c8 16.7998 8.7998 36 1.59961 53.5996c-7.2002 17.6006 -19.2002 31.2002 -36.7998 39.2002
c-17.5996 7.2002 -37.5996 7.2002 -55.2002 0.799805c-17.5996 -6.39941 -32 -20 -40 -36.7998s-8.7998 -36 -1.59961 -53.5996c7.2002 -17.6006 20.7998 -31.2002 38.3994 -38.4004c7.2002 -3.2002 10.4004 -12 7.2002 -19.2002
c-3.2002 -7.19922 -12 -10.3994 -19.2002 -7.19922c-24.7998 10.3994 -44 29.5996 -53.5996 54.3994s-8.7998 52 2.40039 76c11.1992 24 31.1992 42.4004 56 52c24.7998 9.60059 52 8.7998 76.7998 -1.59961c50.3994 -22.4004 73.5996 -81.6006 51.2002 -131.2
c-10.4004 -23.2002 -29.6006 -40.7998 -52.8008 -50.4004c-1.59961 -0.799805 -4 -1.59961 -5.59961 -1.59961z" />
    <glyph glyph-name="slash" unicode="/" horiz-adv-x="499" vert-adv-y="0" 
d="M12.7998 0h-2.39941c-0.800781 0 -2.40039 0.799805 -3.2002 1.59961c-1.60059 0.800781 -3.2002 2.40039 -4 3.2002s-1.60059 3.2002 -1.60059 4.7998v4c0 0.800781 0.800781 1.60059 0.800781 2.40039l304 776.8c1.59961 4 6.39941 7.2002 11.1992 7.2002h70.4004
c4 0 7.2002 -1.59961 9.59961 -4.7998c1.60059 -3.2002 3.2002 -8 1.60059 -11.2002l-139.2 -353.6c-2.40039 -5.60059 -8.7998 -8.80078 -14.4004 -6.40039c-5.59961 2.40039 -9.59961 9.59961 -7.19922 15.2002l132.8 337.6h-45.6006l-296 -753.6h46.4004l135.2 344
c2.39941 5.59961 9.59961 8.7998 15.2002 6.39941c5.59961 -2.39941 8.7998 -9.59961 6.39941 -15.1992l-138.399 -351.2c-1.60059 -4 -6.40039 -7.2002 -11.2002 -7.2002h-70.4004z" />
    <glyph glyph-name="zero" unicode="0" horiz-adv-x="530" vert-adv-y="0" 
d="M209.6 0c-110.399 0 -180.8 74.4004 -194.399 205.6c-7.2002 71.2002 14.3994 131.2 64.7998 177.601c66.4004 61.5996 72 86.3994 72 115.2c0.799805 60.7998 3.2002 100.8 6.40039 120.8c6.39941 33.5996 16.7998 64 57.5996 64
c36.7998 0 47.2002 -30.4004 52.7998 -60.7998c9.60059 -48.8008 9.60059 -140.801 9.60059 -201.601c0 -72 -0.800781 -200 -7.2002 -244c-3.2002 -16.7998 -12 -60 -56.7998 -60c-42.4004 0 -53.6006 35.2002 -57.6006 66.4004
c-2.39941 17.5996 -6.39941 128.8 -7.2002 160c0 8 5.60059 14.3994 13.6006 14.3994s14.3994 -5.59961 14.3994 -13.5996c0.800781 -33.5996 5.60059 -142.4 7.2002 -157.6c5.60059 -38.4004 16 -41.6006 29.6006 -41.6006c18.3994 0 24 13.6006 28.7998 36.7998
c4.7998 30.4004 7.2002 117.601 7.2002 239.2c0 56 0.799805 150.4 -8.80078 196c-7.19922 38.4004 -17.5996 38.4004 -25.5996 38.4004c-12.7998 0 -23.2002 0 -30.4004 -40c-2.39941 -18.4004 -4.7998 -58.4004 -5.59961 -117.601
c0 -40 -12.7998 -71.1992 -80.7998 -134.399c-43.2002 -40 -62.4004 -92 -56 -154.4c7.2002 -67.2002 37.5996 -180.8 166.399 -180.8c73.6006 0 126.4 37.5996 153.601 108c35.2002 90.4004 39.2002 224.8 39.2002 278.4c0 244 -59.2002 357.6 -187.2 357.6
c-129.601 0 -187.2 -118.4 -187.2 -384.8c0 -8 -5.59961 -13.6006 -13.5996 -13.6006s-14.4004 5.60059 -14.4004 13.6006c0 176.8 22.4004 412.8 215.2 412.8c215.2 0 215.2 -290.4 215.2 -385.6c0 -55.2002 -4 -194.4 -40.8008 -288.801
c-31.1992 -80.7998 -95.1992 -125.6 -180 -125.6z" />
    <glyph glyph-name="one" unicode="1" horiz-adv-x="462" vert-adv-y="0" 
d="M348.8 164c8 0 13.6006 -6.40039 13.6006 -14.4004v-135.199c0 -8 -5.60059 -14.4004 -13.6006 -14.4004h-307.2c-8 0 -14.3994 6.40039 -14.3994 14.4004v135.199c0 8 6.39941 14.4004 14.3994 14.4004s14.4004 -6.40039 14.4004 -14.4004v-120.8h278.4v106.4h-96
h-53.6006c-36.7998 0 -74.3994 9.59961 -74.3994 81.5996v32v0.799805l-0.800781 276l-61.5996 -0.799805c-6.40039 0 -12 4 -13.5996 9.60059l-33.6006 99.1992c-1.59961 4.80078 -0.799805 10.4004 3.2002 14.4004l146.4 148c2.39941 2.40039 5.59961 4 9.59961 4h115.2
c8 0 13.5996 -6.40039 13.5996 -14.4004v-540.8c0 -8 -5.59961 -14.3994 -13.5996 -14.3994s-14.4004 6.39941 -14.4004 14.3994v526.4h-94.3994l-136 -136.8l27.1992 -81.6006l66.4004 0.799805c4 0 7.2002 -0.799805 9.59961 -3.19922
c2.40039 -2.40039 4.80078 -6.40039 4.80078 -10.4004v-291.2v-32c0 -49.5996 18.3994 -52.7998 46.3994 -52.7998h53.6006h110.399z" />
    <glyph glyph-name="two" unicode="2" horiz-adv-x="524" vert-adv-y="0" 
d="M410.4 172c8 0 14.3994 -6.40039 14.3994 -14.4004v-143.199c0 -8 -6.39941 -14.4004 -14.3994 -14.4004h-396h-3.2002l-0.799805 0.799805c-0.800781 0 -1.60059 0.799805 -2.40039 0.799805h-0.799805c-0.799805 0 -1.60059 1.60059 -1.60059 1.60059
l-0.799805 0.799805c-0.799805 0.799805 -1.59961 1.59961 -2.39941 2.40039l-0.800781 0.799805l-0.799805 1.59961v1.60059l-0.799805 0.799805v2.39941v0.800781v2.39941c0 0.799805 0.799805 0.799805 0.799805 1.60059v0.799805l0.799805 1.59961l0.800781 0.799805
l0.799805 1.60059l0.799805 0.799805c0.799805 0.799805 1.59961 1.59961 2.40039 1.59961c176.8 117.601 390.399 388.801 390.399 547.2c0 147.2 -93.5996 199.2 -180 199.2c-142.399 0 -175.2 -123.2 -187.2 -221.6l98.4004 -24.8008
c4 69.6006 18.4004 141.601 81.5996 141.601c29.6006 0 64.8008 -14.4004 64.8008 -86.4004c0 -149.6 -77.6006 -240 -238.4 -415.2c-5.59961 -5.59961 -14.4004 -6.39941 -20 -0.799805c-5.59961 5.60059 -6.40039 13.6006 -0.799805 19.2002
c155.2 169.6 230.399 257.6 230.399 396.8c0 40.7998 -11.1992 58.4004 -36 58.4004c-20.7998 0 -50.3994 -13.6006 -54.3994 -132c0 -4 -2.40039 -8 -5.60059 -10.4004c-3.19922 -2.39941 -8 -3.2002 -12 -2.39941l-127.199 31.1992
c-6.40039 1.60059 -11.2002 8 -10.4004 15.2002c6.40039 64.7998 26.4004 259.2 216.8 259.2c96 0 208 -59.2002 208 -227.2c0 -159.2 -189.6 -411.2 -366.399 -544.8h338.399v116h-114.399c-8 0 -14.4004 5.59961 -14.4004 13.5996s6.40039 14.4004 14.4004 14.4004h128z
" />
    <glyph glyph-name="three" unicode="3" horiz-adv-x="530" vert-adv-y="0" 
d="M216 0c-39.2002 0 -112 8.7998 -161.6 70.4004c-48 60 -52.8008 130.399 -54.4004 164c0 7.19922 4 14.3994 11.2002 15.1992l122.399 21.6006c4 0.799805 8 0 11.2002 -2.40039c3.2002 -2.39941 5.60059 -5.59961 5.60059 -9.59961c4 -59.2002 15.1992 -96 54.3994 -96
c24.7998 0 53.6006 9.59961 53.6006 85.5996c0 16.7998 -1.60059 27.2002 -4.80078 37.6006c-1.59961 7.19922 3.2002 16 10.4004 17.5996s15.2002 -2.40039 16.7998 -9.59961c3.2002 -12.8008 4.7998 -26.4004 4.7998 -45.6006c0 -76 -27.1992 -114.399 -80.7998 -114.399
c-64.7998 0 -77.5996 64.7998 -81.5996 107.199l-94.4004 -17.5996c2.40039 -34.4004 10.4004 -88.7998 48 -136c41.6006 -52 104.8 -60 139.2 -60c116.8 0 186.4 79.2002 186.4 212.8c0 40 -11.2002 69.6006 -35.2002 90.4004
c-39.2002 34.3994 -112 46.3994 -215.2 34.3994c-4 0 -7.2002 0.800781 -10.4004 3.2002c-3.19922 2.40039 -4.7998 7.2002 -4.7998 11.2002v77.5996c0 7.2002 6.40039 13.6006 13.6006 13.6006l27.1992 1.59961c41.6006 4.7998 68 8.7998 68 100.8
c0 20.8008 -4 69.6006 -37.5996 69.6006c-32 0 -40 -37.6006 -46.4004 -78.4004c0 -4 -3.19922 -7.2002 -6.39941 -9.59961c-3.2002 -2.40039 -6.40039 -3.2002 -10.4004 -2.40039l-119.2 28.7998c-7.19922 1.60059 -12 8.80078 -10.3994 16v1.60059
c9.59961 49.5996 39.2002 200.8 204 200.8c121.6 0 194.399 -78.4004 194.399 -210.4c0 -65.5996 -12 -108 -40.7998 -142.399c-4.7998 -5.60059 -14.3994 -6.40039 -20 -1.60059c-5.59961 4.80078 -6.39941 14.4004 -1.59961 20c24 29.6006 34.3994 64.8008 34.3994 124
c0 55.2002 -16 182.4 -166.399 182.4c-132 0 -163.2 -111.2 -174.4 -166.4l91.2002 -21.5996c6.40039 36 21.5996 86.4004 72 86.4004c40.7998 0 65.5996 -36 65.5996 -96.8008c0 -108 -38.3994 -121.6 -92.7998 -128l-16 -0.799805v-49.5996
c103.2 9.59961 177.601 -4.7998 220.8 -43.2002c29.6006 -26.4004 44.8008 -64 44.8008 -111.2c0 -116.8 -56.8008 -240.8 -214.4 -240.8z" />
    <glyph glyph-name="four" unicode="4" horiz-adv-x="490" vert-adv-y="0" 
d="M376.8 0h-135.2c-8 0 -13.5996 6.40039 -13.5996 14.4004v102.399c0 8 5.59961 13.6006 13.5996 13.6006s13.6006 -5.60059 13.6006 -13.6006v-88.7998h107.2v166.4h-348c-8 0 -14.4004 5.59961 -14.4004 13.5996v127.2c0 1.59961 0 4.7998 0.799805 6.39941l208 450.4
c2.40039 4.7998 7.2002 8 12.7998 8h155.2c8 0 13.6006 -6.40039 13.6006 -14.4004v-450.399c0 -8 -5.60059 -13.6006 -13.6006 -13.6006h-230.399h-2.40039c-1.59961 0 -3.2002 0.800781 -4.7998 1.60059c-1.60059 0.799805 -4 3.2002 -4.7998 4.7998
c-0.800781 1.59961 -1.60059 4 -1.60059 5.59961v4c0 0.800781 0.799805 2.40039 0.799805 3.2002l99.2002 244.8c2.40039 6.40039 8.7998 8.80078 15.2002 8c6.40039 -0.799805 11.2002 -7.19922 11.2002 -13.5996v-153.6c0 -8 -5.60059 -13.6006 -13.6006 -13.6006
s-13.5996 5.60059 -13.5996 13.6006v82.3994l-65.5996 -159.2h196v422.4h-132l-202.4 -439.2v-110.399h348.8c8 0 13.6006 -6.40039 13.6006 -14.4004v-193.6c0 -8 -5.60059 -14.4004 -13.6006 -14.4004z" />
    <glyph glyph-name="five" unicode="5" horiz-adv-x="534" vert-adv-y="0" 
d="M210.4 0c-184.801 0 -208 174.4 -211.2 228c0 7.2002 4.7998 12.7998 11.2002 14.4004l124.8 25.5996c4 0.799805 8 0.799805 11.2002 -1.59961c3.19922 -2.40039 5.59961 -6.40039 5.59961 -10.4004c5.59961 -50.4004 13.5996 -90.4004 56.7998 -90.4004
c39.2002 0 52.7998 27.2002 52.7998 107.2c0 39.2002 -2.39941 61.6006 -6.39941 85.6006c-0.799805 8 3.2002 15.1992 11.2002 16c8 0.799805 16 -3.2002 16.7998 -11.2002c4 -24.7998 6.39941 -48.7998 6.39941 -90.4004c0 -48 0.800781 -136 -80.7998 -136
c-64 0 -78.3994 59.2002 -83.2002 100.8l-97.5996 -20.7998c5.59961 -65.5996 36 -188.8 182.4 -188.8c131.199 0 195.199 74.4004 195.199 228c0 133.6 -94.3994 194.4 -188.8 194.4c-96.7998 0 -154.399 -47.2002 -164 -59.2002l-0.799805 -0.799805
c-0.799805 -1.60059 -2.40039 -2.40039 -4 -3.2002s-4 -1.60059 -5.59961 -1.60059c-1.60059 0 -4 0 -5.60059 0.800781c-1.59961 0.799805 -3.2002 2.39941 -4 3.19922c-1.59961 0.800781 -3.2002 3.2002 -4 4.80078c-0.799805 1.59961 -0.799805 4 -0.799805 5.59961
v0.799805l20 385.601c0 7.19922 7.2002 13.5996 14.4004 13.5996h325.6c4 0 8 -1.59961 10.4004 -4.7998c2.39941 -2.40039 4 -6.40039 4 -10.4004l-12.8008 -144.8c-0.799805 -7.2002 -7.19922 -12.7998 -14.3994 -12.7998h-196l-4.7998 -75.2002
c0 -8 -7.2002 -12.7998 -15.2002 -12.7998s-12.7998 7.2002 -12.7998 15.2002l4.7998 88c0 7.19922 8 12.7998 15.2002 12.7998h196l10.3994 116.8h-296.8l-18.4004 -339.2c32.8008 22.4004 88 45.6006 159.2 45.6006c104.8 0 217.601 -69.6006 217.601 -222.4
c0 -167.2 -77.6006 -256 -224 -256z" />
    <glyph glyph-name="six" unicode="6" horiz-adv-x="534" vert-adv-y="0" 
d="M218.4 0h-4c-78.4004 1.59961 -136 40 -171.2 113.6c-32 66.4004 -46.4004 160.801 -43.2002 288.801c2.40039 92 15.2002 170.399 36.7998 232.8c38.4004 109.6 107.2 167.2 199.2 164.8c35.2002 -0.799805 100.8 -10.4004 148 -68.7998
c38.4004 -48 47.2002 -108 50.4004 -136.8c0.799805 -7.2002 -4 -14.4004 -12 -15.2002l-116.801 -16c-4 0 -7.19922 0.799805 -10.3994 3.2002c-3.2002 2.39941 -5.60059 5.59961 -5.60059 9.59961c-0.799805 12.7998 -7.19922 76.7998 -52.7998 77.5996
c-32.7998 0.800781 -51.2002 -13.5996 -60.7998 -95.1992c-0.799805 -8 -8 -12.8008 -16 -12c-8 0.799805 -12.7998 7.19922 -12 15.1992c8 72 25.5996 120.801 87.2002 120.801c0.799805 0 1.59961 -0.800781 2.39941 -0.800781
c48.8008 -0.799805 72.8008 -44 79.2002 -88.7998l88 12c-4 29.6006 -13.5996 73.6006 -42.3994 108.8c-40 49.6006 -96.8008 57.6006 -127.2 58.4004c-80 1.59961 -137.601 -47.2002 -172 -145.6c-20.7998 -60 -32.7998 -135.2 -34.4004 -224.801
c-2.39941 -124 9.60059 -213.6 39.2002 -276c30.4004 -64 79.2002 -96 147.2 -97.5996h4.7998c161.6 0 179.2 180.8 180 236.8c3.2002 130.4 -56 223.2 -144 224.8h-3.2002c-40 0 -66.3994 -20 -79.2002 -60c-13.5996 -42.3994 -14.3994 -164 -14.3994 -164.8
c0 -54.3994 9.59961 -119.2 53.5996 -120c16.7998 -0.799805 27.2002 7.2002 34.4004 26.4004c7.2002 20 8 49.5996 8.7998 78.3994c0.799805 52.8008 0 110.4 -18.4004 135.2c-4.7998 6.40039 -3.19922 14.4004 3.2002 19.2002c6.40039 4.7998 14.4004 4 19.2002 -2.40039
c22.4004 -29.5996 26.4004 -82.3994 24.7998 -152.8c-0.799805 -35.2002 -3.2002 -64 -11.2002 -86.3994c-13.5996 -37.6006 -40.7998 -46.4004 -61.5996 -45.6006c-36.7998 0.799805 -80.7998 28 -80.7998 148.8c0 4.80078 0.799805 125.601 16 172
c16.7998 52 56 80 109.6 79.2002c104 -2.39941 174.4 -105.6 171.2 -252c-5.59961 -242.399 -156.8 -264.8 -209.6 -264.8z" />
    <glyph glyph-name="seven" unicode="7" horiz-adv-x="503" vert-adv-y="0" 
d="M212 0h-163.2c-8 0 -14.3994 6.40039 -14.3994 14.4004v257.6c0 56 8 76 32.7998 124.8c20 39.2002 155.2 298.4 195.2 374.4h-233.601v-106.4h87.2002c8 0 14.4004 -6.39941 14.4004 -14.3994s-6.40039 -14.4004 -14.4004 -14.4004h-101.6
c-8 0 -14.4004 6.40039 -14.4004 14.4004v135.199c0 8 6.40039 14.4004 14.4004 14.4004h271.199c4.80078 0 10.4004 -3.2002 12.8008 -7.2002c2.39941 -4 2.39941 -9.59961 0 -13.5996c-1.60059 -3.2002 -183.2 -350.4 -206.4 -396
c-22.4004 -44 -28.7998 -60 -28.7998 -111.2v-243.2h135.2c0 46.4004 -0.800781 193.601 -0.800781 240.8c0 57.6006 8.80078 88.8008 19.2002 112.801l0.799805 0.799805l140.801 245.6c16 29.6006 16.7998 66.4004 16.7998 111.2v45.5996
c0 8 6.39941 14.4004 14.3994 14.4004s13.6006 -6.40039 13.6006 -14.4004v-44.7998c0 -47.2002 -0.799805 -89.5996 -20 -125.6l-140 -244.8c-8 -20 -17.6006 -46.4004 -17.6006 -100.801c0 -56 0.800781 -255.199 0.800781 -255.199c0 -4 -1.60059 -8 -4 -10.4004
c-2.40039 -2.40039 -6.40039 -4 -10.4004 -4z" />
    <glyph glyph-name="eight" unicode="8" horiz-adv-x="564" vert-adv-y="0" 
d="M223.2 0c-49.6006 0 -119.2 10.4004 -167.2 58.4004c-48.7998 48.7998 -56 113.6 -56 148c0 52 19.2002 100.8 36.7998 128.8c4 6.39941 12 8 18.4004 4.7998l108.8 -55.2002c6.40039 -3.2002 8.7998 -11.2002 6.40039 -17.5996
c-4 -11.2002 -4.80078 -20.7998 -4.80078 -37.6006c0 -39.1992 10.4004 -86.3994 60.8008 -86.3994c20 0 35.1992 8 46.3994 24c16.7998 24 20.7998 63.2002 8.7998 94.3994c-9.59961 24.8008 -21.5996 41.6006 -40.7998 55.2002c-16.7998 12 -36 22.4004 -55.2002 32
c-8.7998 4 -16 8 -24.7998 12c-40 19.2002 -81.5996 39.2002 -107.2 84c-4 7.2002 -8 14.4004 -12.7998 25.6006c-13.5996 31.1992 -20.7998 66.3994 -20.7998 106.399c0 135.2 84 223.2 213.6 223.2c157.601 0 212.801 -105.6 212.801 -196
c0 -47.2002 -15.2002 -83.2002 -28 -104.8c-4 -6.40039 -12.8008 -8.7998 -19.2002 -4.7998c-6.40039 4 -8.7998 12.7998 -4.7998 19.1992c11.1992 18.4004 23.1992 49.6006 23.1992 90.4004c0 124 -99.1992 167.2 -184 167.2c-88.7998 0 -184.8 -51.2002 -184.8 -194.4
c0 -36 5.60059 -66.3994 17.6006 -93.5996c4.7998 -9.60059 8.7998 -18.4004 12.7998 -24.7998c20.7998 -36.8008 56 -54.4004 93.5996 -72c8.7998 -4 17.6006 -8 26.4004 -12.8008c20 -10.3994 39.2002 -20.7998 57.5996 -33.5996c24 -16.7998 40.7998 -37.5996 52 -68
c15.2002 -40 9.60059 -89.5996 -12 -121.6c-16.7998 -24 -40.7998 -36 -70.3994 -36c-56 0 -89.6006 43.1992 -89.6006 115.199c0 14.4004 0.799805 24.8008 3.2002 35.2002l-85.5996 44c-13.6006 -25.5996 -25.6006 -63.2002 -25.6006 -102.399
c0 -30.4004 5.60059 -86.4004 47.2002 -128c43.2002 -43.2002 111.2 -49.6006 147.2 -49.6006c135.2 0 212 74.4004 212 206.4c0 40.7998 -6.40039 75.2002 -21.6006 104.8c-18.3994 39.2002 -52.7998 71.2002 -97.5996 91.2002
c-14.4004 6.39941 -28 12.7998 -42.4004 19.2002l-4.7998 3.19922c-36 16.8008 -76.7998 36 -93.5996 78.4004c-12.7998 32.7998 -18.4004 94.4004 7.2002 132c12.7998 19.2002 32 29.5996 56 29.5996c44 0 71.1992 -37.5996 71.1992 -100
c0 -12.7998 -1.59961 -24.7998 -4 -36c-1.59961 -8 -8.7998 -12.7998 -16.7998 -11.1992c-8 1.59961 -12.7998 8.7998 -11.2002 16.7998c1.60059 9.59961 3.2002 19.2002 3.2002 30.3994c0 26.4004 -6.39941 71.2002 -42.3994 71.2002
c-15.2002 0 -24.8008 -5.59961 -32.8008 -16.7998c-18.3994 -27.2002 -14.3994 -79.2002 -4 -105.6c12.8008 -32 46.4004 -47.2002 79.2002 -63.2002l4.7998 -2.40039c14.4004 -6.39941 28 -13.5996 42.4004 -20c51.2002 -23.2002 89.5996 -59.2002 111.2 -104
c16.7998 -33.5996 24.7998 -72 24.7998 -117.6c0 -147.2 -89.5996 -235.2 -240.8 -235.2z" />
    <glyph glyph-name="nine" unicode="9" horiz-adv-x="538" vert-adv-y="0" 
d="M204.8 0h-4.7998c-35.2002 0.799805 -101.6 10.4004 -149.6 68.7998c-39.2002 48 -46.4004 108 -50.4004 136.8c-0.799805 7.2002 4 14.4004 12 15.2002l117.6 16c4 0 8 -0.799805 11.2002 -3.2002c3.2002 -2.39941 5.60059 -5.59961 5.60059 -9.59961
c0.799805 -12.7998 7.19922 -76.7998 52.7998 -77.5996h1.59961c32 0 51.2002 16 60 95.1992c0.799805 8 8 12.8008 16 12c8 -0.799805 12.7998 -7.19922 12 -15.1992c-8.7998 -72.8008 -26.3994 -121.601 -90.3994 -120.801
c-49.6006 0.800781 -72.8008 44.8008 -79.2002 89.6006l-88.7998 -12c4 -29.6006 12.7998 -73.6006 42.3994 -108.8c40 -49.6006 96.7998 -57.6006 127.2 -58.4004c80.7998 -2.40039 139.2 47.2002 173.6 145.6c20.8008 60 33.6006 135.2 35.2002 224.801
c2.40039 124 -9.59961 213.6 -40 276c-31.2002 64 -80 96 -148 97.5996c-167.2 3.2002 -184.8 -180 -185.6 -236.8c-3.2002 -130.4 56.7998 -223.2 144.8 -224.8c41.5996 -0.800781 69.5996 19.1992 83.2002 60c13.5996 42.3994 14.3994 163.199 14.3994 164
c0 54.3994 -9.59961 120 -53.5996 120.8c-16.7998 0.799805 -27.2002 -7.2002 -34.4004 -26.4004c-7.19922 -20 -8.7998 -49.5996 -9.59961 -78.3994c-0.799805 -52.8008 0 -110.4 18.4004 -135.2c4.7998 -6.40039 4 -14.4004 -2.40039 -19.2002s-15.2002 -4 -20 2.40039
c-22.4004 29.5996 -26.4004 82.3994 -24.7998 152.8c0.799805 35.2002 3.2002 64 11.2002 86.3994c14.3994 37.6006 41.5996 45.6006 62.3994 45.6006c36.7998 -0.799805 80.7998 -28 80.7998 -148.8c0 -4.80078 0 -125.601 -15.1992 -172
c-16.8008 -52 -56 -80 -110.4 -79.2002c-104.8 2.39941 -176.8 105.6 -173.6 252c5.59961 249.6 166.399 265.6 215.199 264.8c79.2002 -1.59961 137.601 -40 172.801 -113.6c32 -66.4004 46.3994 -160.801 43.1992 -288.801
c-2.39941 -92 -14.3994 -170.399 -36.7998 -232.8c-37.5996 -107.2 -105.6 -164.8 -196 -164.8z" />
    <glyph glyph-name="colon" unicode=":" horiz-adv-x="302" vert-adv-y="0" 
d="M136 -1.59961c-5.59961 0 -11.2002 3.19922 -13.5996 8.7998c-3.2002 7.2002 0.799805 15.2002 8 18.3994c16.7998 7.2002 29.5996 19.2002 36.7998 36c8 16.8008 8.7998 36.8008 1.59961 54.4004s-19.2002 30.4004 -36.7998 38.4004
c-17.5996 7.19922 -37.5996 8 -55.2002 1.59961c-17.5996 -6.40039 -32 -20.7998 -40 -37.5996c-8 -16.8008 -8.7998 -35.2002 -1.59961 -52.8008c7.2002 -17.5996 20.7998 -32 38.3994 -39.1992c7.2002 -3.2002 10.4004 -12 7.2002 -19.2002s-12 -10.4004 -19.2002 -7.2002
c-24.7998 10.4004 -44 30.4004 -53.5996 55.2002s-8.7998 51.2002 2.40039 75.2002c11.1992 24 31.1992 43.1992 56 52.7998c24.7998 9.59961 52 8 76.7998 -2.40039c50.3994 -22.3994 73.5996 -81.5996 51.2002 -131.2c-10.4004 -23.1992 -29.6006 -40 -52.8008 -49.5996
c-1.59961 -0.799805 -4 -1.59961 -5.59961 -1.59961zM136 395.2c-5.59961 0 -11.2002 3.2002 -13.5996 8.7998c-3.2002 7.2002 0.799805 15.2002 8 18.4004c16.7998 7.19922 29.5996 19.1992 36.7998 36c8 16.7998 8.7998 36.7998 1.59961 54.3994
c-7.2002 17.6006 -19.2002 30.4004 -36.7998 38.4004c-17.5996 7.2002 -37.5996 8 -55.2002 1.59961c-17.5996 -6.39941 -32 -20 -40 -36.7998s-8.7998 -36 -1.59961 -53.5996c7.2002 -17.6006 20.7998 -32 38.3994 -39.2002c7.2002 -3.2002 10.4004 -12 7.2002 -19.2002
s-12 -10.4004 -19.2002 -7.2002c-24.7998 10.4004 -44 29.6006 -53.5996 54.4004s-8.7998 52 2.40039 76c11.1992 24 31.1992 42.3994 56 52c24.7998 9.59961 52 8.7998 76.7998 -1.60059c50.3994 -22.3994 73.5996 -80.7998 51.2002 -130.399
c-10.4004 -23.2002 -29.6006 -41.6006 -52.8008 -51.2002c-1.59961 -0.799805 -4 -0.799805 -5.59961 -0.799805z" />
    <glyph glyph-name="semicolon" unicode=";" horiz-adv-x="303" vert-adv-y="0" 
d="M136 396.8c-5.59961 0 -11.2002 3.2002 -13.5996 8.7998c-3.2002 7.2002 0.799805 15.2002 8 18.4004c16.7998 7.2002 29.5996 19.2002 36.7998 36c8 16.7998 8.7998 36.7998 1.59961 54.4004c-7.2002 17.5996 -19.2002 30.3994 -36.7998 38.3994
c-17.5996 7.2002 -37.5996 8 -55.2002 1.60059c-17.5996 -6.40039 -32 -20.8008 -40 -37.6006s-8.7998 -35.2002 -1.59961 -52.7998s20.7998 -32 38.3994 -39.2002c7.2002 -3.2002 10.4004 -12 7.2002 -19.2002c-3.2002 -7.19922 -12 -10.3994 -19.2002 -7.19922
c-24.7998 10.3994 -44 30.3994 -53.5996 55.1992c-9.59961 24.8008 -8.7998 51.2002 2.40039 75.2002c11.1992 24 31.1992 43.2002 56 52.7998c24.7998 9.60059 52 8 76.7998 -2.39941c50.3994 -22.4004 73.5996 -80.7998 51.2002 -130.4
c-10.4004 -23.2002 -29.6006 -40.7998 -52.8008 -50.3994c-1.59961 -0.800781 -4 -1.60059 -5.59961 -1.60059zM81.5996 -102.4c-8 0 -15.1992 2.40039 -24 5.60059c-7.19922 3.2002 -11.1992 11.2002 -8 18.3994c3.2002 7.2002 12 11.2002 19.2002 8
c28 -12 48.7998 20 54.4004 32.8008l44.7998 100.8c7.2002 16.7998 8 36 0.799805 53.5996c-7.2002 17.6006 -20 31.2002 -37.5996 38.4004c-17.6006 7.2002 -37.6006 8 -55.2002 0.799805s-32 -20.7998 -39.2002 -37.5996c-7.2002 -16.8008 -8 -36 -0.799805 -53.6006
c7.2002 -17.5996 20 -31.2002 37.5996 -38.3994c7.2002 -3.2002 11.2002 -12 8 -19.2002c-3.19922 -7.2002 -12 -10.4004 -19.1992 -7.2002c-24.8008 10.4004 -44 29.5996 -53.6006 54.4004c-9.59961 24.7998 -9.59961 52 0.799805 76
c10.4004 24 31.2002 43.1992 56 52.7998c24.8008 9.59961 52 8.7998 76.8008 -1.60059c24.7998 -10.3994 44 -29.5996 53.5996 -54.3994s9.59961 -52 -0.799805 -76l-44.7998 -100.8c-10.4004 -24 -36 -52.8008 -68.8008 -52.8008z" />
    <glyph glyph-name="less" unicode="&#x3c;" horiz-adv-x="436" vert-adv-y="0" 
d="M323.2 114.4c-1.60059 0 -3.2002 0 -4.7998 0.799805c-10.4004 4.7998 -260 117.6 -282.4 128.8c-17.5996 8.7998 -28.7998 24.7998 -28.7998 42.4004c0 17.5996 10.3994 34.3994 28.7998 44c26.4004 14.3994 232 105.6 275.2 124.8v105.6l-292 -139.2
c-6.40039 -3.19922 -13.6006 0 -16.7998 6.40039c-3.2002 6.40039 0 13.5996 6.39941 16.7998l308.8 148c4 1.60059 9.60059 1.60059 12.8008 -0.799805c3.19922 -2.40039 5.59961 -7.2002 5.59961 -11.2002v-133.6c0 -4.7998 -2.40039 -9.60059 -7.2002 -11.2002
c-2.39941 -0.799805 -252.8 -112.8 -280.8 -128c-10.4004 -5.59961 -16 -13.5996 -16 -21.5996s5.59961 -15.2002 15.2002 -20c18.3994 -8.80078 204.8 -92.8008 264 -120v96l-103.2 42.3994c-6.40039 2.40039 -9.59961 10.4004 -7.2002 16.7998
c2.40039 6.40039 9.60059 8.80078 16 6.40039l112 -45.5996c4.7998 -1.60059 7.2002 -7.2002 7.2002 -12v-124c0 -4 -2.40039 -8 -5.59961 -10.4004c-1.60059 -0.799805 -4.80078 -1.59961 -7.2002 -1.59961z" />
    <glyph glyph-name="greater" unicode="&#x3e;" horiz-adv-x="434" vert-adv-y="0" 
d="M12 113.6c-2.40039 0 -5.59961 1.60059 -7.2002 2.40039c-3.2002 2.40039 -5.59961 6.40039 -5.59961 10.4004v133.6c0 4.7998 2.39941 9.59961 7.2002 11.2002c2.39941 0.799805 252.8 113.6 280.8 128.8c10.3994 5.59961 16 12 16 20s-5.60059 16 -15.2002 20.7998
c-18.4004 9.60059 -204.8 92.7998 -264 120v-95.2002l104 -43.1992c6.40039 -2.40039 8.7998 -10.4004 6.40039 -16.8008c-2.40039 -6.39941 -10.4004 -8.7998 -16.8008 -6.39941l-110.399 46.3994c-4.7998 1.60059 -8 6.40039 -8 11.2002v124
c0 4 2.39941 8 5.59961 10.4004c3.2002 2.39941 8 2.39941 12 0.799805c10.4004 -4.7998 260 -117.6 282.4 -128.8c17.5996 -8.7998 28.7998 -24.7998 28.7998 -42.4004c0 -17.5996 -10.4004 -33.5996 -28.7998 -43.2002c-26.4004 -14.3994 -232 -106.399 -275.2 -125.6
v-105.6l292 139.199c6.40039 3.2002 13.5996 0.800781 16.7998 -5.59961s0 -13.5996 -6.39941 -16.7998l-309.601 -148c-1.59961 -0.799805 -3.2002 -1.60059 -4.7998 -1.60059z" />
    <glyph glyph-name="question" unicode="?" horiz-adv-x="515" vert-adv-y="0" 
d="M366.4 457.6c4.7998 6.40039 13.5996 8 20 4c6.39941 -4 8 -13.5996 4 -20c-12.8008 -18.3994 -29.6006 -32 -44.8008 -45.5996c-8 -6.40039 -15.1992 -13.5996 -23.1992 -20.7998c-32 -31.2002 -37.6006 -58.4004 -39.2002 -111.2l-4.7998 -249.6
c0 -0.800781 -0.800781 -2.40039 -0.800781 -3.2002s-0.799805 -1.60059 -0.799805 -2.40039s-0.799805 -2.39941 -1.59961 -3.2002l-1.60059 -1.59961c-0.799805 -0.799805 -2.39941 -0.799805 -3.19922 -1.59961c0 0 -0.800781 -1.60059 -1.60059 -1.60059
c-1.59961 -0.799805 -3.2002 -0.799805 -4.7998 -0.799805h-0.799805h-112.8c-8 0 -14.4004 5.59961 -14.4004 13.5996l-2.40039 53.6006c0 8 6.40039 15.2002 14.4004 15.2002s14.4004 -6.40039 14.4004 -14.4004l1.59961 -39.2002h85.5996l4.80078 236
c1.59961 59.2002 9.59961 93.6006 48 130.4c8 8 16.7998 15.2002 24.7998 22.3994c14.3994 12.8008 28 24 39.2002 40zM166.4 144.8c-24.8008 10.4004 -36.8008 35.2002 -36.8008 76v50.4004c0 97.5996 16 149.6 111.2 205.6c8.7998 4.7998 19.2002 9.60059 32 15.2002
c58.4004 25.5996 138.4 60.7998 107.2 174.4c-37.5996 97.5996 -132.8 104.8 -161.6 104.8c-20 0 -88.8008 -4 -137.601 -54.4004c-34.3994 -36 -52 -89.5996 -52 -156.8l98.4004 -15.2002c3.2002 68.7998 11.2002 121.601 79.2002 121.601
c45.5996 0 67.1992 -32.8008 67.1992 -99.2002c0 -8 -6.39941 -14.4004 -14.3994 -14.4004s-14.4004 6.40039 -14.4004 14.4004c0 70.3994 -24.7998 70.3994 -38.3994 70.3994c-42.4004 0 -47.2002 -20.7998 -51.2002 -110.399c0 -4 -2.40039 -8 -5.60059 -10.4004
c-2.39941 -1.59961 -5.59961 -3.2002 -8.7998 -3.2002h-2.39941l-125.601 20c-6.39941 0.800781 -12.7998 8 -12.7998 14.4004c-3.2002 81.5996 17.5996 144.8 60 188.8c56.7998 59.2002 135.2 63.2002 158.4 63.2002c33.5996 0 144 -8.7998 188 -124v-0.799805h0.799805
c38.3994 -138.4 -63.2002 -182.4 -123.2 -208.8c-12 -4.80078 -21.5996 -10.4004 -28.7998 -14.4004c-87.2002 -51.2002 -96.7998 -96.7998 -96.7998 -180.8v-50.4004c0 -36 10.3994 -45.5996 16.7998 -48.7998h32.7998c8 0 13.5996 -6.40039 13.5996 -14.4004
s-5.59961 -14.3994 -13.5996 -14.3994h-36c-1.59961 0 -4 0.799805 -5.59961 1.59961z" />
    <glyph glyph-name="at" unicode="@" horiz-adv-x="780" vert-adv-y="0" 
d="M337.6 0c-68 0 -128.8 15.2002 -179.199 44.7998c-51.2002 30.4004 -90.4004 74.4004 -117.601 130.4s-40.7998 121.6 -40.7998 196c0 83.2002 16 158.399 45.5996 223.2c30.4004 65.5996 73.6006 116.8 128.801 152c55.1992 35.1992 120 53.5996 190.399 53.5996
c100 0 178.4 -32 233.601 -95.2002c55.1992 -62.3994 82.3994 -149.6 82.3994 -260.8c0 -78.4004 -14.3994 -140.8 -42.3994 -185.6c-29.6006 -47.2002 -71.2002 -71.2002 -124 -71.2002c-25.6006 0 -48 7.2002 -67.2002 20.7998c-6.40039 4 -8 13.5996 -3.2002 19.2002
c4.7998 5.59961 13.5996 6.39941 20 2.39941c14.4004 -10.3994 31.2002 -15.1992 50.4004 -15.1992c43.1992 0 76.7998 18.3994 100.8 57.5996c25.5996 40.7998 38.3994 98.4004 38.3994 172c0 104 -25.5996 186.4 -76 244c-49.5996 56.7998 -121.6 85.5996 -212.8 85.5996
c-65.5996 0 -124.8 -16.7998 -175.2 -49.5996c-50.3994 -32.7998 -91.1992 -80 -119.199 -140.8c-28 -61.6006 -42.4004 -132.8 -42.4004 -212c0 -70.4004 13.5996 -132.8 38.4004 -184.8c24.7998 -51.2002 60 -92 106.399 -119.2
c46.4004 -27.2002 102.4 -40.7998 165.601 -40.7998c60 0 115.199 12 164.8 36v56.7998c-56 -23.2002 -110.4 -34.4004 -164 -34.4004c-74.4004 0 -133.601 26.4004 -176 78.4004c-41.6006 51.2002 -62.4004 122.399 -62.4004 212.8c0 64 11.2002 122.4 32 173.6
c21.6006 52 52 93.6006 91.2002 122.4c40 29.5996 87.2002 44 138.4 44c69.5996 0 124 -23.2002 162.399 -69.5996c37.6006 -45.6006 57.6006 -112.801 57.6006 -201.601c0 -51.2002 -5.60059 -92.7998 -15.2002 -123.2c-11.2002 -35.1992 -28.7998 -53.5996 -52 -53.5996
c-16.7998 0 -30.4004 7.2002 -38.4004 21.5996c-7.2002 12 -10.3994 32 -10.3994 60v17.6006l9.59961 209.6c-39.2002 11.2002 -76.7998 16.7998 -110.4 16.7998c-49.5996 0 -88.7998 -19.1992 -118.399 -57.5996c-30.4004 -39.2002 -45.6006 -93.5996 -45.6006 -160
c0 -56 11.2002 -97.5996 32 -124c20 -25.5996 46.4004 -37.5996 81.6006 -37.5996h0.799805c36.7998 0 52 40 52 136v0.799805l2.40039 62.3994l5.59961 97.6006c-4.7998 0.799805 -10.4004 1.59961 -16 1.59961s-22.4004 0 -38.4004 -34.3994
c-12 -26.4004 -18.3994 -61.6006 -18.3994 -102.4c0 -19.2002 4 -34.4004 13.5996 -45.5996c4.7998 -5.60059 4 -13.6006 -1.59961 -18.4004c-5.60059 -4.7998 -14.4004 -4 -19.2002 1.59961c-13.5996 16 -20.7998 36.8008 -20.7998 62.4004
c0 44.7998 7.2002 83.2002 20.7998 112.8c15.2002 33.6006 36.7998 50.4004 64 50.4004c14.4004 0 26.4004 -2.40039 36 -6.40039c4.7998 -2.39941 8 -7.2002 8 -12.7998l-6.40039 -108l-1.59961 -61.5996c0 -52.8008 0 -163.2 -80 -163.2h-0.799805
c-44 0 -78.4004 16 -104 48.7998c-24 31.2002 -36.7998 78.4004 -36.7998 140c0 72.7998 16.7998 131.2 50.3994 175.2c34.4004 45.5996 82.4004 68.7998 140.8 68.7998c39.2002 0 82.4004 -7.2002 128.801 -20.7998c5.59961 -1.60059 9.59961 -8 9.59961 -13.6006
l-10.4004 -219.199l0.800781 -16.8008c0 -30.3994 4 -43.1992 6.39941 -47.1992c3.2002 -5.60059 7.2002 -7.2002 14.4004 -7.2002c12.7998 0 21.5996 21.5996 25.5996 34.3994c8.7998 28 13.6006 66.4004 13.6006 115.2c0 82.4004 -17.6006 144.8 -51.2002 184.8
c-33.6006 40 -78.4004 60 -140.8 60c-45.6006 0 -86.4004 -13.5996 -121.601 -39.1992c-35.2002 -25.6006 -64 -62.4004 -83.2002 -110.4c-20 -48 -29.5996 -103.2 -29.5996 -164c0 -84 19.2002 -149.6 56.7998 -196c37.6006 -46.4004 88 -68.7998 154.4 -68.7998
c55.2002 0 113.6 13.5996 172 40.7998c4 1.59961 9.59961 1.59961 13.5996 -0.799805c4 -2.40039 6.40039 -6.40039 6.40039 -11.2002v-85.5996c0 -4.80078 -3.2002 -8.80078 -7.2002 -11.2002c-55.2002 -28.7998 -119.2 -43.2002 -186.4 -43.2002z" />
    <glyph glyph-name="A" unicode="A" horiz-adv-x="632" vert-adv-y="0" 
d="M552.8 17.5996c0 0 0 -8.7998 -2.39941 -12c-2.40039 -3.19922 -7.2002 -5.59961 -11.2002 -5.59961h-145.601h-4c-1.59961 0 -4 2.40039 -5.59961 3.2002c-1.59961 1.59961 -2.40039 3.2002 -3.2002 4.7998c0 0.799805 -1.59961 3.2002 -1.59961 4l-20.7998 110.4l-8 44
h-63.2002c-8 0 -14.4004 6.39941 -14.4004 14.3994s6.40039 14.4004 14.4004 14.4004h73.5996c7.2002 0.799805 15.2002 -4.7998 16 -12l9.60059 -55.2002l18.3994 -99.2002h116l-65.5996 273.601l-112.8 468.8h-132l-112 -469.601l-65.6006 -272.8h116.8l40 220
c8 44 25.6006 71.2002 84 71.2002h1.60059h1.59961h44.7998l-44.7998 242.4l-31.2002 -169.601c-1.59961 -8 -8.7998 -12.7998 -16.7998 -11.2002c-8 1.60059 -13.5996 8 -12 16l45.6006 246.4c0.799805 6.40039 7.19922 11.2002 14.3994 11.2002
s12.7998 -4.7998 13.6006 -11.2002l62.3994 -335.2v-1.59961v-4.7998c0 -1.60059 -2.39941 -4 -3.2002 -5.60059c-0.799805 -1.59961 -3.19922 -3.2002 -4.7998 -4c-1.59961 -0.799805 -3.2002 -1.59961 -4.7998 -1.59961h-1.59961h-61.6006l-1.59961 0.799805
l-1.60059 -0.799805c-40 0 -49.5996 -11.2002 -56 -48l-42.3994 -231.2c0 -0.799805 -0.799805 -3.2002 -0.799805 -4c-0.800781 -1.59961 -2.40039 -4 -4 -4.7998c-1.60059 -1.60059 -4 -3.2002 -5.60059 -3.2002h-4h-146.399c-4 0 -8.80078 2.40039 -11.2002 5.59961
c-2.40039 3.2002 -4 8 -3.2002 12l69.5996 291.2l115.2 480c1.60059 6.40039 8 11.2002 14.4004 11.2002h154.399c6.40039 0 12 -4.7998 13.6006 -11.2002l116 -480z" />
    <glyph glyph-name="B" unicode="B" horiz-adv-x="571" vert-adv-y="0" 
d="M237.6 0h-223.199c-8 0 -14.4004 6.40039 -14.4004 14.4004v554.399c0 8 6.40039 14.4004 14.4004 14.4004s14.3994 -6.40039 14.3994 -14.4004v-540h208.8c36.8008 0 112.801 0 152 44c24 25.6006 52.8008 72 52.8008 149.601
c0 142.399 -73.6006 170.399 -100.801 180.8c-5.59961 1.59961 -9.59961 7.2002 -9.59961 12.7998s2.40039 11.2002 8 13.5996c30.4004 13.6006 81.5996 36.8008 81.5996 156c0 77.6006 -24.7998 116 -42.3994 137.601c-38.4004 48 -80.7998 48 -167.2 48h-183.2v-95.2002
h183.2c60 0 94.4004 -40.7998 94.4004 -112c0 -28 0 -104 -94.4004 -104h-74.4004c-4 0 -14.3994 -1.59961 -14.3994 -14.4004v-74.3994c0 -8 6.39941 -14.4004 14.3994 -14.4004h72.8008c43.1992 0 72 -2.39941 92 -38.3994c8 -15.2002 16.7998 -38.4004 16.7998 -71.2002
c0 -83.2002 -31.2002 -118.4 -103.2 -118.4h-107.2c-8 0 -14.3994 5.60059 -14.3994 13.6006s6.39941 14.3994 14.3994 14.3994h107.2c48.7998 0 74.4004 15.2002 74.4004 90.4004c0 26.3994 -7.2002 45.5996 -13.6006 57.5996c-12 20.7998 -24 24 -66.3994 24h-72.8008
c-24 0 -43.1992 18.4004 -43.1992 42.4004v74.3994c0 28 21.5996 43.2002 43.1992 43.2002h74.4004c60.7998 0 65.5996 37.6006 65.5996 75.2002c0 56 -21.5996 84 -65.5996 84h-197.6c-8 0 -14.4004 6.40039 -14.4004 14.4004v123.199c0 8 6.40039 14.4004 14.4004 14.4004
h197.6c89.5996 0 143.2 0 189.6 -58.4004c33.6006 -40 48.8008 -89.5996 48.8008 -156c0 -106.399 -37.6006 -148 -71.2002 -168c38.3994 -20.7998 92 -70.3994 92 -195.199c0 -86.4004 -33.6006 -140 -60.7998 -169.601c-47.2002 -52.7998 -132 -52.7998 -172.801 -52.7998
z" />
    <glyph glyph-name="C" unicode="C" horiz-adv-x="584" vert-adv-y="0" 
d="M282.4 -12h-0.800781c-38.3994 0 -73.5996 23.0723 -96 63.4473c-23.1992 42.0254 -25.5996 163.977 -25.5996 251.32v4.12012v79.9287c0 71.6875 4 174.688 22.4004 226.6c15.1992 42.8477 36.7998 60.9766 74.3994 60.9766h0.799805
c61.6006 0 66.4004 -89.8164 68.8008 -172.217l128 10.7119c-14.4004 177.984 -82.4004 269.448 -200.801 269.448c-52.7998 0 -96.7998 -17.3037 -130.399 -51.9121c-75.2002 -76.6318 -90.4004 -224.951 -90.4004 -335.367c0 -157.384 28 -266.977 83.2002 -325.48
c5.59961 -5.76855 4.7998 -15.6562 -0.799805 -21.4238c-5.60059 -5.76855 -14.4004 -4.94434 -20 0.824219c-61.6006 65.0957 -91.2002 178.808 -91.2002 346.08c0 116.184 16.7998 272.743 99.2002 356.791c39.2002 40.376 89.5996 60.1523 149.6 60.1523h1.60059
c96 0 213.6 -54.3838 230.399 -311.473c0 -8.24023 -5.59961 -14.8311 -13.5996 -15.6553l-157.601 -14.0078c-4 0 -7.19922 1.64844 -10.3994 4.11914c-3.2002 2.47266 -5.60059 6.59277 -5.60059 10.7129v5.76758c-1.59961 64.2725 -4.7998 152.439 -40.7998 152.439
c-22.3994 0 -35.2002 -5.76758 -48 -40.376c-18.3994 -53.5596 -20 -177.16 -20 -217.535v-79.1045v-4.12012c0 -162.327 11.2002 -218.36 21.6006 -236.487c17.5996 -31.3125 43.1992 -48.6162 72 -48.6162h0.799805c130.399 0.823242 160 177.16 166.399 251.319
l-124.8 9.06445v-12.3604c-0.799805 -45.3203 -1.59961 -107.943 -42.3994 -136.784c-6.40039 -4.94336 -15.2002 -2.4707 -20 4.12012c-4.80078 6.59277 -3.2002 15.6562 3.19922 20.6006c28.8008 19.7764 29.6006 74.1602 30.4004 112.889
c0 10.7109 0 20.5996 0.799805 28.8398s7.2002 13.1836 15.2002 13.1836l154.4 -11.5361c8 0 12.7998 -7.41602 12.7998 -15.6562c-4 -68.3916 -31.2002 -293.344 -196.8 -293.344z" />
    <glyph glyph-name="D" unicode="D" horiz-adv-x="576" vert-adv-y="0" 
d="M362.4 748.8c74.3994 -58.3994 113.6 -176 113.6 -339.2c0 -168 -36 -284.8 -110.4 -356c-27.1992 -24.7998 -76.7998 -53.5996 -157.6 -53.5996h-193.6c-8 0 -14.4004 6.40039 -14.4004 14.4004s6.40039 14.3994 14.4004 14.3994h193.6
c71.2002 0 115.2 24.7998 138.4 45.6006c68 65.5996 101.6 175.199 101.6 335.199c0 107.2 -18.4004 249.601 -103.2 316c-53.5996 42.4004 -111.2 45.6006 -192 45.6006h-124v-553.601c0 -49.5996 18.4004 -53.5996 47.2002 -53.5996h83.2002h0.799805h43.2002
c24 0 56.7998 4 69.5996 40.7998c14.4004 42.4004 17.6006 143.2 17.6006 190.4c0 242.399 -40 241.6 -87.2002 241.6h-29.6006v-393.6c0 -8 -5.59961 -14.4004 -13.5996 -14.4004s-14.4004 6.40039 -14.4004 14.4004v408c0 8 6.40039 15.2002 14.4004 15.2002h43.2002
c80.7998 0 116 -39.2002 116 -271.2c0 -5.60059 -0.799805 -141.601 -19.2002 -199.2c-9.59961 -28 -33.5996 -60.7998 -96.7998 -60.7998h-43.2002h-84c-35.2002 0 -76 9.59961 -76 82.3994v568c0 8 6.40039 14.4004 14.4004 14.4004h138.399
c84 0 148.8 -3.2002 209.601 -51.2002z" />
    <glyph glyph-name="E" unicode="E" vert-adv-y="0" 
d="M390.4 0h-376c-8 0 -14.4004 6.40039 -14.4004 14.4004v254.399v0.799805c0 47.2002 38.4004 85.6006 86.4004 87.2002h1.59961h235.2v100h-160c-8 0 -14.4004 6.40039 -14.4004 14.4004v179.2c0 8 6.40039 14.3994 14.4004 14.3994h212.8v106.4h-347.2v-368
c0 -8 -6.39941 -13.6006 -14.3994 -13.6006s-14.4004 5.60059 -14.4004 13.6006v382.399c0 8 6.40039 14.4004 14.4004 14.4004h376c8 0 14.3994 -6.40039 14.3994 -14.4004v-135.199c0 -8 -6.39941 -14.4004 -14.3994 -14.4004h-212.801v-150.4h159.2
c8 0 14.4004 -6.39941 14.4004 -14.3994v-128.8c0 -8 -6.40039 -13.6006 -14.4004 -13.6006h-247.2c-33.5996 0 -60.7998 -27.2002 -60.7998 -60v-0.799805v-239.2h347.2v106.4h-212.8c-8 0 -14.4004 6.39941 -14.4004 14.3994v99.2002c0 8 6.40039 14.4004 14.4004 14.4004
s14.3994 -6.40039 14.3994 -14.4004v-84.7998h212.801c8 0 14.3994 -6.40039 14.3994 -14.4004v-135.199c0 -8 -6.39941 -14.4004 -14.3994 -14.4004z" />
    <glyph glyph-name="F" unicode="F" horiz-adv-x="483" vert-adv-y="0" 
d="M164 0h-149.6c-8 0 -14.4004 6.40039 -14.4004 14.4004v394.399c0 8 6.40039 14.4004 14.4004 14.4004s14.3994 -6.40039 14.3994 -14.4004v-380h120.8v313.601c0 8 6.40039 14.3994 14.4004 14.3994h161.6v100h-237.6c-48.7998 0 -88 39.2002 -88 88v240.8
c0 8 6.40039 14.4004 14.4004 14.4004h354.399c8 0 14.4004 -6.40039 14.4004 -14.4004v-135.199c0 -8 -6.40039 -14.4004 -14.4004 -14.4004h-190.399v-71.2002c0 -8 -6.40039 -14.3994 -14.4004 -14.3994s-14.4004 6.39941 -14.4004 14.3994v85.6006
c0 8 6.40039 14.3994 14.4004 14.3994h190.4v106.4h-325.601v-226.4c0 -32.7998 26.4004 -59.2002 59.2002 -59.2002h251.2c8 0 14.3994 -6.39941 14.3994 -14.3994v-128.8c0 -8 -6.39941 -13.6006 -14.3994 -13.6006h-160.8v-314.399
c0 -8 -6.40039 -14.4004 -14.4004 -14.4004z" />
    <glyph glyph-name="G" unicode="G" horiz-adv-x="580" vert-adv-y="0" 
d="M289.6 -12c-6.39941 0 -14.3994 0.824219 -20.7998 1.64746c-37.5996 5.76855 -68 27.1924 -87.2002 62.625c-23.1992 42.0234 -25.5996 163.151 -25.5996 250.495v4.12012v79.9287c0 71.6875 3.2002 174.688 21.5996 226.6
c15.2002 42.8477 37.6006 60.9766 75.2002 60.9766h0.799805c61.6006 0 66.4004 -89.8164 68.8008 -172.217l128 10.7119c-14.4004 177.984 -82.4004 269.448 -200.801 269.448c-52.7998 0 -96.7998 -17.3037 -130.399 -51.9121
c-75.2002 -76.6318 -90.4004 -224.951 -90.4004 -335.367c0 -157.384 28 -266.977 83.2002 -325.48c5.59961 -5.76855 4.7998 -14.832 -0.799805 -20.5996c-5.60059 -5.76855 -14.4004 -5.76855 -20 0c-61.6006 65.0957 -91.2002 178.808 -91.2002 346.08
c0 116.184 16.7998 272.743 99.2002 356.791c39.2002 40.376 89.5996 60.1523 150.399 60.1523c96 0 214.4 -54.3838 231.2 -311.473c0 -8.24023 -5.59961 -14.8311 -13.5996 -15.6553l-157.601 -14.0078c-4 0 -7.19922 1.64844 -10.3994 4.11914
c-3.2002 2.47266 -5.60059 6.59277 -5.60059 10.7129v5.76758c-1.59961 64.2725 -4.7998 153.264 -40.7998 153.264c-22.3994 0 -36 -6.5918 -48 -41.2002c-18.3994 -53.5596 -20 -177.16 -20 -217.535v-79.1045v-4.12012c0 -162.327 11.2002 -218.36 21.6006 -236.487
c15.1992 -27.1924 38.3994 -43.6729 67.1992 -47.793c51.2002 -7.41504 108.801 23.0723 140.801 55.209c35.1992 35.4316 37.5996 47.791 37.5996 49.4395v215.064l-156 15.6562v-46.9688l31.2002 -4.12012c7.2002 -0.824219 12 -7.41504 12 -14.8311v-182.929
c0 -8.24023 -6.40039 -14.832 -14.4004 -14.832s-14.3994 6.5918 -14.3994 14.832v170.568l-30.4004 4.12012c-7.2002 0.823242 -12.7998 7.41602 -12.7998 14.8311v75.8086c0 4.12012 1.59961 9.06445 4.7998 11.5361s7.2002 3.2959 11.2002 3.2959l184 -18.9521
c7.2002 -0.823242 13.5996 -6.5918 13.5996 -14.0078v-229.072c0 -20.5996 -24 -47.792 -46.3994 -70.0391c-34.4004 -34.6094 -89.6006 -65.0967 -144.801 -65.0967z" />
    <glyph glyph-name="H" unicode="H" horiz-adv-x="549" vert-adv-y="0" 
d="M163.2 -0.799805h-0.799805l-148 0.799805c-8 0 -14.4004 6.40039 -14.4004 14.4004v770.399c0 8 6.40039 14.4004 14.4004 14.4004h148.8c8 0 13.5996 -6.40039 13.5996 -14.4004v-360.8c0 -52.7998 7.2002 -67.2002 59.2002 -67.2002h50.4004
c8 0 14.3994 -6.39941 14.3994 -14.3994v-313.601h119.2v741.601h-119.2v-334.4c0 -8 -6.39941 -13.5996 -14.3994 -13.5996s-14.4004 5.59961 -14.4004 13.5996v348.8c0 8 6.40039 14.4004 14.4004 14.4004h148c8 0 15.1992 -6.40039 15.1992 -14.4004v-770.399
c0 -8 -7.19922 -14.4004 -15.1992 -14.4004h-148c-8 0 -14.4004 6.40039 -14.4004 14.4004v313.6h-36c-73.5996 0 -87.2002 33.5996 -87.2002 96v346.4h-120v-741.601l120 -0.799805v239.2c0 8 6.40039 14.3994 14.4004 14.3994s13.5996 -6.39941 13.5996 -14.3994v-253.601
c0 -4 -1.59961 -8 -4 -10.3994c-2.39941 -2.40039 -5.59961 -4 -9.59961 -4z" />
    <glyph glyph-name="I" unicode="I" horiz-adv-x="272" vert-adv-y="0" 
d="M158.4 0h-144c-8 0 -14.4004 6.40039 -14.4004 14.4004v534.399c0 72.7998 40.7998 82.4004 75.2002 82.4004h17.5996c8 0 14.4004 -6.40039 14.4004 -14.4004s-6.40039 -14.3994 -14.4004 -14.3994h-17.5996c-28 0 -46.4004 -4 -46.4004 -53.6006v-520h116v742.4h-116
v-72.7998c0 -8 -6.39941 -14.4004 -14.3994 -14.4004s-14.4004 6.40039 -14.4004 14.4004v87.1992c0 8 6.40039 14.4004 14.4004 14.4004h144c8 0 14.3994 -6.40039 14.3994 -14.4004v-771.199c0 -8 -6.39941 -14.4004 -14.3994 -14.4004z" />
    <glyph glyph-name="J" unicode="J" horiz-adv-x="464" vert-adv-y="0" 
d="M174.4 0c-82.4004 0 -137.601 13.5996 -164 21.5996c-5.60059 1.60059 -10.4004 7.2002 -10.4004 13.6006v136c0 4 1.59961 8 4.7998 10.3994c3.2002 2.40039 7.2002 3.2002 11.2002 3.2002c2.40039 0 6.40039 -0.799805 12.7998 -2.39941
c19.2002 -4.80078 60.7998 -13.6006 108.8 -8.80078c39.2002 4 48.8008 13.6006 48.8008 101.601v276.8c0 72 38.3994 81.5996 76 81.5996h19.1992c8 0 13.6006 -6.39941 13.6006 -14.3994s-5.60059 -14.4004 -13.6006 -14.4004h-19.1992
c-28.8008 0 -47.2002 -3.2002 -47.2002 -52.7998v-276.8c0 -83.2002 -8 -123.2 -75.2002 -130.4c-48 -4.7998 -88 3.2002 -111.2 8v-106.399c27.2002 -7.2002 76.7998 -17.6006 145.601 -17.6006c160 0 160 124.8 160 256.8v485.601h-119.2v-71.2002
c0 -8 -6.40039 -15.2002 -14.4004 -15.2002s-14.3994 7.2002 -14.3994 15.2002v85.5996c0 8 6.39941 14.4004 14.3994 14.4004h148.8c8 0 14.4004 -6.40039 14.4004 -14.4004v-500c0 -127.199 -0.799805 -285.6 -189.6 -285.6z" />
    <glyph glyph-name="K" unicode="K" horiz-adv-x="652" vert-adv-y="0" 
d="M539.2 0h-160.8c-4.80078 0 -9.60059 2.40039 -12 6.40039c-6.40039 10.3994 -162.4 252 -189.601 296.8c-24.7998 47.2002 -28 93.5996 -28 136v332h-120v-742.4h120v154.4c0 8 6.40039 13.5996 14.4004 13.5996s14.3994 -5.59961 14.3994 -13.5996v-168.8
c0 -8 -6.39941 -14.4004 -14.3994 -14.4004h-148.8c-8 0 -14.4004 6.40039 -14.4004 14.4004v771.199c0 8 6.40039 14.4004 14.4004 14.4004h148.8c8 0 14.3994 -6.40039 14.3994 -14.4004v-346.399c0 -44.7998 4 -82.4004 24 -121.601c24 -39.1992 158.4 -248.8 184 -288.8
h128c-52.7998 86.4004 -242.399 393.601 -268.8 446.4c-16.7998 33.5996 -11.2002 72 -5.59961 88.7998c10.3994 31.2002 122.399 209.6 135.2 229.6c2.39941 4 7.19922 6.40039 12 6.40039h152.8c4.7998 0 9.59961 -3.2002 12 -7.2002
c2.39941 -4 2.39941 -10.3994 0 -14.3994l-175.2 -309.601c-4 -7.2002 -12.7998 -9.59961 -20 -5.59961s-9.59961 12.7998 -5.59961 20l164 288h-120c-49.6006 -78.4004 -121.601 -196 -128 -216c-4.80078 -14.4004 -8 -44 4 -67.2002
c29.5996 -59.2002 278.399 -462.4 280.8 -466.4c2.39941 -4 2.39941 -9.59961 0 -14.3994c-2.40039 -4.7998 -7.2002 -7.2002 -12 -7.2002z" />
    <glyph glyph-name="L" unicode="L" horiz-adv-x="456" vert-adv-y="0" 
d="M341.6 0h-327.199c-8 0 -14.4004 6.40039 -14.4004 14.4004s6.40039 14.3994 14.4004 14.3994h312.8v113.601h-251.2c-35.2002 0 -76 9.59961 -76 82.3994v560.8c0 8 6.40039 14.4004 14.4004 14.4004h146.399c8 0 14.4004 -6.40039 14.4004 -14.4004l0.799805 -536
c0 -8 -6.40039 -14.3994 -14.4004 -14.3994s-14.3994 6.39941 -14.3994 14.3994l-0.799805 521.601h-117.601v-546.4c0 -49.5996 18.4004 -53.5996 47.2002 -53.5996h265.6c8 0 14.4004 -6.40039 14.4004 -14.4004v-142.399c0 -8 -6.40039 -14.4004 -14.4004 -14.4004z" />
    <glyph glyph-name="M" unicode="M" horiz-adv-x="699" vert-adv-y="0" 
d="M584.8 800c8 0 14.4004 -6.40039 14.4004 -14.4004v-771.199c0 -8 -6.40039 -14.4004 -14.4004 -14.4004h-148.8c-8 0 -14.4004 6.40039 -14.4004 14.4004v272.8v16.7998c0 56.7998 0.800781 83.2002 -28 116.8l-252 310.4
c-3.19922 3.2002 -5.59961 7.2002 -8.7998 11.2002c-14.3994 17.5996 -23.2002 28.7998 -60.7998 28.7998h-43.2002v-742.4h113.601v482.4v0.799805c0 1.59961 0 4 0.799805 5.59961c0.799805 1.60059 2.39941 3.2002 4 4c1.59961 1.60059 4 3.2002 5.59961 3.2002
c0.799805 0 3.2002 0.799805 4 0.799805c1.60059 0 4 -0.799805 5.60059 -1.59961c1.59961 -0.799805 4 -1.59961 4.7998 -3.2002v-0.799805l128.8 -158.4c4.7998 -6.39941 4 -15.1992 -2.40039 -20c-6.39941 -4.7998 -15.1992 -4.7998 -20 1.60059l-103.199 128v-456.8
c0 -8 -6.40039 -14.4004 -14.4004 -14.4004h-141.6c-8 0 -14.4004 6.40039 -14.4004 14.4004v771.199c0 8 6.40039 14.4004 14.4004 14.4004h57.5996c51.2002 0 65.5996 -20 82.4004 -40c2.39941 -3.2002 5.59961 -6.40039 8.7998 -9.59961l252.8 -311.2
c34.4004 -41.6006 34.4004 -76.7998 34.4004 -135.2l-0.800781 -16.7998l0.800781 -258.4h120v742.4h-41.6006c-44 0 -44 0.799805 -57.5996 -21.6006c-11.2002 -17.5996 -83.2002 -138.399 -84 -139.199c-4 -6.40039 -12.7998 -8.80078 -19.2002 -4.80078
s-8.7998 12.8008 -4.7998 19.2002c3.2002 4.7998 72.7998 121.601 84 140c22.3994 35.2002 35.2002 35.2002 82.3994 35.2002h55.2002z" />
    <glyph glyph-name="N" unicode="N" horiz-adv-x="652" vert-adv-y="0" 
d="M128 771.2h-99.2002v-742.4h120v477.601v2.39941c0 1.60059 0.799805 4 1.60059 5.60059c0.799805 1.59961 2.39941 3.19922 4 4c1.59961 0.799805 3.19922 2.39941 4.7998 2.39941h5.59961c1.60059 0 4 -0.799805 5.60059 -1.59961
c1.59961 -0.799805 3.19922 -2.40039 4 -4l1.59961 -1.60059l221.6 -424l16 -24.7998c15.2002 -23.2002 30.4004 -36 75.2002 -36h50.4004c8 0 13.5996 -6.39941 13.5996 -14.3994s-5.59961 -14.4004 -13.5996 -14.4004h-50.4004c-48 0 -76.7998 14.4004 -100 49.5996
l-16 24.8008v0.799805l-195.2 373.6v-434.399c0 -8 -6.39941 -14.4004 -14.3994 -14.4004h-148.8c-4 0 -8 1.59961 -10.4004 4s-4 6.40039 -4 10.4004v771.199c0 8 6.40039 14.4004 14.4004 14.4004h113.6c52 0 75.2002 -22.4004 96 -59.2002l300.8 -544.8v575.2h-124.8
v-168c0 -8 -6.40039 -14.4004 -14.4004 -14.4004s-14.3994 6.40039 -14.3994 14.4004v182.399c0 8 6.39941 14.4004 14.3994 14.4004h153.601c8 0 13.5996 -6.40039 13.5996 -14.4004v-644.8v-2.39941c0 -1.60059 -0.799805 -4 -1.59961 -5.60059
c-0.799805 -1.59961 -2.40039 -3.2002 -4 -4c-1.60059 -0.799805 -3.2002 -2.39941 -4.7998 -2.39941h-4.80078c-1.59961 0 -4 0.799805 -5.59961 1.59961s-4 2.40039 -4.7998 4l-0.799805 1.59961l-327.2 593.601c-17.6006 31.2002 -32 44 -71.2002 44z" />
    <glyph glyph-name="O" unicode="O" horiz-adv-x="582" vert-adv-y="0" 
d="M292 -12h-1.59961c-98.4004 0.824219 -116 75.8076 -123.2 107.943l-0.799805 5.76953c-11.2002 46.9668 -9.60059 164.8 -8.80078 243.079v44.4951c0 106.297 2.40039 186.226 16 224.953c13.6006 38.7275 35.2002 59.3271 65.6006 59.3271
c36.7998 0 56.7998 -17.3037 70.3994 -60.1514c15.2002 -48.6162 14.4004 -156.56 14.4004 -208.473c0 -24.7197 0.799805 -150.791 -8 -202.703c-4.7998 -28.8398 -13.5996 -60.1523 -40.7998 -74.1602c-7.2002 -3.2959 -16 -0.824219 -19.2002 6.59277
c-3.2002 7.41504 -0.799805 16.4795 6.40039 19.7744c12.7998 6.59277 20 21.4248 24.7998 52.7363c8 51.0889 8.7998 182.929 8.7998 197.76c0 46.1445 0 154.913 -13.5996 199.409c-10.4004 33.7832 -22.4004 39.5508 -43.2002 39.5508
c-12 0 -26.4004 -4.11914 -38.4004 -38.7275c-12.7998 -37.0791 -14.3994 -126.072 -14.3994 -215.889c0 -12.3594 -0.800781 -27.1904 -0.800781 -44.4951c-0.799805 -76.6318 -1.59961 -193.64 8.80078 -236.488l1.59961 -5.76758
c8 -33.7842 19.2002 -84.8721 96 -84.8721h1.59961c117.601 0.823242 159.2 201.88 159.2 374.096c0 266.152 -66.3994 390.576 -210.399 390.576c-145.601 0 -213.601 -119.479 -213.601 -376.568c0 -140.903 19.2002 -243.08 58.4004 -312.295
c2.39941 -3.29688 7.2002 -12.3604 16 -23.0723c4.7998 -5.76758 4 -15.6562 -1.60059 -20.6006c-5.59961 -4.94336 -15.1992 -4.94336 -20 1.64746c-10.3994 12.3604 -16 22.249 -18.3994 26.3691c-43.2002 74.9834 -63.2002 178.808 -63.2002 327.951
c0 273.568 79.2002 406.232 242.4 406.232c214.399 0 240 -239.784 240 -420.24c0 -195.287 -50.4004 -403.76 -190.4 -403.76z" />
    <glyph glyph-name="P" unicode="P" horiz-adv-x="540" vert-adv-y="0" 
d="M160 0h-145.6c-8 0 -14.4004 6.40039 -14.4004 14.4004v362.399c0 50.4004 21.5996 72 72 72h123.2c37.5996 0 62.3994 6.40039 62.3994 104c0 68.7998 -17.5996 96.7998 -62.3994 96.7998h-21.6006v-121.6c0 -8 -5.59961 -14.4004 -13.5996 -14.4004
s-14.4004 6.40039 -14.4004 14.4004v136c0 8 6.40039 14.4004 14.4004 14.4004h35.2002c91.2002 0 91.2002 -94.4004 91.2002 -125.601c0 -97.5996 -24.8008 -132.8 -91.2002 -132.8h-123.2c-34.4004 0 -43.2002 -8.7998 -43.2002 -43.2002v-348h116.8v270.4
c0 8 6.40039 14.3994 14.4004 14.3994h43.2002c36 0 95.2002 0 139.2 33.6006c42.3994 34.3994 69.5996 108.8 69.5996 193.6c0 66.4004 -14.4004 121.601 -42.4004 164c-42.3994 66.4004 -106.399 66.4004 -174.399 66.4004h-166.4v-261.601
c0 -8 -6.39941 -14.3994 -14.3994 -14.3994s-14.4004 6.39941 -14.4004 14.3994v276c0 8 6.40039 14.4004 14.4004 14.4004h180.8c68.7998 0 148 0 198.399 -79.2002c31.2002 -47.2002 47.2002 -108 47.2002 -180c0 -94.3994 -30.3994 -175.2 -80 -216
c-52 -40 -120.8 -40.7998 -157.6 -40.7998h-29.6006v-269.6c0 -8 -5.59961 -14.4004 -13.5996 -14.4004z" />
    <glyph glyph-name="Q" unicode="Q" horiz-adv-x="580" vert-adv-y="0" 
d="M466.4 -12h-124.801c-8 0 -14.3994 6.59277 -14.3994 14.832c0 8.24023 6.39941 14.832 14.3994 14.832h94.4004l-44.7998 56.8555c-4 5.76758 -3.2002 14.0078 0.799805 18.9531c0 0.823242 0.799805 1.64746 0.799805 2.4707
c39.2002 68.3926 58.4004 170.569 58.4004 311.473c0 256.264 -67.2002 374.92 -212.8 374.92c-143.2 0 -209.601 -123.6 -209.601 -388.929c0 -171.391 41.6006 -371.623 159.2 -372.447h0.799805c76.7998 0 88 50.2637 96 84.0479l1.60059 5.76855
c10.3994 42.8477 9.59961 159.031 8.7998 235.664c0 17.3037 -0.799805 32.1357 -0.799805 44.4961c0 88.9912 -1.60059 177.983 -14.4004 215.063c-12 34.6074 -26.4004 37.9033 -38.4004 37.9033c-20.7998 0 -32 -4.94336 -42.3994 -38.7275
c-13.6006 -44.4961 -13.6006 -152.439 -13.6006 -198.583c0 -14.833 0.800781 -145.849 8.80078 -196.937c4.7998 -31.3125 11.1992 -46.1436 24 -52.7363c7.19922 -3.2959 10.3994 -12.3604 7.19922 -19.7764c-3.19922 -7.41602 -12 -9.8877 -19.1992 -6.59082
c-27.2002 14.0068 -35.2002 45.3193 -40 74.1602c-8.80078 51.9111 -9.60059 177.159 -9.60059 201.88c0 51.0869 0 158.207 15.2002 206.823c13.5996 42.8477 33.5996 60.9766 69.5996 60.9766c30.4004 0 52 -20.6006 65.6006 -59.3291
c13.5996 -38.7275 16 -117.831 16 -224.127v-44.4961c0.799805 -78.2803 2.39941 -196.113 -8.7998 -242.257l-0.800781 -5.76758c-7.19922 -32.1357 -24.7998 -107.12 -123.199 -107.943h-1.60059c-139.2 0 -188.8 208.471 -188.8 402.935
c0 179.633 24.7998 418.593 238.4 418.593c163.199 0 242.399 -131.84 242.399 -404.584c0 -144.2 -20 -246.376 -60 -320.536c0 -0.823242 -0.799805 -0.823242 -0.799805 -1.64746l57.5996 -73.3359c3.2002 -4.12012 4 -10.7129 1.60059 -15.6562
c-2.40039 -4.94434 -7.2002 -8.24023 -12.7998 -8.24023z" />
    <glyph glyph-name="R" unicode="R" horiz-adv-x="558" vert-adv-y="0" 
d="M444 0h-156.8c-6.40039 0 -12 4 -13.6006 10.4004l-73.5996 273.6h-26.4004v-269.6c0 -8 -5.59961 -14.4004 -13.5996 -14.4004h-145.6c-8 0 -14.4004 6.40039 -14.4004 14.4004v362.399c0 50.4004 21.5996 72 72 72h123.2c37.5996 0 62.3994 6.40039 62.3994 104
c0 68.7998 -17.5996 96.7998 -62.3994 96.7998h-21.6006v-121.6c0 -8 -5.59961 -14.4004 -13.5996 -14.4004s-14.4004 6.40039 -14.4004 14.4004v136c0 8 6.40039 14.4004 14.4004 14.4004h35.2002c91.2002 0 91.2002 -94.4004 91.2002 -125.601
c0 -97.5996 -24.8008 -132.8 -91.2002 -132.8h-123.2c-34.4004 0 -43.2002 -8.7998 -43.2002 -43.2002v-348h116.8v270.4c0 8 6.40039 14.3994 14.4004 14.3994h51.2002c4 0 7.2002 -2.39941 9.59961 -4.7998c1.60059 -1.59961 4 -4.7998 4 -7.2002l73.6006 -272.8h125.6
l-96.7998 294.4c-0.799805 1.59961 -0.799805 4 -0.799805 6.39941c0 4 3.19922 8 6.39941 10.4004c3.2002 1.59961 6.40039 4.7998 9.60059 7.2002c42.3994 34.3994 69.5996 108.8 69.5996 193.6c0 66.4004 -14.4004 121.601 -42.4004 164
c-42.3994 66.4004 -106.399 66.4004 -174.399 66.4004h-166.4v-262.4c0 -8 -6.39941 -14.3994 -14.3994 -14.3994s-14.4004 6.39941 -14.4004 14.3994v276.8c0 8 6.40039 14.4004 14.4004 14.4004h180.8c68.7998 0 148 -0.799805 198.399 -80
c31.2002 -47.2002 47.2002 -107.2 47.2002 -179.2c0 -94.3994 -30.3994 -175.2 -80 -216c-0.799805 -0.799805 -2.39941 -1.59961 -3.2002 -2.39941l100 -304c1.60059 -4 0 -8.80078 -2.39941 -12.8008c-2.40039 -4 -6.40039 -5.59961 -11.2002 -5.59961z" />
    <glyph glyph-name="S" unicode="S" horiz-adv-x="556" vert-adv-y="0" 
d="M225.6 0c-168.8 0 -205.6 133.6 -224.8 204.8l-0.799805 3.2002c-1.59961 7.2002 2.40039 14.4004 8.7998 16.7998l120 48c4 1.60059 8 0.799805 12 -0.799805s6.40039 -5.59961 7.2002 -9.59961c9.59961 -44 20.7998 -84 58.4004 -95.2002
c19.1992 -5.60059 37.5996 -3.2002 52 8c16 12 24 31.2002 24 52.7998c0 41.5996 -24 59.2002 -50.4004 72c-7.2002 3.2002 -9.59961 12 -6.40039 19.2002c3.2002 7.2002 12 9.59961 19.2002 6.39941c31.2002 -15.1992 66.4004 -40 66.4004 -97.5996
c0 -31.2002 -13.6006 -59.2002 -36 -76c-21.6006 -16.7998 -48.7998 -20.7998 -76.7998 -12.7998c-49.6006 14.3994 -66.4004 63.2002 -75.2002 100l-91.2002 -36.7998c19.2002 -68.8008 53.5996 -173.601 193.6 -173.601c40.8008 0 79.2002 8 106.4 20.7998
c59.2002 28.8008 97.5996 98.4004 95.2002 173.601c-2.40039 67.2002 -37.6006 120.8 -92.7998 143.2c-29.6006 12 -62.4004 20 -95.2002 27.1992c-94.4004 20.8008 -192.8 42.4004 -214.4 162.4c-14.3994 79.2002 15.2002 134.4 41.6006 166.4
c40.7998 48.7998 104 77.5996 169.6 77.5996c104 0 178.4 -64 210.4 -180c1.59961 -6.40039 -1.60059 -13.5996 -8 -16.7998l-112 -52.7998c-4 -1.60059 -8 -1.60059 -12 0c-4 1.59961 -7.2002 5.59961 -8 9.59961c-6.40039 28 -17.6006 61.5996 -45.6006 72.7998
c-25.5996 10.4004 -52 -1.59961 -64.7998 -27.2002c-14.4004 -29.5996 -5.59961 -62.3994 24 -83.1992c6.40039 -4.80078 8.7998 -13.6006 4 -20c-4.7998 -6.40039 -14.4004 -8 -20.7998 -3.2002c-41.6006 28.7998 -54.4004 76.7998 -33.6006 119.2
c19.2002 40 63.2002 56.7998 102.4 40.7998c33.5996 -13.6006 48.7998 -44.7998 57.5996 -75.2002l85.6006 40c-21.6006 69.5996 -69.6006 147.2 -179.2 147.2c-56.7998 0 -112 -24.7998 -147.2 -67.2002c-22.3994 -27.2002 -48 -74.4004 -35.2002 -142.4
c18.4004 -100.8 103.2 -120 192 -140c33.6006 -7.19922 68.8008 -15.1992 100 -28c66.4004 -26.3994 108 -89.5996 110.4 -169.6c3.2002 -86.4004 -41.5996 -167.2 -111.2 -200.8c-41.5996 -20 -92.7998 -23.2002 -119.2 -23.2002z" />
    <glyph glyph-name="T" unicode="T" horiz-adv-x="509" vert-adv-y="0" 
d="M276 0h-145.6c-8 0 -14.4004 6.40039 -14.4004 14.4004v533.6c0 8 6.40039 14.4004 14.4004 14.4004s14.3994 -6.40039 14.3994 -14.4004v-519.2h116.8v546.4c0 49.5996 -18.3994 53.5996 -46.3994 53.5996h-200.8c-8 0 -14.4004 6.40039 -14.4004 14.4004v142.399
c0 8 6.40039 14.4004 14.4004 14.4004h380.8c8 0 14.3994 -6.40039 14.3994 -14.4004v-145.6c0 -8 -6.39941 -14.4004 -14.3994 -14.4004h-37.6006c-8 0 -14.3994 6.40039 -14.3994 14.4004s6.39941 14.4004 14.3994 14.4004h23.2002v116.8h-352v-113.601h186.4
c35.2002 0 75.2002 -9.59961 75.2002 -82.3994v-560.8c0 -8 -6.40039 -14.4004 -14.4004 -14.4004z" />
    <glyph glyph-name="U" unicode="U" horiz-adv-x="532" vert-adv-y="0" 
d="M416.8 800c8 0 15.2002 -6.40039 15.2002 -14.4004v-501.6c0 -155.2 -12.7998 -284 -161.6 -284h-0.800781c-60.7998 0 -125.6 51.2002 -125.6 164v608h-115.2v-488c0 -134.4 25.6006 -204.8 84.7998 -236c7.2002 -3.2002 8.80078 -12 4.80078 -18.4004
c-4 -6.39941 -12 -10.3994 -19.2002 -6.39941c-69.6006 36.7998 -99.2002 114.399 -99.2002 260.8v501.6c0 8 6.40039 14.4004 14.4004 14.4004h144c8 0 14.3994 -6.40039 14.3994 -14.4004v-621.6c0 -94.4004 48.7998 -136 97.6006 -136c112.8 0 132 82.4004 132 256v488
h-114.4v-483.2c0 -61.5996 -2.40039 -110.399 -28 -136c-5.59961 -5.59961 -15.2002 -6.39941 -20.7998 -0.799805c-5.60059 5.59961 -5.60059 14.4004 0 20c18.3994 18.4004 20 65.5996 20 116.8v496.8c0 8 6.39941 14.4004 14.3994 14.4004h143.2z" />
    <glyph glyph-name="V" unicode="V" horiz-adv-x="641" vert-adv-y="0" 
d="M539.2 794.4c2.39941 -3.2002 3.2002 -8 2.39941 -12c-0.799805 -4.80078 -133.6 -504.801 -145.6 -548.801c-7.2002 -24.7998 -27.2002 -42.3994 -50.4004 -42.3994c-18.3994 0 -40.7998 11.2002 -48.7998 43.2002c-13.5996 52.7998 -123.2 464.8 -142.399 536.8
h-121.601l175.2 -742.4h118.4c8 0 14.3994 -6.39941 14.3994 -14.3994s-6.39941 -14.4004 -14.3994 -14.4004h-129.601c-1.59961 0 -3.2002 0.799805 -4.7998 0.799805h-0.799805c-0.799805 0 -2.40039 1.60059 -3.2002 2.40039h-0.799805
c-0.799805 0.799805 -2.40039 2.39941 -3.2002 3.2002v0.799805c-0.799805 0.799805 -1.59961 2.39941 -1.59961 4l-182.4 771.2c-0.799805 4 0.799805 8.7998 3.2002 12c2.39941 3.19922 7.2002 5.59961 11.2002 5.59961h151.199c6.40039 0 12 -4 13.6006 -10.4004
c0.799805 -4.7998 130.399 -490.399 145.6 -548c3.2002 -13.5996 11.2002 -21.5996 20.7998 -21.5996c8.80078 0 18.4004 6.40039 22.4004 20.7998c10.4004 38.4004 116.8 440 140.8 530.4h-109.6l-72.7998 -280c-1.60059 -8 -9.60059 -12 -17.6006 -10.4004
c-8 1.60059 -12 9.60059 -10.3994 17.6006l75.1992 290.399c1.60059 6.40039 8 11.2002 14.4004 11.2002h140c4 0 8.7998 -2.40039 11.2002 -5.59961z" />
    <glyph glyph-name="W" unicode="W" horiz-adv-x="888" vert-adv-y="0" 
d="M784.8 794.4c2.40039 -3.2002 4 -7.2002 3.2002 -11.2002l-160 -772c-1.59961 -6.40039 -7.2002 -11.2002 -13.5996 -11.2002h-31.2002h-32.7998h-3.2002h-2.40039c-48 2.40039 -78.3994 40.7998 -95.2002 116v0.799805l-117.6 588.8l-68 -411.199
c-0.799805 -7.2002 -7.2002 -12 -14.4004 -12c-7.19922 0 -13.5996 5.59961 -14.3994 12l-89.6006 476.8h-113.6l156 -742.4h19.2002h0.799805h1.59961h33.6006c22.3994 0 51.2002 10.4004 69.5996 93.6006l19.2002 117.6c0.799805 8 8 12.7998 16 12
s12.7998 -8.7998 12 -16.7998l-19.2002 -118.4v-0.799805c-17.5996 -79.2002 -48 -116 -97.5996 -116h-33.6006h-1.59961h-0.799805h-30.4004c-6.39941 0 -12.7998 4.7998 -14.3994 11.2002l-162.4 771.2c-0.799805 4 0.799805 8.7998 3.2002 12
c2.39941 3.19922 7.2002 5.59961 11.2002 5.59961h143.199c7.2002 0 12.8008 -5.59961 13.6006 -12l77.5996 -408.8l68 408.8c0.799805 7.2002 6.40039 12 13.6006 12c7.19922 0.799805 13.5996 -5.59961 14.3994 -12l132.8 -665.6
c18.4004 -84 50.4004 -93.6006 72.8008 -93.6006h32.7998h19.2002l153.6 742.4h-112.8l-88 -476.8c-0.799805 -6.40039 -6.40039 -12 -13.6006 -12c-7.19922 0 -13.5996 4.7998 -14.3994 12l-78.4004 488.8c-0.799805 8 4 16 12 16.7998s15.2002 -4 16 -12l65.6006 -406.4
l74.3994 406.4c0.799805 6.40039 7.2002 12 14.4004 12h143.2c4 0 8 -2.40039 10.3994 -5.59961z" />
    <glyph glyph-name="X" unicode="X" horiz-adv-x="700" vert-adv-y="0" 
d="M585.6 0h-152.8c-5.59961 0 -10.3994 3.2002 -12.7998 8l-89.5996 174.4c-3.2002 7.19922 -1.60059 16 5.59961 19.1992c7.2002 3.2002 16.7998 0.800781 20 -6.39941l85.5996 -166.4h120l-201.6 379.2c-2.40039 4 -2.40039 8.7998 0 12.7998l180.8 350.4h-113.6
l-113.601 -225.601c-0.799805 -1.59961 -2.39941 -3.19922 -3.19922 -4c-5.60059 -5.59961 -15.2002 -5.59961 -20.8008 0c-0.799805 0.800781 -2.39941 3.2002 -2.39941 4l-115.2 225.601h-112c42.4004 -81.6006 194.4 -376 217.6 -423.2
c28.8008 -57.5996 33.6006 -85.5996 5.60059 -140l-103.2 -200c-2.40039 -4.7998 -7.2002 -8 -12.7998 -8h-152.8c-4.80078 0 -10.4004 2.40039 -12.8008 6.40039c-2.39941 4 -2.39941 10.3994 0 14.3994l159.2 318.4c3.2002 7.2002 12 10.3994 19.2002 7.2002
c7.2002 -3.2002 9.59961 -12.8008 6.40039 -20l-148.801 -297.601h120.801l99.1992 192c23.2002 44.7998 19.2002 64 -6.39941 114.4c-27.2002 53.5996 -226.4 440 -228 444c-2.40039 4 -1.60059 9.59961 0.799805 13.5996s7.2002 7.2002 12 7.2002h145.6
c5.60059 0 10.4004 -3.2002 12.8008 -8l105.6 -208.8l105.6 208.8c2.40039 4.7998 7.2002 8 12.8008 8h145.6c4.7998 0 9.59961 -3.2002 12 -7.2002s3.2002 -9.59961 0.799805 -13.5996l-188 -364.8l209.601 -393.601c2.39941 -4 2.39941 -9.59961 0 -13.5996
c-2.40039 -4 -8 -7.2002 -12.8008 -7.2002z" />
    <glyph glyph-name="Y" unicode="Y" horiz-adv-x="565" vert-adv-y="0" 
d="M307.2 0h-148.8c-8 0 -14.4004 6.40039 -14.4004 14.4004v328.8l-143.2 438.399c-1.59961 4 -0.799805 8.80078 1.60059 12.8008c2.39941 4 7.19922 5.59961 12 5.59961h141.6c6.40039 0 12 -4 13.5996 -9.59961c0 0 88 -256 112 -325.601
c4.80078 -14.3994 14.4004 -16.7998 22.4004 -16.7998c12 0 23.2002 6.40039 26.4004 16c14.3994 42.4004 80 244 100.8 307.2h-110.4l-32.7998 -131.2c-1.59961 -8 -9.59961 -12 -17.5996 -10.4004c-8 1.60059 -12 9.60059 -10.4004 17.6006l35.2002 141.6
c1.59961 6.40039 8 11.2002 14.3994 11.2002h141.601c4.7998 0 9.59961 -1.59961 12 -5.59961c2.39941 -4 3.2002 -8.80078 1.59961 -12.8008c-0.799805 -2.39941 -90.3994 -277.6 -107.2 -327.199c-7.19922 -20.8008 -29.5996 -36 -53.5996 -36
c-23.2002 0 -41.5996 14.3994 -49.5996 36.7998c-20.8008 61.5996 -92 268.8 -108.801 316h-112l138.4 -420.8c0 -1.60059 0.799805 -3.2002 0.799805 -4.80078v-316.8h120v309.601c0 8 6.40039 13.5996 14.4004 13.5996s14.3994 -5.59961 14.3994 -13.5996v-324
c0 -8 -6.39941 -14.4004 -14.3994 -14.4004z" />
    <glyph glyph-name="Z" unicode="Z" horiz-adv-x="572" vert-adv-y="0" 
d="M458.4 0h-340c-4.80078 0 -9.60059 3.2002 -12 7.2002c-2.40039 4 -2.40039 9.59961 0 13.5996l308 588.8c22.3994 44 29.5996 60.8008 29.5996 112v49.6006h-415.2v-100h267.2c4.7998 0 9.59961 -2.40039 12 -6.40039s2.40039 -10.3994 0 -14.3994
c0 0 -235.2 -432.801 -248 -456l-1.59961 -4c-12.8008 -23.2002 -29.6006 -55.2002 -29.6006 -109.601v-66.3994c0 -8 -6.39941 -14.4004 -14.3994 -14.4004s-14.4004 6.40039 -14.4004 14.4004v66.3994c0 61.6006 20 98.4004 33.5996 123.2l0.800781 3.2002
c11.1992 20 191.199 348.8 237.6 436h-257.6c-8 0 -14.4004 6.39941 -14.4004 14.3994v128c0 8 6.40039 14.4004 14.4004 14.4004h444c8 0 14.3994 -6.40039 14.3994 -14.4004v-64c0 -56 -8 -76 -32.7998 -124.8l-297.6 -568h301.6v106.4h-156.8
c-8 0 -14.4004 6.39941 -14.4004 14.3994s6.40039 14.4004 14.4004 14.4004h171.2c8 0 14.3994 -6.40039 14.3994 -14.4004v-135.199c0 -8 -6.39941 -14.4004 -14.3994 -14.4004z" />
    <glyph glyph-name="bracketleft" unicode="[" horiz-adv-x="433" vert-adv-y="0" 
d="M28.7998 576.8v-1.59961v-113.601v-0.799805v-432h186.4h1.59961h88v107.2h-175.2c-8 0 -14.3994 6.40039 -14.3994 14.4004v115.199v101.601v184.8c0 8 6.39941 14.4004 14.3994 14.4004s14.4004 -6.40039 14.4004 -14.4004v-184.8v-101.601v-100.8h175.2
c8 0 14.3994 -6.39941 14.3994 -14.3994v-136c0 -8 -6.39941 -14.4004 -14.3994 -14.4004h-104h-89.6006h-111.199c-8 0 -14.4004 6.40039 -14.4004 14.4004v446.399v116v0.799805c0 47.2002 38.4004 84.8008 86.4004 86.4004h1.59961h36.7998h0.799805h18.4004h160.8v107.2
h-88h-1.59961h-143.2h-43.2002v-43.2002c0 -8 -6.39941 -14.4004 -14.3994 -14.4004s-14.4004 6.40039 -14.4004 14.4004v57.5996c0 8 6.40039 14.4004 14.4004 14.4004h14.3994h43.2002h53.5996h89.6006h104c8 0 14.3994 -6.40039 14.3994 -14.4004v-136
c0 -8 -6.39941 -14.3994 -14.3994 -14.3994h-192h-2.40039h-32c-33.5996 0 -64 -25.6006 -64 -58.4004z" />
    <glyph glyph-name="backslash" unicode="\" horiz-adv-x="500" vert-adv-y="0" 
d="M389.6 0h-71.1992c-4.80078 0 -8.80078 3.2002 -10.4004 7.2002l-138.4 351.2c-2.39941 5.59961 0.800781 12.7998 6.40039 15.1992c5.59961 2.40039 12.7998 -0.799805 15.2002 -6.39941l136 -344h45.5996l-296 753.6h-45.5996l132.8 -337.6
c2.40039 -5.60059 -1.59961 -12.7998 -7.2002 -15.2002c-5.59961 -2.40039 -12 0.799805 -14.3994 6.40039l-139.2 353.6c-1.60059 3.2002 0 8 1.59961 11.2002c2.40039 3.2002 5.60059 4.7998 9.60059 4.7998h70.3994c4.7998 0 9.60059 -3.2002 11.2002 -7.2002l304 -776.8
c0 -0.799805 0.799805 -1.59961 0.799805 -2.40039v-4c0 -1.59961 -0.799805 -4 -1.59961 -4.7998s-1.60059 -2.39941 -3.2002 -3.2002c-0.799805 -0.799805 -3.2002 -1.59961 -4 -1.59961h-2.40039z" />
    <glyph glyph-name="bracketright" unicode="]" horiz-adv-x="434" vert-adv-y="0" 
d="M305.6 223.2v1.59961v113.601v0.799805v432h-186.399h-2.40039h-87.2002v-107.2h175.2c8 0 14.4004 -6.40039 14.4004 -14.4004v-115.199v-101.601v-184.8c0 -8 -6.40039 -14.4004 -14.4004 -14.4004s-14.3994 6.40039 -14.3994 14.4004v184.8v101.601v100.8h-175.2
c-8 0 -14.4004 6.39941 -14.4004 14.3994v136c0 8 6.40039 14.4004 14.4004 14.4004h104h89.5996h111.2c8 0 14.4004 -6.40039 14.4004 -14.4004v-446.399v-116v-0.799805c0 -47.2002 -38.4004 -84.8008 -86.4004 -86.4004h-0.799805h-37.6006h-0.799805h-18.3994h-160.801
v-107.2h87.2002h2.40039h143.2h43.1992v43.2002c0 8 6.40039 14.4004 14.4004 14.4004s14.4004 -6.40039 14.4004 -14.4004v-57.5996c0 -8 -6.40039 -14.4004 -14.4004 -14.4004h-14.4004h-43.1992h-53.6006h-89.5996h-104c-8 0 -14.4004 6.40039 -14.4004 14.4004v136
c0 8 6.40039 14.3994 14.4004 14.3994h192h2.39941h32c33.6006 0 64 25.6006 64 58.4004z" />
    <glyph glyph-name="asciicircum" unicode="^" horiz-adv-x="482" vert-adv-y="0" 
d="M1.59961 524c0 1.59961 0 2.40039 0.800781 4c4 8.7998 93.5996 220 102.399 238.4c7.2002 15.1992 20 24 33.6006 24c14.3994 0 27.1992 -8 35.1992 -24c11.2002 -22.4004 84 -196 99.2002 -232h84l-110.399 245.6c-2.40039 5.59961 -0.800781 12 4 14.4004
c4.7998 2.39941 12 0.799805 14.3994 -4.80078l116.8 -261.6c1.60059 -3.2002 1.60059 -7.2002 0 -10.4004c-1.59961 -3.19922 -5.59961 -4.7998 -8.7998 -4.7998h-106.399c-4 0 -7.2002 2.40039 -8.80078 6.40039c-0.799805 1.59961 -90.3994 212.8 -102.399 236.8
c-4 8.7998 -9.60059 13.5996 -16 13.5996c-6.40039 0 -12.7998 -4.7998 -16 -12.7998c-7.2002 -16 -75.2002 -172.8 -96 -222.399h76l34.3994 87.1992c1.60059 5.60059 8 8 12.8008 5.60059c4.7998 -2.40039 7.19922 -8 5.59961 -13.6006l-36.7998 -94.3994
c-1.60059 -4 -4.7998 -6.40039 -8.7998 -6.40039h-98.4004c-3.2002 0 -7.2002 1.60059 -8.7998 4.7998c-0.799805 1.60059 -1.60059 4.80078 -1.60059 6.40039z" />
    <glyph glyph-name="underscore" unicode="_" horiz-adv-x="776" vert-adv-y="0" 
d="M491.2 0h-475.2c-8.7998 0 -16 6.40039 -16 15.2002v123.2c0 8.7998 7.2002 15.1992 16 15.1992s15.2002 -6.39941 15.2002 -15.1992v-107.2h460c8.7998 0 15.2002 -7.2002 15.2002 -16s-6.40039 -15.2002 -15.2002 -15.2002zM626.4 15.2002
c0 -8.7998 -7.2002 -15.2002 -16 -15.2002c-8.80078 0 -15.2002 6.40039 -15.2002 15.2002v107.2h-460.8c-8.80078 0 -15.2002 7.19922 -15.2002 16c0 8.7998 6.39941 15.1992 15.2002 15.1992h476c8.7998 0 16 -6.39941 16 -15.1992v-123.2z" />
    <glyph glyph-name="grave" unicode="`" horiz-adv-x="211" vert-adv-y="0" 
d="M188.8 895.2c-7.2002 -2.40039 -16 0.799805 -18.3994 8l-28 71.2002l-108.801 -43.2002l23.2002 -58.4004l54.4004 22.4004c7.2002 2.39941 15.2002 -1.60059 18.3994 -8.7998c3.2002 -7.2002 -0.799805 -16 -8 -18.4004l-67.1992 -26.4004
c-7.2002 -2.39941 -16 0.800781 -19.2002 8l-33.6006 84c-3.19922 7.2002 0.800781 15.2002 8 18.4004l135.2 54.4004c7.2002 2.39941 15.2002 -0.800781 18.4004 -8l33.5996 -84.8008c3.2002 -7.19922 -0.799805 -15.1992 -8 -18.3994z" />
    <glyph glyph-name="a" unicode="a" horiz-adv-x="632" vert-adv-y="0" 
d="M552.8 17.5996c0 0 0 -8.7998 -2.39941 -12c-2.40039 -3.19922 -7.2002 -5.59961 -11.2002 -5.59961h-145.601h-4c-1.59961 0 -4 2.40039 -5.59961 3.2002c-1.59961 1.59961 -2.40039 3.2002 -3.2002 4.7998c0 0.799805 -1.59961 3.2002 -1.59961 4l-20.7998 110.4l-8 44
h-63.2002c-8 0 -14.4004 6.39941 -14.4004 14.3994s6.40039 14.4004 14.4004 14.4004h73.5996c7.2002 0.799805 15.2002 -4.7998 16 -12l9.60059 -55.2002l18.3994 -99.2002h116l-65.5996 273.601l-112.8 468.8h-132l-112 -469.601l-65.6006 -272.8h116.8l40 220
c8 44 25.6006 71.2002 84 71.2002h1.60059h1.59961h44.7998l-44.7998 242.4l-31.2002 -169.601c-1.59961 -8 -8.7998 -12.7998 -16.7998 -11.2002c-8 1.60059 -13.5996 8 -12 16l45.6006 246.4c0.799805 6.40039 7.19922 11.2002 14.3994 11.2002
s12.7998 -4.7998 13.6006 -11.2002l62.3994 -335.2v-1.59961v-4.7998c0 -1.60059 -2.39941 -4 -3.2002 -5.60059c-0.799805 -1.59961 -3.19922 -3.2002 -4.7998 -4c-1.59961 -0.799805 -3.2002 -1.59961 -4.7998 -1.59961h-1.59961h-61.6006l-1.59961 0.799805
l-1.60059 -0.799805c-40 0 -49.5996 -11.2002 -56 -48l-42.3994 -231.2c0 -0.799805 -0.799805 -3.2002 -0.799805 -4c-0.800781 -1.59961 -2.40039 -4 -4 -4.7998c-1.60059 -1.60059 -4 -3.2002 -5.60059 -3.2002h-4h-146.399c-4 0 -8.80078 2.40039 -11.2002 5.59961
c-2.40039 3.2002 -4 8 -3.2002 12l69.5996 291.2l115.2 480c1.60059 6.40039 8 11.2002 14.4004 11.2002h154.399c6.40039 0 12 -4.7998 13.6006 -11.2002l116 -480z" />
    <glyph glyph-name="b" unicode="b" horiz-adv-x="571" vert-adv-y="0" 
d="M237.6 0h-223.199c-8 0 -14.4004 6.40039 -14.4004 14.4004v554.399c0 8 6.40039 14.4004 14.4004 14.4004s14.3994 -6.40039 14.3994 -14.4004v-540h208.8c36.8008 0 112.801 0 152 44c24 25.6006 52.8008 72 52.8008 149.601
c0 142.399 -73.6006 170.399 -100.801 180.8c-5.59961 1.59961 -9.59961 7.2002 -9.59961 12.7998s2.40039 11.2002 8 13.5996c30.4004 13.6006 81.5996 36.8008 81.5996 156c0 77.6006 -24.7998 116 -42.3994 137.601c-38.4004 48 -80.7998 48 -167.2 48h-183.2v-95.2002
h183.2c60 0 94.4004 -40.7998 94.4004 -112c0 -28 0 -104 -94.4004 -104h-74.4004c-4 0 -14.3994 -1.59961 -14.3994 -14.4004v-74.3994c0 -8 6.39941 -14.4004 14.3994 -14.4004h72.8008c43.1992 0 72 -2.39941 92 -38.3994c8 -15.2002 16.7998 -38.4004 16.7998 -71.2002
c0 -83.2002 -31.2002 -118.4 -103.2 -118.4h-107.2c-8 0 -14.3994 5.60059 -14.3994 13.6006s6.39941 14.3994 14.3994 14.3994h107.2c48.7998 0 74.4004 15.2002 74.4004 90.4004c0 26.3994 -7.2002 45.5996 -13.6006 57.5996c-12 20.7998 -24 24 -66.3994 24h-72.8008
c-24 0 -43.1992 18.4004 -43.1992 42.4004v74.3994c0 28 21.5996 43.2002 43.1992 43.2002h74.4004c60.7998 0 65.5996 37.6006 65.5996 75.2002c0 56 -21.5996 84 -65.5996 84h-197.6c-8 0 -14.4004 6.40039 -14.4004 14.4004v123.199c0 8 6.40039 14.4004 14.4004 14.4004
h197.6c89.5996 0 143.2 0 189.6 -58.4004c33.6006 -40 48.8008 -89.5996 48.8008 -156c0 -106.399 -37.6006 -148 -71.2002 -168c38.3994 -20.7998 92 -70.3994 92 -195.199c0 -86.4004 -33.6006 -140 -60.7998 -169.601c-47.2002 -52.7998 -132 -52.7998 -172.801 -52.7998
z" />
    <glyph glyph-name="c" unicode="c" horiz-adv-x="584" vert-adv-y="0" 
d="M282.4 -12h-0.800781c-38.3994 0 -73.5996 23.0723 -96 63.4473c-23.1992 42.0254 -25.5996 163.977 -25.5996 251.32v4.12012v79.9287c0 71.6875 4 174.688 22.4004 226.6c15.1992 42.8477 36.7998 60.9766 74.3994 60.9766h0.799805
c61.6006 0 66.4004 -89.8164 68.8008 -172.217l128 10.7119c-14.4004 177.984 -82.4004 269.448 -200.801 269.448c-52.7998 0 -96.7998 -17.3037 -130.399 -51.9121c-75.2002 -76.6318 -90.4004 -224.951 -90.4004 -335.367c0 -157.384 28 -266.977 83.2002 -325.48
c5.59961 -5.76855 4.7998 -15.6562 -0.799805 -21.4238c-5.60059 -5.76855 -14.4004 -4.94434 -20 0.824219c-61.6006 65.0957 -91.2002 178.808 -91.2002 346.08c0 116.184 16.7998 272.743 99.2002 356.791c39.2002 40.376 89.5996 60.1523 149.6 60.1523h1.60059
c96 0 213.6 -54.3838 230.399 -311.473c0 -8.24023 -5.59961 -14.8311 -13.5996 -15.6553l-157.601 -14.0078c-4 0 -7.19922 1.64844 -10.3994 4.11914c-3.2002 2.47266 -5.60059 6.59277 -5.60059 10.7129v5.76758c-1.59961 64.2725 -4.7998 152.439 -40.7998 152.439
c-22.3994 0 -35.2002 -5.76758 -48 -40.376c-18.3994 -53.5596 -20 -177.16 -20 -217.535v-79.1045v-4.12012c0 -162.327 11.2002 -218.36 21.6006 -236.487c17.5996 -31.3125 43.1992 -48.6162 72 -48.6162h0.799805c130.399 0.823242 160 177.16 166.399 251.319
l-124.8 9.06445v-12.3604c-0.799805 -45.3203 -1.59961 -107.943 -42.3994 -136.784c-6.40039 -4.94336 -15.2002 -2.4707 -20 4.12012c-4.80078 6.59277 -3.2002 15.6562 3.19922 20.6006c28.8008 19.7764 29.6006 74.1602 30.4004 112.889
c0 10.7109 0 20.5996 0.799805 28.8398s7.2002 13.1836 15.2002 13.1836l154.4 -11.5361c8 0 12.7998 -7.41602 12.7998 -15.6562c-4 -68.3916 -31.2002 -293.344 -196.8 -293.344z" />
    <glyph glyph-name="d" unicode="d" horiz-adv-x="576" vert-adv-y="0" 
d="M362.4 748.8c74.3994 -58.3994 113.6 -176 113.6 -339.2c0 -168 -36 -284.8 -110.4 -356c-27.1992 -24.7998 -76.7998 -53.5996 -157.6 -53.5996h-193.6c-8 0 -14.4004 6.40039 -14.4004 14.4004s6.40039 14.3994 14.4004 14.3994h193.6
c71.2002 0 115.2 24.7998 138.4 45.6006c68 65.5996 101.6 175.199 101.6 335.199c0 107.2 -18.4004 249.601 -103.2 316c-53.5996 42.4004 -111.2 45.6006 -192 45.6006h-124v-553.601c0 -49.5996 18.4004 -53.5996 47.2002 -53.5996h83.2002h0.799805h43.2002
c24 0 56.7998 4 69.5996 40.7998c14.4004 42.4004 17.6006 143.2 17.6006 190.4c0 242.399 -40 241.6 -87.2002 241.6h-29.6006v-393.6c0 -8 -5.59961 -14.4004 -13.5996 -14.4004s-14.4004 6.40039 -14.4004 14.4004v408c0 8 6.40039 15.2002 14.4004 15.2002h43.2002
c80.7998 0 116 -39.2002 116 -271.2c0 -5.60059 -0.799805 -141.601 -19.2002 -199.2c-9.59961 -28 -33.5996 -60.7998 -96.7998 -60.7998h-43.2002h-84c-35.2002 0 -76 9.59961 -76 82.3994v568c0 8 6.40039 14.4004 14.4004 14.4004h138.399
c84 0 148.8 -3.2002 209.601 -51.2002z" />
    <glyph glyph-name="e" unicode="e" vert-adv-y="0" 
d="M390.4 0h-376c-8 0 -14.4004 6.40039 -14.4004 14.4004v254.399v0.799805c0 47.2002 38.4004 85.6006 86.4004 87.2002h1.59961h235.2v100h-160c-8 0 -14.4004 6.40039 -14.4004 14.4004v179.2c0 8 6.40039 14.3994 14.4004 14.3994h212.8v106.4h-347.2v-368
c0 -8 -6.39941 -13.6006 -14.3994 -13.6006s-14.4004 5.60059 -14.4004 13.6006v382.399c0 8 6.40039 14.4004 14.4004 14.4004h376c8 0 14.3994 -6.40039 14.3994 -14.4004v-135.199c0 -8 -6.39941 -14.4004 -14.3994 -14.4004h-212.801v-150.4h159.2
c8 0 14.4004 -6.39941 14.4004 -14.3994v-128.8c0 -8 -6.40039 -13.6006 -14.4004 -13.6006h-247.2c-33.5996 0 -60.7998 -27.2002 -60.7998 -60v-0.799805v-239.2h347.2v106.4h-212.8c-8 0 -14.4004 6.39941 -14.4004 14.3994v99.2002c0 8 6.40039 14.4004 14.4004 14.4004
s14.3994 -6.40039 14.3994 -14.4004v-84.7998h212.801c8 0 14.3994 -6.40039 14.3994 -14.4004v-135.199c0 -8 -6.39941 -14.4004 -14.3994 -14.4004z" />
    <glyph glyph-name="f" unicode="f" horiz-adv-x="483" vert-adv-y="0" 
d="M164 0h-149.6c-8 0 -14.4004 6.40039 -14.4004 14.4004v394.399c0 8 6.40039 14.4004 14.4004 14.4004s14.3994 -6.40039 14.3994 -14.4004v-380h120.8v313.601c0 8 6.40039 14.3994 14.4004 14.3994h161.6v100h-237.6c-48.7998 0 -88 39.2002 -88 88v240.8
c0 8 6.40039 14.4004 14.4004 14.4004h354.399c8 0 14.4004 -6.40039 14.4004 -14.4004v-135.199c0 -8 -6.40039 -14.4004 -14.4004 -14.4004h-190.399v-71.2002c0 -8 -6.40039 -14.3994 -14.4004 -14.3994s-14.4004 6.39941 -14.4004 14.3994v85.6006
c0 8 6.40039 14.3994 14.4004 14.3994h190.4v106.4h-325.601v-226.4c0 -32.7998 26.4004 -59.2002 59.2002 -59.2002h251.2c8 0 14.3994 -6.39941 14.3994 -14.3994v-128.8c0 -8 -6.39941 -13.6006 -14.3994 -13.6006h-160.8v-314.399
c0 -8 -6.40039 -14.4004 -14.4004 -14.4004z" />
    <glyph glyph-name="g" unicode="g" horiz-adv-x="580" vert-adv-y="0" 
d="M289.6 -12c-6.39941 0 -14.3994 0.824219 -20.7998 1.64746c-37.5996 5.76855 -68 27.1924 -87.2002 62.625c-23.1992 42.0234 -25.5996 163.151 -25.5996 250.495v4.12012v79.9287c0 71.6875 3.2002 174.688 21.5996 226.6
c15.2002 42.8477 37.6006 60.9766 75.2002 60.9766h0.799805c61.6006 0 66.4004 -89.8164 68.8008 -172.217l128 10.7119c-14.4004 177.984 -82.4004 269.448 -200.801 269.448c-52.7998 0 -96.7998 -17.3037 -130.399 -51.9121
c-75.2002 -76.6318 -90.4004 -224.951 -90.4004 -335.367c0 -157.384 28 -266.977 83.2002 -325.48c5.59961 -5.76855 4.7998 -14.832 -0.799805 -20.5996c-5.60059 -5.76855 -14.4004 -5.76855 -20 0c-61.6006 65.0957 -91.2002 178.808 -91.2002 346.08
c0 116.184 16.7998 272.743 99.2002 356.791c39.2002 40.376 89.5996 60.1523 150.399 60.1523c96 0 214.4 -54.3838 231.2 -311.473c0 -8.24023 -5.59961 -14.8311 -13.5996 -15.6553l-157.601 -14.0078c-4 0 -7.19922 1.64844 -10.3994 4.11914
c-3.2002 2.47266 -5.60059 6.59277 -5.60059 10.7129v5.76758c-1.59961 64.2725 -4.7998 153.264 -40.7998 153.264c-22.3994 0 -36 -6.5918 -48 -41.2002c-18.3994 -53.5596 -20 -177.16 -20 -217.535v-79.1045v-4.12012c0 -162.327 11.2002 -218.36 21.6006 -236.487
c15.1992 -27.1924 38.3994 -43.6729 67.1992 -47.793c51.2002 -7.41504 108.801 23.0723 140.801 55.209c35.1992 35.4316 37.5996 47.791 37.5996 49.4395v215.064l-156 15.6562v-46.9688l31.2002 -4.12012c7.2002 -0.824219 12 -7.41504 12 -14.8311v-182.929
c0 -8.24023 -6.40039 -14.832 -14.4004 -14.832s-14.3994 6.5918 -14.3994 14.832v170.568l-30.4004 4.12012c-7.2002 0.823242 -12.7998 7.41602 -12.7998 14.8311v75.8086c0 4.12012 1.59961 9.06445 4.7998 11.5361s7.2002 3.2959 11.2002 3.2959l184 -18.9521
c7.2002 -0.823242 13.5996 -6.5918 13.5996 -14.0078v-229.072c0 -20.5996 -24 -47.792 -46.3994 -70.0391c-34.4004 -34.6094 -89.6006 -65.0967 -144.801 -65.0967z" />
    <glyph glyph-name="h" unicode="h" horiz-adv-x="549" vert-adv-y="0" 
d="M163.2 -0.799805h-0.799805l-148 0.799805c-8 0 -14.4004 6.40039 -14.4004 14.4004v770.399c0 8 6.40039 14.4004 14.4004 14.4004h148.8c8 0 13.5996 -6.40039 13.5996 -14.4004v-360.8c0 -52.7998 7.2002 -67.2002 59.2002 -67.2002h50.4004
c8 0 14.3994 -6.39941 14.3994 -14.3994v-313.601h119.2v741.601h-119.2v-334.4c0 -8 -6.39941 -13.5996 -14.3994 -13.5996s-14.4004 5.59961 -14.4004 13.5996v348.8c0 8 6.40039 14.4004 14.4004 14.4004h148c8 0 15.1992 -6.40039 15.1992 -14.4004v-770.399
c0 -8 -7.19922 -14.4004 -15.1992 -14.4004h-148c-8 0 -14.4004 6.40039 -14.4004 14.4004v313.6h-36c-73.5996 0 -87.2002 33.5996 -87.2002 96v346.4h-120v-741.601l120 -0.799805v239.2c0 8 6.40039 14.3994 14.4004 14.3994s13.5996 -6.39941 13.5996 -14.3994v-253.601
c0 -4 -1.59961 -8 -4 -10.3994c-2.39941 -2.40039 -5.59961 -4 -9.59961 -4z" />
    <glyph glyph-name="i" unicode="i" horiz-adv-x="272" vert-adv-y="0" 
d="M158.4 0h-144c-8 0 -14.4004 6.40039 -14.4004 14.4004v534.399c0 72.7998 40.7998 82.4004 75.2002 82.4004h17.5996c8 0 14.4004 -6.40039 14.4004 -14.4004s-6.40039 -14.3994 -14.4004 -14.3994h-17.5996c-28 0 -46.4004 -4 -46.4004 -53.6006v-520h116v742.4h-116
v-72.7998c0 -8 -6.39941 -14.4004 -14.3994 -14.4004s-14.4004 6.40039 -14.4004 14.4004v87.1992c0 8 6.40039 14.4004 14.4004 14.4004h144c8 0 14.3994 -6.40039 14.3994 -14.4004v-771.199c0 -8 -6.39941 -14.4004 -14.3994 -14.4004z" />
    <glyph glyph-name="j" unicode="j" horiz-adv-x="464" vert-adv-y="0" 
d="M174.4 0c-82.4004 0 -137.601 13.5996 -164 21.5996c-5.60059 1.60059 -10.4004 7.2002 -10.4004 13.6006v136c0 4 1.59961 8 4.7998 10.3994c3.2002 2.40039 7.2002 3.2002 11.2002 3.2002c2.40039 0 6.40039 -0.799805 12.7998 -2.39941
c19.2002 -4.80078 60.7998 -13.6006 108.8 -8.80078c39.2002 4 48.8008 13.6006 48.8008 101.601v276.8c0 72 38.3994 81.5996 76 81.5996h19.1992c8 0 13.6006 -6.39941 13.6006 -14.3994s-5.60059 -14.4004 -13.6006 -14.4004h-19.1992
c-28.8008 0 -47.2002 -3.2002 -47.2002 -52.7998v-276.8c0 -83.2002 -8 -123.2 -75.2002 -130.4c-48 -4.7998 -88 3.2002 -111.2 8v-106.399c27.2002 -7.2002 76.7998 -17.6006 145.601 -17.6006c160 0 160 124.8 160 256.8v485.601h-119.2v-71.2002
c0 -8 -6.40039 -15.2002 -14.4004 -15.2002s-14.3994 7.2002 -14.3994 15.2002v85.5996c0 8 6.39941 14.4004 14.3994 14.4004h148.8c8 0 14.4004 -6.40039 14.4004 -14.4004v-500c0 -127.199 -0.799805 -285.6 -189.6 -285.6z" />
    <glyph glyph-name="k" unicode="k" horiz-adv-x="652" vert-adv-y="0" 
d="M539.2 0h-160.8c-4.80078 0 -9.60059 2.40039 -12 6.40039c-6.40039 10.3994 -162.4 252 -189.601 296.8c-24.7998 47.2002 -28 93.5996 -28 136v332h-120v-742.4h120v154.4c0 8 6.40039 13.5996 14.4004 13.5996s14.3994 -5.59961 14.3994 -13.5996v-168.8
c0 -8 -6.39941 -14.4004 -14.3994 -14.4004h-148.8c-8 0 -14.4004 6.40039 -14.4004 14.4004v771.199c0 8 6.40039 14.4004 14.4004 14.4004h148.8c8 0 14.3994 -6.40039 14.3994 -14.4004v-346.399c0 -44.7998 4 -82.4004 24 -121.601c24 -39.1992 158.4 -248.8 184 -288.8
h128c-52.7998 86.4004 -242.399 393.601 -268.8 446.4c-16.7998 33.5996 -11.2002 72 -5.59961 88.7998c10.3994 31.2002 122.399 209.6 135.2 229.6c2.39941 4 7.19922 6.40039 12 6.40039h152.8c4.7998 0 9.59961 -3.2002 12 -7.2002
c2.39941 -4 2.39941 -10.3994 0 -14.3994l-175.2 -309.601c-4 -7.2002 -12.7998 -9.59961 -20 -5.59961s-9.59961 12.7998 -5.59961 20l164 288h-120c-49.6006 -78.4004 -121.601 -196 -128 -216c-4.80078 -14.4004 -8 -44 4 -67.2002
c29.5996 -59.2002 278.399 -462.4 280.8 -466.4c2.39941 -4 2.39941 -9.59961 0 -14.3994c-2.40039 -4.7998 -7.2002 -7.2002 -12 -7.2002z" />
    <glyph glyph-name="l" unicode="l" horiz-adv-x="456" vert-adv-y="0" 
d="M341.6 0h-327.199c-8 0 -14.4004 6.40039 -14.4004 14.4004s6.40039 14.3994 14.4004 14.3994h312.8v113.601h-251.2c-35.2002 0 -76 9.59961 -76 82.3994v560.8c0 8 6.40039 14.4004 14.4004 14.4004h146.399c8 0 14.4004 -6.40039 14.4004 -14.4004l0.799805 -536
c0 -8 -6.40039 -14.3994 -14.4004 -14.3994s-14.3994 6.39941 -14.3994 14.3994l-0.799805 521.601h-117.601v-546.4c0 -49.5996 18.4004 -53.5996 47.2002 -53.5996h265.6c8 0 14.4004 -6.40039 14.4004 -14.4004v-142.399c0 -8 -6.40039 -14.4004 -14.4004 -14.4004z" />
    <glyph glyph-name="m" unicode="m" horiz-adv-x="699" vert-adv-y="0" 
d="M584.8 800c8 0 14.4004 -6.40039 14.4004 -14.4004v-771.199c0 -8 -6.40039 -14.4004 -14.4004 -14.4004h-148.8c-8 0 -14.4004 6.40039 -14.4004 14.4004v272.8v16.7998c0 56.7998 0.800781 83.2002 -28 116.8l-252 310.4
c-3.19922 3.2002 -5.59961 7.2002 -8.7998 11.2002c-14.3994 17.5996 -23.2002 28.7998 -60.7998 28.7998h-43.2002v-742.4h113.601v482.4v0.799805c0 1.59961 0 4 0.799805 5.59961c0.799805 1.60059 2.39941 3.2002 4 4c1.59961 1.60059 4 3.2002 5.59961 3.2002
c0.799805 0 3.2002 0.799805 4 0.799805c1.60059 0 4 -0.799805 5.60059 -1.59961c1.59961 -0.799805 4 -1.59961 4.7998 -3.2002v-0.799805l128.8 -158.4c4.7998 -6.39941 4 -15.1992 -2.40039 -20c-6.39941 -4.7998 -15.1992 -4.7998 -20 1.60059l-103.199 128v-456.8
c0 -8 -6.40039 -14.4004 -14.4004 -14.4004h-141.6c-8 0 -14.4004 6.40039 -14.4004 14.4004v771.199c0 8 6.40039 14.4004 14.4004 14.4004h57.5996c51.2002 0 65.5996 -20 82.4004 -40c2.39941 -3.2002 5.59961 -6.40039 8.7998 -9.59961l252.8 -311.2
c34.4004 -41.6006 34.4004 -76.7998 34.4004 -135.2l-0.800781 -16.7998l0.800781 -258.4h120v742.4h-41.6006c-44 0 -44 0.799805 -57.5996 -21.6006c-11.2002 -17.5996 -83.2002 -138.399 -84 -139.199c-4 -6.40039 -12.7998 -8.80078 -19.2002 -4.80078
s-8.7998 12.8008 -4.7998 19.2002c3.2002 4.7998 72.7998 121.601 84 140c22.3994 35.2002 35.2002 35.2002 82.3994 35.2002h55.2002z" />
    <glyph glyph-name="n" unicode="n" horiz-adv-x="652" vert-adv-y="0" 
d="M128 771.2h-99.2002v-742.4h120v477.601v2.39941c0 1.60059 0.799805 4 1.60059 5.60059c0.799805 1.59961 2.39941 3.19922 4 4c1.59961 0.799805 3.19922 2.39941 4.7998 2.39941h5.59961c1.60059 0 4 -0.799805 5.60059 -1.59961
c1.59961 -0.799805 3.19922 -2.40039 4 -4l1.59961 -1.60059l221.6 -424l16 -24.7998c15.2002 -23.2002 30.4004 -36 75.2002 -36h50.4004c8 0 13.5996 -6.39941 13.5996 -14.3994s-5.59961 -14.4004 -13.5996 -14.4004h-50.4004c-48 0 -76.7998 14.4004 -100 49.5996
l-16 24.8008v0.799805l-195.2 373.6v-434.399c0 -8 -6.39941 -14.4004 -14.3994 -14.4004h-148.8c-4 0 -8 1.59961 -10.4004 4s-4 6.40039 -4 10.4004v771.199c0 8 6.40039 14.4004 14.4004 14.4004h113.6c52 0 75.2002 -22.4004 96 -59.2002l300.8 -544.8v575.2h-124.8
v-168c0 -8 -6.40039 -14.4004 -14.4004 -14.4004s-14.3994 6.40039 -14.3994 14.4004v182.399c0 8 6.39941 14.4004 14.3994 14.4004h153.601c8 0 13.5996 -6.40039 13.5996 -14.4004v-644.8v-2.39941c0 -1.60059 -0.799805 -4 -1.59961 -5.60059
c-0.799805 -1.59961 -2.40039 -3.2002 -4 -4c-1.60059 -0.799805 -3.2002 -2.39941 -4.7998 -2.39941h-4.80078c-1.59961 0 -4 0.799805 -5.59961 1.59961s-4 2.40039 -4.7998 4l-0.799805 1.59961l-327.2 593.601c-17.6006 31.2002 -32 44 -71.2002 44z" />
    <glyph glyph-name="o" unicode="o" horiz-adv-x="592" vert-adv-y="0" 
d="M302 -12h-1.59961c-98.4004 0.824219 -116 75.8076 -123.2 107.943l-0.799805 5.76953c-11.2002 46.9668 -9.60059 164.8 -8.80078 243.079v44.4951c0 106.297 2.40039 186.226 16 224.953c13.6006 38.7275 35.2002 59.3271 65.6006 59.3271
c36.7998 0 56.7998 -17.3037 70.3994 -60.1514c15.2002 -48.6162 14.4004 -156.56 14.4004 -208.473c0 -24.7197 0.799805 -150.791 -8 -202.703c-4.7998 -28.8398 -13.5996 -60.1523 -40.7998 -74.1602c-7.2002 -3.2959 -16 -0.824219 -19.2002 6.59277
c-3.2002 7.41504 -0.799805 16.4795 6.40039 19.7744c12.7998 6.59277 20 21.4248 24.7998 52.7363c8 51.0889 8.7998 182.929 8.7998 197.76c0 46.1445 0 154.913 -13.5996 199.409c-10.4004 33.7832 -22.4004 39.5508 -43.2002 39.5508
c-12 0 -26.4004 -4.11914 -38.4004 -38.7275c-12.7998 -37.0791 -14.3994 -126.072 -14.3994 -215.889c0 -12.3594 -0.800781 -27.1904 -0.800781 -44.4951c-0.799805 -76.6318 -1.59961 -193.64 8.80078 -236.488l1.59961 -5.76758
c8 -33.7842 19.2002 -84.8721 96 -84.8721h1.59961c117.601 0.823242 159.2 201.88 159.2 374.096c0 266.152 -66.3994 390.576 -210.399 390.576c-145.601 0 -213.601 -119.479 -213.601 -376.568c0 -140.903 19.2002 -243.08 58.4004 -312.295
c2.39941 -3.29688 7.2002 -12.3604 16 -23.0723c4.7998 -5.76758 4 -15.6562 -1.60059 -20.6006c-5.59961 -4.94336 -15.1992 -4.94336 -20 1.64746c-10.3994 12.3604 -16 22.249 -18.3994 26.3691c-43.2002 74.9834 -63.2002 178.808 -63.2002 327.951
c0 273.568 79.2002 406.232 242.4 406.232c214.399 0 240 -239.784 240 -420.24c0 -195.287 -50.4004 -403.76 -190.4 -403.76z" />
    <glyph glyph-name="p" unicode="p" horiz-adv-x="540" vert-adv-y="0" 
d="M160 0h-145.6c-8 0 -14.4004 6.40039 -14.4004 14.4004v362.399c0 50.4004 21.5996 72 72 72h123.2c37.5996 0 62.3994 6.40039 62.3994 104c0 68.7998 -17.5996 96.7998 -62.3994 96.7998h-21.6006v-121.6c0 -8 -5.59961 -14.4004 -13.5996 -14.4004
s-14.4004 6.40039 -14.4004 14.4004v136c0 8 6.40039 14.4004 14.4004 14.4004h35.2002c91.2002 0 91.2002 -94.4004 91.2002 -125.601c0 -97.5996 -24.8008 -132.8 -91.2002 -132.8h-123.2c-34.4004 0 -43.2002 -8.7998 -43.2002 -43.2002v-348h116.8v270.4
c0 8 6.40039 14.3994 14.4004 14.3994h43.2002c36 0 95.2002 0 139.2 33.6006c42.3994 34.3994 69.5996 108.8 69.5996 193.6c0 66.4004 -14.4004 121.601 -42.4004 164c-42.3994 66.4004 -106.399 66.4004 -174.399 66.4004h-166.4v-261.601
c0 -8 -6.39941 -14.3994 -14.3994 -14.3994s-14.4004 6.39941 -14.4004 14.3994v276c0 8 6.40039 14.4004 14.4004 14.4004h180.8c68.7998 0 148 0 198.399 -79.2002c31.2002 -47.2002 47.2002 -108 47.2002 -180c0 -94.3994 -30.3994 -175.2 -80 -216
c-52 -40 -120.8 -40.7998 -157.6 -40.7998h-29.6006v-269.6c0 -8 -5.59961 -14.4004 -13.5996 -14.4004z" />
    <glyph glyph-name="q" unicode="q" horiz-adv-x="580" vert-adv-y="0" 
d="M466.4 -12h-124.801c-8 0 -14.3994 6.59277 -14.3994 14.832c0 8.24023 6.39941 14.832 14.3994 14.832h94.4004l-44.7998 56.8555c-4 5.76758 -3.2002 14.0078 0.799805 18.9531c0 0.823242 0.799805 1.64746 0.799805 2.4707
c39.2002 68.3926 58.4004 170.569 58.4004 311.473c0 256.264 -67.2002 374.92 -212.8 374.92c-143.2 0 -209.601 -123.6 -209.601 -388.929c0 -171.391 41.6006 -371.623 159.2 -372.447h0.799805c76.7998 0 88 50.2637 96 84.0479l1.60059 5.76855
c10.3994 42.8477 9.59961 159.031 8.7998 235.664c0 17.3037 -0.799805 32.1357 -0.799805 44.4961c0 88.9912 -1.60059 177.983 -14.4004 215.063c-12 34.6074 -26.4004 37.9033 -38.4004 37.9033c-20.7998 0 -32 -4.94336 -42.3994 -38.7275
c-13.6006 -44.4961 -13.6006 -152.439 -13.6006 -198.583c0 -14.833 0.800781 -145.849 8.80078 -196.937c4.7998 -31.3125 11.1992 -46.1436 24 -52.7363c7.19922 -3.2959 10.3994 -12.3604 7.19922 -19.7764c-3.19922 -7.41602 -12 -9.8877 -19.1992 -6.59082
c-27.2002 14.0068 -35.2002 45.3193 -40 74.1602c-8.80078 51.9111 -9.60059 177.159 -9.60059 201.88c0 51.0869 0 158.207 15.2002 206.823c13.5996 42.8477 33.5996 60.9766 69.5996 60.9766c30.4004 0 52 -20.6006 65.6006 -59.3291
c13.5996 -38.7275 16 -117.831 16 -224.127v-44.4961c0.799805 -78.2803 2.39941 -196.113 -8.7998 -242.257l-0.800781 -5.76758c-7.19922 -32.1357 -24.7998 -107.12 -123.199 -107.943h-1.60059c-139.2 0 -188.8 208.471 -188.8 402.935
c0 179.633 24.7998 418.593 238.4 418.593c163.199 0 242.399 -131.84 242.399 -404.584c0 -144.2 -20 -246.376 -60 -320.536c0 -0.823242 -0.799805 -0.823242 -0.799805 -1.64746l57.5996 -73.3359c3.2002 -4.12012 4 -10.7129 1.60059 -15.6562
c-2.40039 -4.94434 -7.2002 -8.24023 -12.7998 -8.24023z" />
    <glyph glyph-name="r" unicode="r" horiz-adv-x="558" vert-adv-y="0" 
d="M444 0h-156.8c-6.40039 0 -12 4 -13.6006 10.4004l-73.5996 273.6h-26.4004v-269.6c0 -8 -5.59961 -14.4004 -13.5996 -14.4004h-145.6c-8 0 -14.4004 6.40039 -14.4004 14.4004v362.399c0 50.4004 21.5996 72 72 72h123.2c37.5996 0 62.3994 6.40039 62.3994 104
c0 68.7998 -17.5996 96.7998 -62.3994 96.7998h-21.6006v-121.6c0 -8 -5.59961 -14.4004 -13.5996 -14.4004s-14.4004 6.40039 -14.4004 14.4004v136c0 8 6.40039 14.4004 14.4004 14.4004h35.2002c91.2002 0 91.2002 -94.4004 91.2002 -125.601
c0 -97.5996 -24.8008 -132.8 -91.2002 -132.8h-123.2c-34.4004 0 -43.2002 -8.7998 -43.2002 -43.2002v-348h116.8v270.4c0 8 6.40039 14.3994 14.4004 14.3994h51.2002c4 0 7.2002 -2.39941 9.59961 -4.7998c1.60059 -1.59961 4 -4.7998 4 -7.2002l73.6006 -272.8h125.6
l-96.7998 294.4c-0.799805 1.59961 -0.799805 4 -0.799805 6.39941c0 4 3.19922 8 6.39941 10.4004c3.2002 1.59961 6.40039 4.7998 9.60059 7.2002c42.3994 34.3994 69.5996 108.8 69.5996 193.6c0 66.4004 -14.4004 121.601 -42.4004 164
c-42.3994 66.4004 -106.399 66.4004 -174.399 66.4004h-166.4v-262.4c0 -8 -6.39941 -14.3994 -14.3994 -14.3994s-14.4004 6.39941 -14.4004 14.3994v276.8c0 8 6.40039 14.4004 14.4004 14.4004h180.8c68.7998 0 148 -0.799805 198.399 -80
c31.2002 -47.2002 47.2002 -107.2 47.2002 -179.2c0 -94.3994 -30.3994 -175.2 -80 -216c-0.799805 -0.799805 -2.39941 -1.59961 -3.2002 -2.39941l100 -304c1.60059 -4 0 -8.80078 -2.39941 -12.8008c-2.40039 -4 -6.40039 -5.59961 -11.2002 -5.59961z" />
    <glyph glyph-name="s" unicode="s" horiz-adv-x="556" vert-adv-y="0" 
d="M225.6 0c-168.8 0 -205.6 133.6 -224.8 204.8l-0.799805 3.2002c-1.59961 7.2002 2.40039 14.4004 8.7998 16.7998l120 48c4 1.60059 8 0.799805 12 -0.799805s6.40039 -5.59961 7.2002 -9.59961c9.59961 -44 20.7998 -84 58.4004 -95.2002
c19.1992 -5.60059 37.5996 -3.2002 52 8c16 12 24 31.2002 24 52.7998c0 41.5996 -24 59.2002 -50.4004 72c-7.2002 3.2002 -9.59961 12 -6.40039 19.2002c3.2002 7.2002 12 9.59961 19.2002 6.39941c31.2002 -15.1992 66.4004 -40 66.4004 -97.5996
c0 -31.2002 -13.6006 -59.2002 -36 -76c-21.6006 -16.7998 -48.7998 -20.7998 -76.7998 -12.7998c-49.6006 14.3994 -66.4004 63.2002 -75.2002 100l-91.2002 -36.7998c19.2002 -68.8008 53.5996 -173.601 193.6 -173.601c40.8008 0 79.2002 8 106.4 20.7998
c59.2002 28.8008 97.5996 98.4004 95.2002 173.601c-2.40039 67.2002 -37.6006 120.8 -92.7998 143.2c-29.6006 12 -62.4004 20 -95.2002 27.1992c-94.4004 20.8008 -192.8 42.4004 -214.4 162.4c-14.3994 79.2002 15.2002 134.4 41.6006 166.4
c40.7998 48.7998 104 77.5996 169.6 77.5996c104 0 178.4 -64 210.4 -180c1.59961 -6.40039 -1.60059 -13.5996 -8 -16.7998l-112 -52.7998c-4 -1.60059 -8 -1.60059 -12 0c-4 1.59961 -7.2002 5.59961 -8 9.59961c-6.40039 28 -17.6006 61.5996 -45.6006 72.7998
c-25.5996 10.4004 -52 -1.59961 -64.7998 -27.2002c-14.4004 -29.5996 -5.59961 -62.3994 24 -83.1992c6.40039 -4.80078 8.7998 -13.6006 4 -20c-4.7998 -6.40039 -14.4004 -8 -20.7998 -3.2002c-41.6006 28.7998 -54.4004 76.7998 -33.6006 119.2
c19.2002 40 63.2002 56.7998 102.4 40.7998c33.5996 -13.6006 48.7998 -44.7998 57.5996 -75.2002l85.6006 40c-21.6006 69.5996 -69.6006 147.2 -179.2 147.2c-56.7998 0 -112 -24.7998 -147.2 -67.2002c-22.3994 -27.2002 -48 -74.4004 -35.2002 -142.4
c18.4004 -100.8 103.2 -120 192 -140c33.6006 -7.19922 68.8008 -15.1992 100 -28c66.4004 -26.3994 108 -89.5996 110.4 -169.6c3.2002 -86.4004 -41.5996 -167.2 -111.2 -200.8c-41.5996 -20 -92.7998 -23.2002 -119.2 -23.2002z" />
    <glyph glyph-name="t" unicode="t" horiz-adv-x="509" vert-adv-y="0" 
d="M276 0h-145.6c-8 0 -14.4004 6.40039 -14.4004 14.4004v533.6c0 8 6.40039 14.4004 14.4004 14.4004s14.3994 -6.40039 14.3994 -14.4004v-519.2h116.8v546.4c0 49.5996 -18.3994 53.5996 -46.3994 53.5996h-200.8c-8 0 -14.4004 6.40039 -14.4004 14.4004v142.399
c0 8 6.40039 14.4004 14.4004 14.4004h380.8c8 0 14.3994 -6.40039 14.3994 -14.4004v-145.6c0 -8 -6.39941 -14.4004 -14.3994 -14.4004h-37.6006c-8 0 -14.3994 6.40039 -14.3994 14.4004s6.39941 14.4004 14.3994 14.4004h23.2002v116.8h-352v-113.601h186.4
c35.2002 0 75.2002 -9.59961 75.2002 -82.3994v-560.8c0 -8 -6.40039 -14.4004 -14.4004 -14.4004z" />
    <glyph glyph-name="u" unicode="u" horiz-adv-x="532" vert-adv-y="0" 
d="M416.8 800c8 0 15.2002 -6.40039 15.2002 -14.4004v-501.6c0 -155.2 -12.7998 -284 -161.6 -284h-0.800781c-60.7998 0 -125.6 51.2002 -125.6 164v608h-115.2v-488c0 -134.4 25.6006 -204.8 84.7998 -236c7.2002 -3.2002 8.80078 -12 4.80078 -18.4004
c-4 -6.39941 -12 -10.3994 -19.2002 -6.39941c-69.6006 36.7998 -99.2002 114.399 -99.2002 260.8v501.6c0 8 6.40039 14.4004 14.4004 14.4004h144c8 0 14.3994 -6.40039 14.3994 -14.4004v-621.6c0 -94.4004 48.7998 -136 97.6006 -136c112.8 0 132 82.4004 132 256v488
h-114.4v-483.2c0 -61.5996 -2.40039 -110.399 -28 -136c-5.59961 -5.59961 -15.2002 -6.39941 -20.7998 -0.799805c-5.60059 5.59961 -5.60059 14.4004 0 20c18.3994 18.4004 20 65.5996 20 116.8v496.8c0 8 6.39941 14.4004 14.3994 14.4004h143.2z" />
    <glyph glyph-name="v" unicode="v" horiz-adv-x="641" vert-adv-y="0" 
d="M539.2 794.4c2.39941 -3.2002 3.2002 -8 2.39941 -12c-0.799805 -4.80078 -133.6 -504.801 -145.6 -548.801c-7.2002 -24.7998 -27.2002 -42.3994 -50.4004 -42.3994c-18.3994 0 -40.7998 11.2002 -48.7998 43.2002c-13.5996 52.7998 -123.2 464.8 -142.399 536.8
h-121.601l175.2 -742.4h118.4c8 0 14.3994 -6.39941 14.3994 -14.3994s-6.39941 -14.4004 -14.3994 -14.4004h-129.601c-1.59961 0 -3.2002 0.799805 -4.7998 0.799805h-0.799805c-0.799805 0 -2.40039 1.60059 -3.2002 2.40039h-0.799805
c-0.799805 0.799805 -2.40039 2.39941 -3.2002 3.2002v0.799805c-0.799805 0.799805 -1.59961 2.39941 -1.59961 4l-182.4 771.2c-0.799805 4 0.799805 8.7998 3.2002 12c2.39941 3.19922 7.2002 5.59961 11.2002 5.59961h151.199c6.40039 0 12 -4 13.6006 -10.4004
c0.799805 -4.7998 130.399 -490.399 145.6 -548c3.2002 -13.5996 11.2002 -21.5996 20.7998 -21.5996c8.80078 0 18.4004 6.40039 22.4004 20.7998c10.4004 38.4004 116.8 440 140.8 530.4h-109.6l-72.7998 -280c-1.60059 -8 -9.60059 -12 -17.6006 -10.4004
c-8 1.60059 -12 9.60059 -10.3994 17.6006l75.1992 290.399c1.60059 6.40039 8 11.2002 14.4004 11.2002h140c4 0 8.7998 -2.40039 11.2002 -5.59961z" />
    <glyph glyph-name="w" unicode="w" horiz-adv-x="888" vert-adv-y="0" 
d="M784.8 794.4c2.40039 -3.2002 4 -7.2002 3.2002 -11.2002l-160 -772c-1.59961 -6.40039 -7.2002 -11.2002 -13.5996 -11.2002h-31.2002h-32.7998h-3.2002h-2.40039c-48 2.40039 -78.3994 40.7998 -95.2002 116v0.799805l-117.6 588.8l-68 -411.199
c-0.799805 -7.2002 -7.2002 -12 -14.4004 -12c-7.19922 0 -13.5996 5.59961 -14.3994 12l-89.6006 476.8h-113.6l156 -742.4h19.2002h0.799805h1.59961h33.6006c22.3994 0 51.2002 10.4004 69.5996 93.6006l19.2002 117.6c0.799805 8 8 12.7998 16 12
s12.7998 -8.7998 12 -16.7998l-19.2002 -118.4v-0.799805c-17.5996 -79.2002 -48 -116 -97.5996 -116h-33.6006h-1.59961h-0.799805h-30.4004c-6.39941 0 -12.7998 4.7998 -14.3994 11.2002l-162.4 771.2c-0.799805 4 0.799805 8.7998 3.2002 12
c2.39941 3.19922 7.2002 5.59961 11.2002 5.59961h143.199c7.2002 0 12.8008 -5.59961 13.6006 -12l77.5996 -408.8l68 408.8c0.799805 7.2002 6.40039 12 13.6006 12c7.19922 0.799805 13.5996 -5.59961 14.3994 -12l132.8 -665.6
c18.4004 -84 50.4004 -93.6006 72.8008 -93.6006h32.7998h19.2002l153.6 742.4h-112.8l-88 -476.8c-0.799805 -6.40039 -6.40039 -12 -13.6006 -12c-7.19922 0 -13.5996 4.7998 -14.3994 12l-78.4004 488.8c-0.799805 8 4 16 12 16.7998s15.2002 -4 16 -12l65.6006 -406.4
l74.3994 406.4c0.799805 6.40039 7.2002 12 14.4004 12h143.2c4 0 8 -2.40039 10.3994 -5.59961z" />
    <glyph glyph-name="x" unicode="x" horiz-adv-x="700" vert-adv-y="0" 
d="M585.6 0h-152.8c-5.59961 0 -10.3994 3.2002 -12.7998 8l-89.5996 174.4c-3.2002 7.19922 -1.60059 16 5.59961 19.1992c7.2002 3.2002 16.7998 0.800781 20 -6.39941l85.5996 -166.4h120l-201.6 379.2c-2.40039 4 -2.40039 8.7998 0 12.7998l180.8 350.4h-113.6
l-113.601 -225.601c-0.799805 -1.59961 -2.39941 -3.19922 -3.19922 -4c-5.60059 -5.59961 -15.2002 -5.59961 -20.8008 0c-0.799805 0.800781 -2.39941 3.2002 -2.39941 4l-115.2 225.601h-112c42.4004 -81.6006 194.4 -376 217.6 -423.2
c28.8008 -57.5996 33.6006 -85.5996 5.60059 -140l-103.2 -200c-2.40039 -4.7998 -7.2002 -8 -12.7998 -8h-152.8c-4.80078 0 -10.4004 2.40039 -12.8008 6.40039c-2.39941 4 -2.39941 10.3994 0 14.3994l159.2 318.4c3.2002 7.2002 12 10.3994 19.2002 7.2002
c7.2002 -3.2002 9.59961 -12.8008 6.40039 -20l-148.801 -297.601h120.801l99.1992 192c23.2002 44.7998 19.2002 64 -6.39941 114.4c-27.2002 53.5996 -226.4 440 -228 444c-2.40039 4 -1.60059 9.59961 0.799805 13.5996s7.2002 7.2002 12 7.2002h145.6
c5.60059 0 10.4004 -3.2002 12.8008 -8l105.6 -208.8l105.6 208.8c2.40039 4.7998 7.2002 8 12.8008 8h145.6c4.7998 0 9.59961 -3.2002 12 -7.2002s3.2002 -9.59961 0.799805 -13.5996l-188 -364.8l209.601 -393.601c2.39941 -4 2.39941 -9.59961 0 -13.5996
c-2.40039 -4 -8 -7.2002 -12.8008 -7.2002z" />
    <glyph glyph-name="y" unicode="y" horiz-adv-x="565" vert-adv-y="0" 
d="M307.2 0h-148.8c-8 0 -14.4004 6.40039 -14.4004 14.4004v328.8l-143.2 438.399c-1.59961 4 -0.799805 8.80078 1.60059 12.8008c2.39941 4 7.19922 5.59961 12 5.59961h141.6c6.40039 0 12 -4 13.5996 -9.59961c0 0 88 -256 112 -325.601
c4.80078 -14.3994 14.4004 -16.7998 22.4004 -16.7998c12 0 23.2002 6.40039 26.4004 16c14.3994 42.4004 80 244 100.8 307.2h-110.4l-32.7998 -131.2c-1.59961 -8 -9.59961 -12 -17.5996 -10.4004c-8 1.60059 -12 9.60059 -10.4004 17.6006l35.2002 141.6
c1.59961 6.40039 8 11.2002 14.3994 11.2002h141.601c4.7998 0 9.59961 -1.59961 12 -5.59961c2.39941 -4 3.2002 -8.80078 1.59961 -12.8008c-0.799805 -2.39941 -90.3994 -277.6 -107.2 -327.199c-7.19922 -20.8008 -29.5996 -36 -53.5996 -36
c-23.2002 0 -41.5996 14.3994 -49.5996 36.7998c-20.8008 61.5996 -92 268.8 -108.801 316h-112l138.4 -420.8c0 -1.60059 0.799805 -3.2002 0.799805 -4.80078v-316.8h120v309.601c0 8 6.40039 13.5996 14.4004 13.5996s14.3994 -5.59961 14.3994 -13.5996v-324
c0 -8 -6.39941 -14.4004 -14.3994 -14.4004z" />
    <glyph glyph-name="z" unicode="z" horiz-adv-x="572" vert-adv-y="0" 
d="M458.4 0h-340c-4.80078 0 -9.60059 3.2002 -12 7.2002c-2.40039 4 -2.40039 9.59961 0 13.5996l308 588.8c22.3994 44 29.5996 60.8008 29.5996 112v49.6006h-415.2v-100h267.2c4.7998 0 9.59961 -2.40039 12 -6.40039s2.40039 -10.3994 0 -14.3994
c0 0 -235.2 -432.801 -248 -456l-1.59961 -4c-12.8008 -23.2002 -29.6006 -55.2002 -29.6006 -109.601v-66.3994c0 -8 -6.39941 -14.4004 -14.3994 -14.4004s-14.4004 6.40039 -14.4004 14.4004v66.3994c0 61.6006 20 98.4004 33.5996 123.2l0.800781 3.2002
c11.1992 20 191.199 348.8 237.6 436h-257.6c-8 0 -14.4004 6.39941 -14.4004 14.3994v128c0 8 6.40039 14.4004 14.4004 14.4004h444c8 0 14.3994 -6.40039 14.3994 -14.4004v-64c0 -56 -8 -76 -32.7998 -124.8l-297.6 -568h301.6v106.4h-156.8
c-8 0 -14.4004 6.39941 -14.4004 14.3994s6.40039 14.4004 14.4004 14.4004h171.2c8 0 14.3994 -6.40039 14.3994 -14.4004v-135.199c0 -8 -6.39941 -14.4004 -14.3994 -14.4004z" />
    <glyph glyph-name="exclamdown" unicode="&#xa1;" horiz-adv-x="301" vert-adv-y="0" 
d="M186.4 29.5996c8 0 15.1992 -6.39941 15.1992 -14.3994s-7.19922 -15.2002 -15.1992 -15.2002h-114.4c-52 0 -72 20.7998 -72 77.5996c0 49.6006 24.7998 673.601 25.5996 707.2v0.799805v0.800781v2.39941c0 0.799805 0.800781 1.60059 0.800781 1.60059v0.799805
c0 0.799805 1.59961 1.59961 1.59961 2.39941c0.799805 1.60059 2.40039 3.2002 4 4c0 0 0.799805 0.800781 1.59961 0.800781l0.800781 0.799805h1.59961l1.59961 0.799805h0.800781h1.59961h120.8c8 0 14.4004 -7.2002 14.4004 -15.2002v-0.799805v-1.59961
l1.59961 -51.2002c0 -8 -6.39941 -15.2002 -14.3994 -15.2002h-0.800781c-8 0 -14.3994 6.40039 -14.3994 14.4004l-0.799805 40h-92c-3.2002 -96 -24.8008 -647.2 -24.8008 -692.801c0 -43.1992 8.80078 -48 42.4004 -48h114.4zM133.6 656.8
c33.6006 -4.7998 48 -28.7998 48.8008 -79.2002c0 -0.799805 1.59961 -40 1.59961 -54.3994l14.4004 -409.601c0 -8 -7.2002 -14.3994 -15.2002 -14.3994s-14.4004 5.59961 -14.4004 13.5996l-14.3994 408.8c0 12 -1.60059 55.2002 -1.60059 55.2002
c-0.799805 46.4004 -13.5996 50.4004 -22.3994 51.2002h-29.6006c-8 0 -15.2002 6.40039 -15.2002 14.4004s7.2002 14.3994 15.2002 14.3994h30.4004h2.39941z" />
    <glyph glyph-name="dieresis" unicode="&#xa8;" horiz-adv-x="394" vert-adv-y="0" 
d="M328.8 848c-4.47949 0 -8.95996 2.56055 -10.8799 7.04004c-2.55957 5.75977 0.640625 12.7998 6.40039 15.3604c13.4395 5.75977 23.6797 15.3594 29.4395 28.7998c6.40039 13.4395 7.04004 28.7998 1.28027 42.8799c-5.76074 14.0801 -15.3604 24.96 -29.4404 31.3594
c-14.0791 5.76074 -30.0791 5.76074 -44.1602 0.640625c-14.0791 -5.12012 -25.5996 -16 -32 -29.4404c-6.39941 -13.4395 -7.03906 -28.7998 -1.2793 -42.8799s16.6396 -24.96 30.7197 -30.7197c5.75977 -2.56055 8.32031 -9.60059 5.75977 -15.3604
c-2.55957 -5.75977 -9.59961 -8.31934 -15.3604 -5.75977c-19.8398 8.32031 -35.1992 23.6797 -42.8789 43.5195s-7.04004 41.6006 1.91992 60.8008c8.95898 19.1992 24.959 33.9199 44.7998 41.5996c19.8398 7.68066 41.6006 7.04004 61.4404 -1.2793
c40.3193 -17.9209 58.8789 -65.2812 40.96 -104.961c-8.32031 -18.5596 -23.6807 -32.6396 -42.2412 -40.3203c-1.2793 -0.639648 -3.19922 -1.2793 -4.47949 -1.2793zM108.8 848c-4.47949 0 -8.95996 2.56055 -10.8799 7.04004
c-2.55957 5.75977 0.640625 12.7998 6.40039 15.3604c13.4395 5.75977 23.6797 15.3594 29.4395 28.7998c6.40039 13.4395 7.04004 28.7998 1.28027 42.8799c-5.76074 14.0801 -15.3604 24.96 -29.4404 31.3594c-14.0791 5.76074 -30.0791 5.76074 -44.1602 0.640625
c-14.0791 -5.12012 -25.5996 -16 -32 -29.4404c-6.39941 -13.4395 -7.03906 -28.7998 -1.2793 -42.8799s16.6396 -24.96 30.7197 -30.7197c5.75977 -2.56055 8.32031 -9.60059 5.75977 -15.3604c-2.55957 -5.75977 -9.59961 -8.31934 -15.3604 -5.75977
c-19.8398 8.32031 -35.1992 23.6797 -42.8789 43.5195s-7.04004 41.6006 1.91992 60.8008c8.95898 19.1992 24.959 33.9199 44.7998 41.5996c19.8398 7.68066 41.6006 7.04004 61.4404 -1.2793c40.3193 -17.9209 58.8789 -65.2812 40.96 -104.961
c-8.32031 -18.5596 -23.6807 -32.6396 -42.2412 -40.3203c-1.2793 -0.639648 -3.19922 -1.2793 -4.47949 -1.2793z" />
    <glyph glyph-name="acute" unicode="&#xb4;" horiz-adv-x="206" vert-adv-y="0" 
d="M143.2 844c-7.2002 3.2002 -11.2002 11.2002 -8 18.4004l31.2002 70.3994l-107.2 46.4004l-25.6006 -57.6006l53.6006 -22.3994c7.2002 -3.2002 11.2002 -12 8 -19.2002s-12 -11.2002 -19.2002 -8l-66.4004 28.7998c-7.19922 3.2002 -10.3994 12 -7.19922 19.2002
l36 83.2002c3.19922 7.2002 11.1992 11.2002 18.3994 8l133.601 -57.6006c7.19922 -3.19922 10.3994 -12 7.19922 -19.1992l-36 -83.2002c-3.19922 -7.2002 -11.1992 -10.4004 -18.3994 -7.2002z" />
    <glyph glyph-name="ordmasculine" unicode="&#xba;" horiz-adv-x="260" vert-adv-y="0" 
d="M108.8 848c-4.47949 0 -8.95996 2.56055 -10.8799 7.04004c-2.55957 5.75977 0.640625 12.7998 6.40039 15.3604c13.4395 5.75977 23.6797 15.3594 29.4395 28.7998c6.40039 13.4395 7.04004 28.7998 1.28027 42.8799c-5.76074 14.0801 -15.3604 24.96 -29.4404 31.3594
c-14.0791 5.76074 -30.0791 5.76074 -44.1602 0.640625c-14.0791 -5.12012 -25.5996 -16 -32 -29.4404c-6.39941 -13.4395 -7.03906 -28.7998 -1.2793 -42.8799s16.6396 -24.96 30.7197 -30.7197c5.75977 -2.56055 8.32031 -9.60059 5.75977 -15.3604
c-2.55957 -5.75977 -9.59961 -8.31934 -15.3604 -5.75977c-19.8398 8.32031 -35.1992 23.6797 -42.8789 43.5195s-7.04004 41.6006 1.91992 60.8008c8.95898 19.1992 24.959 33.9199 44.7998 41.5996c19.8398 7.68066 41.6006 7.04004 61.4404 -1.2793
c40.3193 -17.9209 58.8789 -65.2812 40.96 -104.961c-8.32031 -18.5596 -23.6807 -32.6396 -42.2412 -40.3203c-1.2793 -0.639648 -3.19922 -1.2793 -4.47949 -1.2793z" />
    <glyph glyph-name="questiondown" unicode="&#xbf;" horiz-adv-x="515" vert-adv-y="0" 
d="M36.7998 336c-2.39941 0 -4.7998 0.799805 -7.2002 2.40039c-6.39941 4 -8 13.5996 -4 20c12.8008 18.3994 28.8008 32 44 45.5996c8 6.40039 15.2002 13.5996 23.2002 20.7998c32 30.4004 34.4004 60.7998 39.2002 114.4l0.799805 3.2002l4.7998 243.199
c0 1.60059 0.800781 4 0.800781 4.80078v0.799805c1.59961 4.7998 6.39941 8.7998 12 8.7998h1.59961h113.6c8 0 13.6006 -5.59961 13.6006 -13.5996l2.39941 -53.6006c0 -8 -5.59961 -15.2002 -13.5996 -15.2002h-0.799805c-7.2002 0 -14.4004 6.40039 -14.4004 14.4004
l-1.59961 39.2002h-84.7998l-5.60059 -234.4c-4.7998 -54.3994 -8.7998 -94.3994 -48 -132c-8 -8 -16.7998 -15.2002 -24.7998 -22.3994c-14.4004 -12.8008 -27.2002 -24 -38.4004 -40c-2.39941 -4 -8 -6.40039 -12.7998 -6.40039zM415.2 252
c3.2002 -81.5996 -16.7998 -144.8 -59.2002 -188.8c-56.7998 -59.2002 -135.2 -63.2002 -158.4 -63.2002c-33.5996 0 -144.8 8.7998 -188.8 124v0.799805c-38.3994 137.601 62.4004 182.4 122.4 208.8c12 4.80078 21.5996 10.4004 28.7998 14.4004
c87.2002 51.2002 96.7998 96.7998 96.7998 180.8v50.4004c0 36 -9.59961 45.5996 -16 48.7998h-32.7998c-8 0 -14.4004 6.40039 -14.4004 14.4004s6.40039 14.3994 14.4004 14.3994h36c1.59961 0 4 -0.799805 5.59961 -1.59961c24.8008 -10.4004 36 -35.2002 36 -76
v-50.4004c0 -97.5996 -16 -149.6 -111.199 -205.6c-8.80078 -4.7998 -19.2002 -9.60059 -32 -15.2002c-58.4004 -25.5996 -137.601 -60.7998 -106.4 -174.4c37.5996 -97.5996 132.8 -104.8 161.6 -104.8c20 0 88.8008 4 137.601 54.4004c34.3994 36 52 89.5996 52 156.8
l-99.2002 15.2002c-3.2002 -68.7998 -10.4004 -121.601 -78.4004 -121.601c-45.5996 0 -67.1992 32.8008 -67.1992 99.2002c0 8 6.39941 14.4004 14.3994 14.4004s13.6006 -6.40039 13.6006 -14.4004c0 -70.3994 25.5996 -70.3994 39.1992 -70.3994
c42.4004 0 47.2002 20.7998 51.2002 110.399c0 4 1.60059 8 4.7998 10.4004c3.2002 2.39941 7.2002 4 11.2002 3.2002l126.4 -20c6.39941 -0.800781 12 -8 12 -14.4004z" />
    <glyph glyph-name="Agrave" unicode="&#xc0;" horiz-adv-x="633" vert-adv-y="0" 
d="M341.6 831.2c-8 1.59961 -12.7998 8.7998 -11.1992 16.7998l15.1992 74.4004l-114.399 25.5996l-12.7998 -60.7998l57.5996 -12.7998c8 -1.60059 12.7998 -8.80078 11.2002 -16.8008c-1.60059 -8 -8.7998 -12.7998 -16.7998 -11.1992l-71.2002 16
c-8 1.59961 -12.7998 8.7998 -11.2002 16.7998l17.5996 88c1.60059 8 8.80078 12.7998 16.8008 11.2002l144 -32c8 -1.60059 12 -8 10.3994 -16l-18.3994 -88.8008c-1.60059 -8 -8.80078 -12 -16.8008 -10.3994zM553.6 16.7998c0 0 0 -8.7998 -2.39941 -12
c-2.40039 -3.2002 -7.2002 -4.7998 -11.2002 -4.7998h-145.6h-4c-1.60059 0 -4 1.59961 -5.60059 2.40039c-1.59961 1.59961 -2.39941 4 -3.2002 5.59961c0 0.799805 -1.59961 3.2002 -1.59961 4l-20.7998 110.4l-8 44h-63.2002c-8 0 -14.4004 6.39941 -14.4004 14.3994
s6.40039 14.4004 14.4004 14.4004h73.5996c7.2002 0.799805 15.2002 -4.7998 16 -12l9.60059 -56l18.3994 -99.2002h116l-65.5996 273.6l-112.8 468.801h-132l-112 -468.801l-65.6006 -273.6h116.801l40 220c8 44 25.5996 71.2002 84 71.2002h1.59961h1.59961h44.8008
l-44.8008 242.399l-31.1992 -169.6c-1.60059 -8 -8.80078 -12.7998 -16.8008 -11.2002c-8 1.60059 -13.5996 8.7998 -12 16.7998l45.6006 245.601c0.799805 6.39941 7.2002 12 14.3994 12c7.2002 0 12.8008 -5.60059 13.6006 -12l62.3994 -335.2v-1.59961v-4.80078
c0 -1.59961 -2.39941 -4 -3.19922 -5.59961c-0.800781 -1.59961 -3.2002 -3.2002 -4.80078 -4c-1.59961 -0.799805 -3.19922 -0.799805 -4.7998 -0.799805h-1.59961h-61.6006h-1.59961h-1.59961c-40 0 -49.6006 -12 -56 -48.7998l-42.4004 -230.4
c0 -0.799805 -0.799805 -3.2002 -0.799805 -4c-0.799805 -1.59961 -2.40039 -4 -4 -4.7998c-1.60059 -1.60059 -4 -3.2002 -5.60059 -3.2002h-4h-146.399c-4 0 -8.7998 1.59961 -11.2002 4.7998s-4 8 -3.2002 12l69.6006 291.2l115.199 480.8
c1.60059 6.40039 8 11.2002 14.4004 11.2002h154.4c6.39941 0 12 -4.7998 13.5996 -11.2002l115.2 -480z" />
    <glyph glyph-name="Aacute" unicode="&#xc1;" horiz-adv-x="633" vert-adv-y="0" 
d="M369.6 883.2c-7.19922 -2.40039 -16 0.799805 -19.1992 8l-28.8008 70.3994l-108.8 -43.1992l23.2002 -56.8008l54.4004 21.6006c7.19922 2.39941 16 -0.799805 19.1992 -8c3.2002 -7.2002 -1.59961 -16 -8.7998 -18.4004l-67.2002 -26.3994
c-7.19922 -2.40039 -16 0 -19.1992 7.19922l-33.6006 84c-3.2002 7.2002 0.799805 16 8 18.4004l136.8 52.7998c7.2002 2.40039 14.4004 -0.799805 17.6006 -8l34.3994 -84c3.2002 -7.2002 -0.799805 -15.2002 -8 -17.5996zM553.6 16.7998c0 0 0 -8.7998 -2.39941 -12
c-2.40039 -3.2002 -7.2002 -4.7998 -11.2002 -4.7998h-145.6h-4c-1.60059 0 -4 1.59961 -5.60059 2.40039c-1.59961 1.59961 -2.39941 4 -3.2002 5.59961c0 0.799805 -1.59961 3.2002 -1.59961 4l-20.7998 110.4l-8 44h-63.2002c-8 0 -14.4004 6.39941 -14.4004 14.3994
s6.40039 14.4004 14.4004 14.4004h73.5996c7.2002 0.799805 15.2002 -4.7998 16 -12l9.60059 -56l18.3994 -99.2002h116l-65.5996 273.6l-112.8 468.801h-132l-112 -468.801l-65.6006 -273.6h116.801l40 220c8 44 25.5996 71.2002 84 71.2002h1.59961h1.59961h44.8008
l-44.8008 242.399l-31.1992 -169.6c-1.60059 -8 -8.80078 -12.7998 -16.8008 -11.2002c-8 1.60059 -13.5996 8.7998 -12 16.7998l45.6006 245.601c0.799805 6.39941 7.2002 12 14.3994 12c7.2002 0 12.8008 -5.60059 13.6006 -12l62.3994 -335.2v-1.59961v-4.80078
c0 -1.59961 -2.39941 -4 -3.19922 -5.59961c-0.800781 -1.59961 -3.2002 -3.2002 -4.80078 -4c-1.59961 -0.799805 -3.19922 -0.799805 -4.7998 -0.799805h-1.59961h-61.6006h-1.59961h-1.59961c-40 0 -49.6006 -12 -56 -48.7998l-42.4004 -230.4
c0 -0.799805 -0.799805 -3.2002 -0.799805 -4c-0.799805 -1.59961 -2.40039 -4 -4 -4.7998c-1.60059 -1.60059 -4 -3.2002 -5.60059 -3.2002h-4h-146.399c-4 0 -8.7998 1.59961 -11.2002 4.7998s-4 8 -3.2002 12l69.6006 291.2l115.199 480.8
c1.60059 6.40039 8 11.2002 14.4004 11.2002h154.4c6.39941 0 12 -4.7998 13.5996 -11.2002l115.2 -480z" />
    <glyph glyph-name="Adieresis" unicode="&#xc4;" horiz-adv-x="633" vert-adv-y="0" 
d="M412.8 848c-4.47949 0 -8.95996 2.56055 -10.8799 7.04004c-2.55957 5.75977 0.640625 12.7998 6.40039 15.3604c13.4395 5.75977 23.6797 15.3594 29.4395 28.7998c6.40039 13.4395 7.04004 28.7998 1.28027 42.8799c-5.76074 14.0801 -15.3604 24.96 -29.4404 31.3594
c-14.0791 5.76074 -30.0791 5.76074 -44.1602 0.640625c-14.0791 -5.12012 -25.5996 -16 -32 -29.4404c-6.39941 -13.4395 -7.03906 -28.7998 -1.2793 -42.8799s16.6396 -24.96 30.7197 -30.7197c5.75977 -2.56055 8.32031 -9.60059 5.75977 -15.3604
c-2.55957 -5.75977 -9.59961 -8.31934 -15.3604 -5.75977c-19.8398 8.32031 -35.1992 23.6797 -42.8789 43.5195s-7.04004 41.6006 1.91992 60.8008c8.95898 19.1992 24.959 33.9199 44.7998 41.5996c19.8398 7.68066 41.6006 7.04004 61.4404 -1.2793
c40.3193 -17.9209 58.8789 -65.2812 40.96 -104.961c-8.32031 -18.5596 -23.6807 -32.6396 -42.2412 -40.3203c-1.2793 -0.639648 -3.19922 -1.2793 -4.47949 -1.2793zM192.8 848c-4.47949 0 -8.95996 2.56055 -10.8799 7.04004
c-2.55957 5.75977 0.640625 12.7998 6.40039 15.3604c13.4395 5.75977 23.6797 15.3594 29.4395 28.7998c6.40039 13.4395 7.04004 28.7998 1.28027 42.8799c-5.76074 14.0801 -15.3604 24.96 -29.4404 31.3594c-14.0791 5.76074 -30.0791 5.76074 -44.1602 0.640625
c-14.0791 -5.12012 -25.5996 -16 -32 -29.4404c-6.39941 -13.4395 -7.03906 -28.7998 -1.2793 -42.8799s16.6396 -24.96 30.7197 -30.7197c5.75977 -2.56055 8.32031 -9.60059 5.75977 -15.3604c-2.55957 -5.75977 -9.59961 -8.31934 -15.3604 -5.75977
c-19.8398 8.32031 -35.1992 23.6797 -42.8789 43.5195s-7.04004 41.6006 1.91992 60.8008c8.95898 19.1992 24.959 33.9199 44.7998 41.5996c19.8398 7.68066 41.6006 7.04004 61.4404 -1.2793c40.3193 -17.9209 58.8789 -65.2812 40.96 -104.961
c-8.32031 -18.5596 -23.6807 -32.6396 -42.2412 -40.3203c-1.2793 -0.639648 -3.19922 -1.2793 -4.47949 -1.2793zM553.6 16.7998c0 0 0 -8.7998 -2.39941 -12c-2.40039 -3.2002 -7.2002 -4.7998 -11.2002 -4.7998h-145.6h-4c-1.60059 0 -4 1.59961 -5.60059 2.40039
c-1.59961 1.59961 -2.39941 4 -3.2002 5.59961c0 0.799805 -1.59961 3.2002 -1.59961 4l-20.7998 110.4l-8 44h-63.2002c-8 0 -14.4004 6.39941 -14.4004 14.3994s6.40039 14.4004 14.4004 14.4004h73.5996c7.2002 0.799805 15.2002 -4.7998 16 -12l9.60059 -56
l18.3994 -99.2002h116l-65.5996 273.6l-112.8 468.801h-132l-112 -468.801l-65.6006 -273.6h116.801l40 220c8 44 25.5996 71.2002 84 71.2002h1.59961h1.59961h44.8008l-44.8008 242.399l-31.1992 -169.6c-1.60059 -8 -8.80078 -12.7998 -16.8008 -11.2002
c-8 1.60059 -13.5996 8.7998 -12 16.7998l45.6006 245.601c0.799805 6.39941 7.2002 12 14.3994 12c7.2002 0 12.8008 -5.60059 13.6006 -12l62.3994 -335.2v-1.59961v-4.80078c0 -1.59961 -2.39941 -4 -3.19922 -5.59961c-0.800781 -1.59961 -3.2002 -3.2002 -4.80078 -4
c-1.59961 -0.799805 -3.19922 -0.799805 -4.7998 -0.799805h-1.59961h-61.6006h-1.59961h-1.59961c-40 0 -49.6006 -12 -56 -48.7998l-42.4004 -230.4c0 -0.799805 -0.799805 -3.2002 -0.799805 -4c-0.799805 -1.59961 -2.40039 -4 -4 -4.7998
c-1.60059 -1.60059 -4 -3.2002 -5.60059 -3.2002h-4h-146.399c-4 0 -8.7998 1.59961 -11.2002 4.7998s-4 8 -3.2002 12l69.6006 291.2l115.199 480.8c1.60059 6.40039 8 11.2002 14.4004 11.2002h154.4c6.39941 0 12 -4.7998 13.5996 -11.2002l115.2 -480z" />
    <glyph glyph-name="Ccedilla" unicode="&#xc7;" horiz-adv-x="581" vert-adv-y="0" 
d="M204.8 599.2c-19.2002 -52 -20 -172.8 -20 -212v-76.7998v-0.800781c0 -4.7998 0.799805 -29.5996 1.60059 -56.7998c0.799805 -28 0.799805 -56.7998 0.799805 -66.3994l8 -249.601c0 -19.2002 15.2002 -33.5996 33.5996 -33.5996
c18.4004 0 33.6006 15.2002 33.6006 33.5996v76c0 5.60059 3.19922 10.4004 7.19922 12.7998c2.40039 1.60059 5.60059 3.2002 8.80078 3.2002c132 0 161.6 171.2 168 244l-124.801 8.7998c0 -3.19922 -0.799805 -7.19922 -0.799805 -11.1992
c-0.799805 -44 -1.59961 -105.601 -42.3994 -133.601c-6.40039 -4.7998 -15.2002 -2.39941 -20 4c-4.80078 6.40039 -2.40039 15.2002 4 20c28.7998 20 28.7998 72 29.5996 109.601c0 10.3994 0.799805 20 1.59961 28c0.800781 8 7.2002 14.3994 15.2002 13.5996
l154.4 -11.2002c8 0 12.7998 -7.2002 12.7998 -15.2002c-4 -65.5996 -30.4004 -274.399 -184.8 -285.6v-63.2002c0 -34.3994 -28 -62.3994 -62.4004 -62.3994c-34.3994 0 -62.3994 28 -62.3994 62.3994l-8 248.8c0 9.60059 0 38.4004 -0.800781 66.4004
c-0.799805 27.2002 -1.59961 52.7998 -1.59961 57.5996v78.4004c0 70.4004 3.2002 169.6 21.5996 220.8c15.2002 42.4004 36.8008 59.2002 75.2002 59.2002h0.799805c62.4004 0 66.4004 -87.2002 68.8008 -168l129.6 11.2002c-14.4004 173.6 -83.2002 261.6 -202.4 262.399
h-0.799805c-52 0 -96 -17.5996 -129.6 -51.1992c-75.2002 -74.4004 -91.2002 -218.4 -91.2002 -326.4c0 -152.8 28 -259.2 83.2002 -316.8c5.59961 -5.60059 5.59961 -15.2002 0 -20.7998c-2.40039 -2.40039 -7.2002 -4 -10.4004 -4c-4 0 -8 1.59961 -10.3994 4
c-61.6006 64 -91.2002 174.399 -91.2002 337.6c0 113.6 17.5996 265.6 100 347.2c39.2002 39.2002 88.7998 59.2002 149.6 59.2002h1.60059c96.7998 0 214.399 -53.6006 231.199 -304c0 -8 -5.59961 -14.4004 -13.5996 -15.2002l-158.4 -12.7998
c-4 0 -7.19922 0.799805 -10.3994 3.19922c-3.2002 2.40039 -4.7998 6.40039 -4.7998 10.4004v6.40039c-1.60059 63.1992 -4.80078 148.8 -40.8008 148.8h-0.799805c-22.3994 0 -36 -6.40039 -48 -40z" />
    <glyph glyph-name="Egrave" unicode="&#xc8;" vert-adv-y="0" 
d="M261.6 831.2c-8 1.59961 -12.7998 8.7998 -11.1992 16.7998l15.1992 74.4004l-114.399 25.5996l-12.7998 -60.7998l57.5996 -12.7998c8 -1.60059 12.7998 -8.80078 11.2002 -16.8008c-1.60059 -8 -8.7998 -12.7998 -16.7998 -11.1992l-71.2002 16
c-8 1.59961 -12.7998 8.7998 -11.2002 16.7998l17.5996 88c1.60059 8 8.80078 12.7998 16.8008 11.2002l143.199 -32c8 -1.60059 12.8008 -8 11.2002 -16l-18.3994 -88.8008c-1.60059 -8 -8.80078 -12 -16.8008 -10.3994zM390.4 0h-376
c-8 0 -14.4004 6.40039 -14.4004 14.4004v254.399v0.799805c0 47.2002 38.4004 85.6006 86.4004 87.2002h1.59961h235.2v100h-160c-8 0 -14.4004 6.40039 -14.4004 14.4004v179.2c0 8 6.40039 14.3994 14.4004 14.3994h212.8v106.4h-347.2v-368
c0 -8 -6.39941 -13.6006 -14.3994 -13.6006s-14.4004 5.60059 -14.4004 13.6006v382.399c0 8 6.40039 14.4004 14.4004 14.4004h376c8 0 14.3994 -6.40039 14.3994 -14.4004v-135.199c0 -8 -6.39941 -14.4004 -14.3994 -14.4004h-212.801v-150.4h159.2
c8 0 14.4004 -6.39941 14.4004 -14.3994v-128.8c0 -8 -6.40039 -13.6006 -14.4004 -13.6006h-247.2c-33.5996 0 -60.7998 -27.2002 -60.7998 -60v-0.799805v-239.2h347.2v106.4h-212.8c-8 0 -14.4004 6.39941 -14.4004 14.3994v99.2002c0 8 6.40039 14.4004 14.4004 14.4004
s14.3994 -6.40039 14.3994 -14.4004v-84.7998h212.801c8 0 14.3994 -6.40039 14.3994 -14.4004v-135.199c0 -8 -6.39941 -14.4004 -14.3994 -14.4004z" />
    <glyph glyph-name="Eacute" unicode="&#xc9;" vert-adv-y="0" 
d="M289.6 883.2c-7.19922 -2.40039 -16 0.799805 -19.1992 8l-28.8008 70.3994l-108.8 -43.1992l23.2002 -56.8008l54.4004 21.6006c7.19922 2.39941 16 -0.799805 19.1992 -8c3.2002 -7.2002 -0.799805 -16 -8 -18.4004l-68.7998 -26.3994
c-7.2002 -2.40039 -15.2002 0 -18.3994 7.19922l-34.4004 84c-3.2002 7.2002 1.59961 16 8.7998 18.4004l136.8 52.7998c7.2002 2.40039 15.2002 -0.799805 18.4004 -8l33.5996 -84c3.2002 -7.2002 -0.799805 -15.2002 -8 -17.5996zM390.4 0h-376
c-8 0 -14.4004 6.40039 -14.4004 14.4004v254.399v0.799805c0 47.2002 38.4004 85.6006 86.4004 87.2002h1.59961h235.2v100h-160c-8 0 -14.4004 6.40039 -14.4004 14.4004v179.2c0 8 6.40039 14.3994 14.4004 14.3994h212.8v106.4h-347.2v-368
c0 -8 -6.39941 -13.6006 -14.3994 -13.6006s-14.4004 5.60059 -14.4004 13.6006v382.399c0 8 6.40039 14.4004 14.4004 14.4004h376c8 0 14.3994 -6.40039 14.3994 -14.4004v-135.199c0 -8 -6.39941 -14.4004 -14.3994 -14.4004h-212.801v-150.4h159.2
c8 0 14.4004 -6.39941 14.4004 -14.3994v-128.8c0 -8 -6.40039 -13.6006 -14.4004 -13.6006h-247.2c-33.5996 0 -60.7998 -27.2002 -60.7998 -60v-0.799805v-239.2h347.2v106.4h-212.8c-8 0 -14.4004 6.39941 -14.4004 14.3994v99.2002c0 8 6.40039 14.4004 14.4004 14.4004
s14.3994 -6.40039 14.3994 -14.4004v-84.7998h212.801c8 0 14.3994 -6.40039 14.3994 -14.4004v-135.199c0 -8 -6.39941 -14.4004 -14.3994 -14.4004z" />
    <glyph glyph-name="Edieresis" unicode="&#xcb;" vert-adv-y="0" 
d="M345.8 848c-4.47949 0 -8.95996 2.56055 -10.8799 7.04004c-2.55957 5.75977 0.640625 12.7998 6.40039 15.3604c13.4395 5.75977 23.6797 15.3594 29.4395 28.7998c6.40039 13.4395 7.04004 28.7998 1.28027 42.8799c-5.76074 14.0801 -15.3604 24.96 -29.4404 31.3594
c-14.0791 5.76074 -30.0791 5.76074 -44.1602 0.640625c-14.0791 -5.12012 -25.5996 -16 -32 -29.4404c-6.39941 -13.4395 -7.03906 -28.7998 -1.2793 -42.8799s16.6396 -24.96 30.7197 -30.7197c5.75977 -2.56055 8.32031 -9.60059 5.75977 -15.3604
c-2.55957 -5.75977 -9.59961 -8.31934 -15.3604 -5.75977c-19.8398 8.32031 -35.1992 23.6797 -42.8789 43.5195s-7.04004 41.6006 1.91992 60.8008c8.95898 19.1992 24.959 33.9199 44.7998 41.5996c19.8398 7.68066 41.6006 7.04004 61.4404 -1.2793
c40.3193 -17.9209 58.8789 -65.2812 40.96 -104.961c-8.32031 -18.5596 -23.6807 -32.6396 -42.2412 -40.3203c-1.2793 -0.639648 -3.19922 -1.2793 -4.47949 -1.2793zM125.8 848c-4.47949 0 -8.95996 2.56055 -10.8799 7.04004
c-2.55957 5.75977 0.640625 12.7998 6.40039 15.3604c13.4395 5.75977 23.6797 15.3594 29.4395 28.7998c6.40039 13.4395 7.04004 28.7998 1.28027 42.8799c-5.76074 14.0801 -15.3604 24.96 -29.4404 31.3594c-14.0791 5.76074 -30.0791 5.76074 -44.1602 0.640625
c-14.0791 -5.12012 -25.5996 -16 -32 -29.4404c-6.39941 -13.4395 -7.03906 -28.7998 -1.2793 -42.8799s16.6396 -24.96 30.7197 -30.7197c5.75977 -2.56055 8.32031 -9.60059 5.75977 -15.3604c-2.55957 -5.75977 -9.59961 -8.31934 -15.3604 -5.75977
c-19.8398 8.32031 -35.1992 23.6797 -42.8789 43.5195s-7.04004 41.6006 1.91992 60.8008c8.95898 19.1992 24.959 33.9199 44.7998 41.5996c19.8398 7.68066 41.6006 7.04004 61.4404 -1.2793c40.3193 -17.9209 58.8789 -65.2812 40.96 -104.961
c-8.32031 -18.5596 -23.6807 -32.6396 -42.2412 -40.3203c-1.2793 -0.639648 -3.19922 -1.2793 -4.47949 -1.2793zM390.4 0h-376c-8 0 -14.4004 6.40039 -14.4004 14.4004v254.399v0.799805c0 47.2002 38.4004 85.6006 86.4004 87.2002h1.59961h235.2v100h-160
c-8 0 -14.4004 6.40039 -14.4004 14.4004v179.2c0 8 6.40039 14.3994 14.4004 14.3994h212.8v106.4h-347.2v-368c0 -8 -6.39941 -13.6006 -14.3994 -13.6006s-14.4004 5.60059 -14.4004 13.6006v382.399c0 8 6.40039 14.4004 14.4004 14.4004h376
c8 0 14.3994 -6.40039 14.3994 -14.4004v-135.199c0 -8 -6.39941 -14.4004 -14.3994 -14.4004h-212.801v-150.4h159.2c8 0 14.4004 -6.39941 14.4004 -14.3994v-128.8c0 -8 -6.40039 -13.6006 -14.4004 -13.6006h-247.2c-33.5996 0 -60.7998 -27.2002 -60.7998 -60
v-0.799805v-239.2h347.2v106.4h-212.8c-8 0 -14.4004 6.39941 -14.4004 14.3994v99.2002c0 8 6.40039 14.4004 14.4004 14.4004s14.3994 -6.40039 14.3994 -14.4004v-84.7998h212.801c8 0 14.3994 -6.40039 14.3994 -14.4004v-135.199
c0 -8 -6.39941 -14.4004 -14.3994 -14.4004z" />
    <glyph glyph-name="Igrave" unicode="&#xcc;" horiz-adv-x="278" vert-adv-y="0" 
d="M143.2 831.2c-8 1.59961 -12.7998 8.7998 -11.2002 16.7998l15.2002 74.4004l-114.4 25.5996l-12.7998 -60.7998l57.5996 -12.7998c8 -1.60059 12.8008 -8.80078 11.2002 -16.8008c-1.59961 -8 -8.7998 -12.7998 -16.7998 -11.1992l-71.2002 16
c-8 1.59961 -12.7998 8.7998 -11.2002 16.7998l17.6006 88c1.59961 8 8.7998 12.7998 16.7998 11.2002l143.2 -32c8 -1.60059 12.7998 -8 11.2002 -16l-18.4004 -88.8008c-1.59961 -8 -8.7998 -12 -16.7998 -10.3994zM158.4 0h-144c-8 0 -14.4004 6.40039 -14.4004 14.4004
v534.399c0 72.7998 40.7998 82.4004 75.2002 82.4004h17.5996c8 0 14.4004 -6.40039 14.4004 -14.4004s-6.40039 -14.3994 -14.4004 -14.3994h-17.5996c-28 0 -46.4004 -4 -46.4004 -53.6006v-520h116v742.4h-116v-72.7998c0 -8 -6.39941 -14.4004 -14.3994 -14.4004
s-14.4004 6.40039 -14.4004 14.4004v87.1992c0 8 6.40039 14.4004 14.4004 14.4004h144c8 0 14.3994 -6.40039 14.3994 -14.4004v-771.199c0 -8 -6.39941 -14.4004 -14.3994 -14.4004z" />
    <glyph glyph-name="Iacute" unicode="&#xcd;" horiz-adv-x="289" vert-adv-y="0" 
d="M180 883.2c-7.2002 -2.40039 -16 0.799805 -19.2002 8l-28 70.3994l-109.6 -43.1992l23.2002 -56.8008l54.3994 21.6006c7.2002 2.39941 16 -0.799805 19.2002 -8s-0.799805 -16 -8 -18.4004l-68 -26.3994c-7.2002 -2.40039 -16 0 -19.2002 7.19922l-33.5996 84
c-3.2002 7.2002 0.799805 16 8 18.4004l136.8 52.7998c7.2002 2.40039 14.4004 -0.799805 17.5996 -8l34.4004 -84c3.2002 -7.2002 -0.799805 -15.2002 -8 -17.5996zM158.4 0h-144c-8 0 -14.4004 6.40039 -14.4004 14.4004v534.399
c0 72.7998 40.7998 82.4004 75.2002 82.4004h17.5996c8 0 14.4004 -6.40039 14.4004 -14.4004s-6.40039 -14.3994 -14.4004 -14.3994h-17.5996c-28 0 -46.4004 -4 -46.4004 -53.6006v-520h116v742.4h-116v-72.7998c0 -8 -6.39941 -14.4004 -14.3994 -14.4004
s-14.4004 6.40039 -14.4004 14.4004v87.1992c0 8 6.40039 14.4004 14.4004 14.4004h144c8 0 14.3994 -6.40039 14.3994 -14.4004v-771.199c0 -8 -6.39941 -14.4004 -14.3994 -14.4004z" />
    <glyph glyph-name="Idieresis" unicode="&#xcf;" horiz-adv-x="440" vert-adv-y="0" 
d="M301.8 848c-4.47949 0 -8.95996 2.56055 -10.8799 7.04004c-2.55957 5.75977 0.640625 12.7998 6.40039 15.3604c13.4395 5.75977 23.6797 15.3594 29.4395 28.7998c6.40039 13.4395 7.04004 28.7998 1.28027 42.8799c-5.76074 14.0801 -15.3604 24.96 -29.4404 31.3594
c-14.0791 5.76074 -30.0791 5.76074 -44.1602 0.640625c-14.0791 -5.12012 -25.5996 -16 -32 -29.4404c-6.39941 -13.4395 -7.03906 -28.7998 -1.2793 -42.8799s16.6396 -24.96 30.7197 -30.7197c5.75977 -2.56055 8.32031 -9.60059 5.75977 -15.3604
c-2.55957 -5.75977 -9.59961 -8.31934 -15.3604 -5.75977c-19.8398 8.32031 -35.1992 23.6797 -42.8789 43.5195s-7.04004 41.6006 1.91992 60.8008c8.95898 19.1992 24.959 33.9199 44.7998 41.5996c19.8398 7.68066 41.6006 7.04004 61.4404 -1.2793
c40.3193 -17.9209 58.8789 -65.2812 40.96 -104.961c-8.32031 -18.5596 -23.6807 -32.6396 -42.2412 -40.3203c-1.2793 -0.639648 -3.19922 -1.2793 -4.47949 -1.2793zM105.8 848c-4.47949 0 -8.95996 2.56055 -10.8799 7.04004
c-2.55957 5.75977 0.640625 12.7998 6.40039 15.3604c13.4395 5.75977 23.6797 15.3594 29.4395 28.7998c6.40039 13.4395 7.04004 28.7998 1.28027 42.8799c-5.76074 14.0801 -15.3604 24.96 -29.4404 31.3594c-14.0791 5.76074 -30.0791 5.76074 -44.1602 0.640625
c-14.0791 -5.12012 -25.5996 -16 -32 -29.4404c-6.39941 -13.4395 -7.03906 -28.7998 -1.2793 -42.8799s16.6396 -24.96 30.7197 -30.7197c5.75977 -2.56055 8.32031 -9.60059 5.75977 -15.3604c-2.55957 -5.75977 -9.59961 -8.31934 -15.3604 -5.75977
c-19.8398 8.32031 -35.1992 23.6797 -42.8789 43.5195s-7.04004 41.6006 1.91992 60.8008c8.95898 19.1992 24.959 33.9199 44.7998 41.5996c19.8398 7.68066 41.6006 7.04004 61.4404 -1.2793c40.3193 -17.9209 58.8789 -65.2812 40.96 -104.961
c-8.32031 -18.5596 -23.6807 -32.6396 -42.2412 -40.3203c-1.2793 -0.639648 -3.19922 -1.2793 -4.47949 -1.2793zM242.4 0h-144c-8 0 -14.4004 6.40039 -14.4004 14.4004v534.399c0 72.7998 40.7998 82.4004 75.2002 82.4004h17.5996
c8 0 14.4004 -6.40039 14.4004 -14.4004s-6.40039 -14.3994 -14.4004 -14.3994h-17.5996c-28 0 -46.4004 -4 -46.4004 -53.6006v-520h116v742.4h-116v-72.7998c0 -8 -6.39941 -14.4004 -14.3994 -14.4004s-14.4004 6.40039 -14.4004 14.4004v87.1992
c0 8 6.40039 14.4004 14.4004 14.4004h144c8 0 14.3994 -6.40039 14.3994 -14.4004v-771.199c0 -8 -6.39941 -14.4004 -14.3994 -14.4004z" />
    <glyph glyph-name="Ograve" unicode="&#xd2;" horiz-adv-x="582" vert-adv-y="0" 
d="M292 -12h-1.59961c-98.4004 0.824219 -116 75.8076 -123.2 107.943l-0.799805 5.76953c-11.2002 46.9668 -9.60059 164.8 -8.80078 243.079v44.4951c0 106.297 2.40039 186.226 16 224.953c13.6006 38.7275 35.2002 59.3271 65.6006 59.3271
c36.7998 0 56.7998 -17.3037 70.3994 -60.1514c15.2002 -48.6162 14.4004 -156.56 14.4004 -208.473c0 -24.7197 0.799805 -150.791 -8 -202.703c-4.7998 -28.8398 -13.5996 -60.1523 -40.7998 -74.1602c-7.2002 -3.2959 -16 -0.824219 -19.2002 6.59277
c-3.2002 7.41504 -0.799805 16.4795 6.40039 19.7744c12.7998 6.59277 20 21.4248 24.7998 52.7363c8 51.0889 8.7998 182.929 8.7998 197.76c0 46.1445 0 154.913 -13.5996 199.409c-10.4004 33.7832 -22.4004 39.5508 -43.2002 39.5508
c-12 0 -26.4004 -4.11914 -38.4004 -38.7275c-12.7998 -37.0791 -14.3994 -126.072 -14.3994 -215.889c0 -12.3594 -0.800781 -27.1904 -0.800781 -44.4951c-0.799805 -76.6318 -1.59961 -193.64 8.80078 -236.488l1.59961 -5.76758
c8 -33.7842 19.2002 -84.8721 96 -84.8721h1.59961c117.601 0.823242 159.2 201.88 159.2 374.096c0 266.152 -66.3994 390.576 -210.399 390.576c-145.601 0 -213.601 -119.479 -213.601 -376.568c0 -140.903 19.2002 -243.08 58.4004 -312.295
c2.39941 -3.29688 7.2002 -12.3604 16 -23.0723c4.7998 -5.76758 4 -15.6562 -1.60059 -20.6006c-5.59961 -4.94336 -15.1992 -4.94336 -20 1.64746c-10.3994 12.3604 -16 22.249 -18.3994 26.3691c-43.2002 74.9834 -63.2002 178.808 -63.2002 327.951
c0 273.568 79.2002 406.232 242.4 406.232c214.399 0 240 -239.784 240 -420.24c0 -195.287 -50.4004 -403.76 -190.4 -403.76zM301.6 831.2c-8 1.59961 -12.7998 8.7998 -11.1992 16.7998l15.1992 74.4004l-114.399 25.5996l-12 -60.7998l56.7998 -12.7998
c8 -1.60059 12.7998 -8.80078 11.2002 -16.8008c-1.60059 -8 -8.7998 -12.7998 -16.7998 -11.1992l-71.2002 16c-8 1.59961 -12.7998 8.7998 -11.2002 16.7998l17.5996 88c1.60059 8 9.60059 12.7998 17.6006 11.2002l143.2 -32c8 -1.60059 12 -8 10.3994 -16
l-18.3994 -88.8008c-1.60059 -8 -8.80078 -12 -16.8008 -10.3994z" />
    <glyph glyph-name="Oacute" unicode="&#xd3;" horiz-adv-x="582" vert-adv-y="0" 
d="M292 -12h-1.59961c-98.4004 0.824219 -116 75.8076 -123.2 107.943l-0.799805 5.76953c-11.2002 46.9668 -9.60059 164.8 -8.80078 243.079v44.4951c0 106.297 2.40039 186.226 16 224.953c13.6006 38.7275 35.2002 59.3271 65.6006 59.3271
c36.7998 0 56.7998 -17.3037 70.3994 -60.1514c15.2002 -48.6162 14.4004 -156.56 14.4004 -208.473c0 -24.7197 0.799805 -150.791 -8 -202.703c-4.7998 -28.8398 -13.5996 -60.1523 -40.7998 -74.1602c-7.2002 -3.2959 -16 -0.824219 -19.2002 6.59277
c-3.2002 7.41504 -0.799805 16.4795 6.40039 19.7744c12.7998 6.59277 20 21.4248 24.7998 52.7363c8 51.0889 8.7998 182.929 8.7998 197.76c0 46.1445 0 154.913 -13.5996 199.409c-10.4004 33.7832 -22.4004 39.5508 -43.2002 39.5508
c-12 0 -26.4004 -4.11914 -38.4004 -38.7275c-12.7998 -37.0791 -14.3994 -126.072 -14.3994 -215.889c0 -12.3594 -0.800781 -27.1904 -0.800781 -44.4951c-0.799805 -76.6318 -1.59961 -193.64 8.80078 -236.488l1.59961 -5.76758
c8 -33.7842 19.2002 -84.8721 96 -84.8721h1.59961c117.601 0.823242 159.2 201.88 159.2 374.096c0 266.152 -66.3994 390.576 -210.399 390.576c-145.601 0 -213.601 -119.479 -213.601 -376.568c0 -140.903 19.2002 -243.08 58.4004 -312.295
c2.39941 -3.29688 7.2002 -12.3604 16 -23.0723c4.7998 -5.76758 4 -15.6562 -1.60059 -20.6006c-5.59961 -4.94336 -15.1992 -4.94336 -20 1.64746c-10.3994 12.3604 -16 22.249 -18.3994 26.3691c-43.2002 74.9834 -63.2002 178.808 -63.2002 327.951
c0 273.568 79.2002 406.232 242.4 406.232c214.399 0 240 -239.784 240 -420.24c0 -195.287 -50.4004 -403.76 -190.4 -403.76zM329.6 883.2c-7.19922 -2.40039 -16 0.799805 -19.1992 8l-28 70.3994l-109.601 -43.1992l23.2002 -56.8008l54.4004 21.6006
c7.19922 2.39941 16 -0.799805 19.1992 -8c3.2002 -7.2002 -0.799805 -16 -8 -18.4004l-68 -26.3994c-7.19922 -2.40039 -16 0 -19.1992 7.19922l-33.6006 84c-3.2002 7.2002 0.799805 16 8 18.4004l136.8 52.7998c7.2002 2.40039 14.4004 -0.799805 17.6006 -8l34.3994 -84
c3.2002 -7.2002 -0.799805 -15.2002 -8 -17.5996z" />
    <glyph glyph-name="Odieresis" unicode="&#xd6;" horiz-adv-x="530" vert-adv-y="0" 
d="M375.8 848c-4.47949 0 -8.95996 2.56055 -10.8799 7.04004c-2.55957 5.75977 0.640625 12.7998 6.40039 15.3604c13.4395 5.75977 23.6797 15.3594 29.4395 28.7998c6.40039 13.4395 7.04004 28.7998 1.28027 42.8799c-5.76074 14.0801 -15.3604 24.96 -29.4404 31.3594
c-14.0791 5.76074 -30.0791 5.76074 -44.1602 0.640625c-14.0791 -5.12012 -25.5996 -16 -32 -29.4404c-6.39941 -13.4395 -7.03906 -28.7998 -1.2793 -42.8799s16.6396 -24.96 30.7197 -30.7197c5.75977 -2.56055 8.32031 -9.60059 5.75977 -15.3604
c-2.55957 -5.75977 -9.59961 -8.31934 -15.3604 -5.75977c-19.8398 8.32031 -35.1992 23.6797 -42.8789 43.5195s-7.04004 41.6006 1.91992 60.8008c8.95898 19.1992 24.959 33.9199 44.7998 41.5996c19.8398 7.68066 41.6006 7.04004 61.4404 -1.2793
c40.3193 -17.9209 58.8789 -65.2812 40.96 -104.961c-8.32031 -18.5596 -23.6807 -32.6396 -42.2412 -40.3203c-1.2793 -0.639648 -3.19922 -1.2793 -4.47949 -1.2793zM155.8 848c-4.47949 0 -8.95996 2.56055 -10.8799 7.04004
c-2.55957 5.75977 0.640625 12.7998 6.40039 15.3604c13.4395 5.75977 23.6797 15.3594 29.4395 28.7998c6.40039 13.4395 7.04004 28.7998 1.28027 42.8799c-5.76074 14.0801 -15.3604 24.96 -29.4404 31.3594c-14.0791 5.76074 -30.0791 5.76074 -44.1602 0.640625
c-14.0791 -5.12012 -25.5996 -16 -32 -29.4404c-6.39941 -13.4395 -7.03906 -28.7998 -1.2793 -42.8799s16.6396 -24.96 30.7197 -30.7197c5.75977 -2.56055 8.32031 -9.60059 5.75977 -15.3604c-2.55957 -5.75977 -9.59961 -8.31934 -15.3604 -5.75977
c-19.8398 8.32031 -35.1992 23.6797 -42.8789 43.5195s-7.04004 41.6006 1.91992 60.8008c8.95898 19.1992 24.959 33.9199 44.7998 41.5996c19.8398 7.68066 41.6006 7.04004 61.4404 -1.2793c40.3193 -17.9209 58.8789 -65.2812 40.96 -104.961
c-8.32031 -18.5596 -23.6807 -32.6396 -42.2412 -40.3203c-1.2793 -0.639648 -3.19922 -1.2793 -4.47949 -1.2793zM292 -12h-1.59961c-98.4004 0.824219 -116 75.8076 -123.2 107.943l-0.799805 5.76953c-11.2002 46.9668 -9.60059 164.8 -8.80078 243.079v44.4951
c0 106.297 2.40039 186.226 16 224.953c13.6006 38.7275 35.2002 59.3271 65.6006 59.3271c36.7998 0 56.7998 -17.3037 70.3994 -60.1514c15.2002 -48.6162 14.4004 -156.56 14.4004 -208.473c0 -24.7197 0.799805 -150.791 -8 -202.703
c-4.7998 -28.8398 -13.5996 -60.1523 -40.7998 -74.1602c-7.2002 -3.2959 -16 -0.824219 -19.2002 6.59277c-3.2002 7.41504 -0.799805 16.4795 6.40039 19.7744c12.7998 6.59277 20 21.4248 24.7998 52.7363c8 51.0889 8.7998 182.929 8.7998 197.76
c0 46.1445 0 154.913 -13.5996 199.409c-10.4004 33.7832 -22.4004 39.5508 -43.2002 39.5508c-12 0 -26.4004 -4.11914 -38.4004 -38.7275c-12.7998 -37.0791 -14.3994 -126.072 -14.3994 -215.889c0 -12.3594 -0.800781 -27.1904 -0.800781 -44.4951
c-0.799805 -76.6318 -1.59961 -193.64 8.80078 -236.488l1.59961 -5.76758c8 -33.7842 19.2002 -84.8721 96 -84.8721h1.59961c117.601 0.823242 159.2 201.88 159.2 374.096c0 266.152 -66.3994 390.576 -210.399 390.576c-145.601 0 -213.601 -119.479 -213.601 -376.568
c0 -140.903 19.2002 -243.08 58.4004 -312.295c2.39941 -3.29688 7.2002 -12.3604 16 -23.0723c4.7998 -5.76758 4 -15.6562 -1.60059 -20.6006c-5.59961 -4.94336 -15.1992 -4.94336 -20 1.64746c-10.3994 12.3604 -16 22.249 -18.3994 26.3691
c-43.2002 74.9834 -63.2002 178.808 -63.2002 327.951c0 273.568 79.2002 406.232 242.4 406.232c214.399 0 240 -239.784 240 -420.24c0 -195.287 -50.4004 -403.76 -190.4 -403.76z" />
    <glyph glyph-name="Ugrave" unicode="&#xd9;" horiz-adv-x="532" vert-adv-y="0" 
d="M269.6 831.2c-8 1.59961 -12.7998 8.7998 -11.1992 16.7998l15.1992 74.4004l-114.399 25.5996l-12 -60.7998l56.7998 -12.7998c8 -1.60059 12.7998 -8.80078 11.2002 -16.8008c-1.60059 -8 -8.7998 -12.7998 -16.7998 -11.1992l-71.2002 16
c-8 1.59961 -12.7998 8.7998 -11.2002 16.7998l17.5996 88c1.60059 8 8.80078 12.7998 16.8008 11.2002l144 -32c8 -1.60059 12 -8 10.3994 -16l-18.3994 -88.8008c-1.60059 -8 -8.80078 -12 -16.8008 -10.3994zM416.8 800c8 0 15.2002 -6.40039 15.2002 -14.4004v-501.6
c0 -155.2 -12.7998 -284 -161.6 -284h-0.800781c-60.7998 0 -125.6 51.2002 -125.6 164v608h-115.2v-488c0 -134.4 25.6006 -204.8 84.7998 -236c7.2002 -3.2002 8.80078 -12 4.80078 -18.4004c-4 -6.39941 -12 -10.3994 -19.2002 -6.39941
c-69.6006 36.7998 -99.2002 114.399 -99.2002 260.8v501.6c0 8 6.40039 14.4004 14.4004 14.4004h144c8 0 14.3994 -6.40039 14.3994 -14.4004v-621.6c0 -94.4004 48.7998 -136 97.6006 -136c112.8 0 132 82.4004 132 256v488h-114.4v-483.2
c0 -61.5996 -2.40039 -110.399 -28 -136c-5.59961 -5.59961 -15.2002 -6.39941 -20.7998 -0.799805c-5.60059 5.59961 -5.60059 14.4004 0 20c18.3994 18.4004 20 65.5996 20 116.8v496.8c0 8 6.39941 14.4004 14.3994 14.4004h143.2z" />
    <glyph glyph-name="Uacute" unicode="&#xda;" horiz-adv-x="532" vert-adv-y="0" 
d="M297.6 883.2c-7.19922 -2.40039 -16 0.799805 -19.1992 8l-28.8008 70.3994l-108.8 -43.1992l23.2002 -56.8008l54.4004 21.6006c7.19922 2.39941 16 -0.799805 19.1992 -8c3.2002 -7.2002 -0.799805 -16 -8 -18.4004l-68 -26.3994
c-7.19922 -2.40039 -16 0 -19.1992 7.19922l-33.6006 84c-3.2002 7.2002 0.799805 16 8 18.4004l136.8 52.7998c7.2002 2.40039 14.4004 -0.799805 17.6006 -8l34.3994 -84c3.2002 -7.2002 -0.799805 -15.2002 -8 -17.5996zM416.8 800
c8 0 15.2002 -6.40039 15.2002 -14.4004v-501.6c0 -155.2 -12.7998 -284 -161.6 -284h-0.800781c-60.7998 0 -125.6 51.2002 -125.6 164v608h-115.2v-488c0 -134.4 25.6006 -204.8 84.7998 -236c7.2002 -3.2002 8.80078 -12 4.80078 -18.4004
c-4 -6.39941 -12 -10.3994 -19.2002 -6.39941c-69.6006 36.7998 -99.2002 114.399 -99.2002 260.8v501.6c0 8 6.40039 14.4004 14.4004 14.4004h144c8 0 14.3994 -6.40039 14.3994 -14.4004v-621.6c0 -94.4004 48.7998 -136 97.6006 -136c112.8 0 132 82.4004 132 256v488
h-114.4v-483.2c0 -61.5996 -2.40039 -110.399 -28 -136c-5.59961 -5.59961 -15.2002 -6.39941 -20.7998 -0.799805c-5.60059 5.59961 -5.60059 14.4004 0 20c18.3994 18.4004 20 65.5996 20 116.8v496.8c0 8 6.39941 14.4004 14.3994 14.4004h143.2z" />
    <glyph glyph-name="Udieresis" unicode="&#xdc;" horiz-adv-x="532" vert-adv-y="0" 
d="M355.8 848c-4.47949 0 -8.95996 2.56055 -10.8799 7.04004c-2.55957 5.75977 0.640625 12.7998 6.40039 15.3604c13.4395 5.75977 23.6797 15.3594 29.4395 28.7998c6.40039 13.4395 7.04004 28.7998 1.28027 42.8799c-5.76074 14.0801 -15.3604 24.96 -29.4404 31.3594
c-14.0791 5.76074 -30.0791 5.76074 -44.1602 0.640625c-14.0791 -5.12012 -25.5996 -16 -32 -29.4404c-6.39941 -13.4395 -7.03906 -28.7998 -1.2793 -42.8799s16.6396 -24.96 30.7197 -30.7197c5.75977 -2.56055 8.32031 -9.60059 5.75977 -15.3604
c-2.55957 -5.75977 -9.59961 -8.31934 -15.3604 -5.75977c-19.8398 8.32031 -35.1992 23.6797 -42.8789 43.5195s-7.04004 41.6006 1.91992 60.8008c8.95898 19.1992 24.959 33.9199 44.7998 41.5996c19.8398 7.68066 41.6006 7.04004 61.4404 -1.2793
c40.3193 -17.9209 58.8789 -65.2812 40.96 -104.961c-8.32031 -18.5596 -23.6807 -32.6396 -42.2412 -40.3203c-1.2793 -0.639648 -3.19922 -1.2793 -4.47949 -1.2793zM135.8 848c-4.47949 0 -8.95996 2.56055 -10.8799 7.04004
c-2.55957 5.75977 0.640625 12.7998 6.40039 15.3604c13.4395 5.75977 23.6797 15.3594 29.4395 28.7998c6.40039 13.4395 7.04004 28.7998 1.28027 42.8799c-5.76074 14.0801 -15.3604 24.96 -29.4404 31.3594c-14.0791 5.76074 -30.0791 5.76074 -44.1602 0.640625
c-14.0791 -5.12012 -25.5996 -16 -32 -29.4404c-6.39941 -13.4395 -7.03906 -28.7998 -1.2793 -42.8799s16.6396 -24.96 30.7197 -30.7197c5.75977 -2.56055 8.32031 -9.60059 5.75977 -15.3604c-2.55957 -5.75977 -9.59961 -8.31934 -15.3604 -5.75977
c-19.8398 8.32031 -35.1992 23.6797 -42.8789 43.5195s-7.04004 41.6006 1.91992 60.8008c8.95898 19.1992 24.959 33.9199 44.7998 41.5996c19.8398 7.68066 41.6006 7.04004 61.4404 -1.2793c40.3193 -17.9209 58.8789 -65.2812 40.96 -104.961
c-8.32031 -18.5596 -23.6807 -32.6396 -42.2412 -40.3203c-1.2793 -0.639648 -3.19922 -1.2793 -4.47949 -1.2793zM416.8 800c8 0 15.2002 -6.40039 15.2002 -14.4004v-501.6c0 -155.2 -12.7998 -284 -161.6 -284h-0.800781c-60.7998 0 -125.6 51.2002 -125.6 164v608
h-115.2v-488c0 -134.4 25.6006 -204.8 84.7998 -236c7.2002 -3.2002 8.80078 -12 4.80078 -18.4004c-4 -6.39941 -12 -10.3994 -19.2002 -6.39941c-69.6006 36.7998 -99.2002 114.399 -99.2002 260.8v501.6c0 8 6.40039 14.4004 14.4004 14.4004h144
c8 0 14.3994 -6.40039 14.3994 -14.4004v-621.6c0 -94.4004 48.7998 -136 97.6006 -136c112.8 0 132 82.4004 132 256v488h-114.4v-483.2c0 -61.5996 -2.40039 -110.399 -28 -136c-5.59961 -5.59961 -15.2002 -6.39941 -20.7998 -0.799805
c-5.60059 5.59961 -5.60059 14.4004 0 20c18.3994 18.4004 20 65.5996 20 116.8v496.8c0 8 6.39941 14.4004 14.3994 14.4004h143.2z" />
    <glyph glyph-name="agrave" unicode="&#xe0;" horiz-adv-x="633" vert-adv-y="0" 
d="M341.6 831.2c-8 1.59961 -12.7998 8.7998 -11.1992 16.7998l15.1992 74.4004l-114.399 25.5996l-12.7998 -60.7998l57.5996 -12.7998c8 -1.60059 12.7998 -8.80078 11.2002 -16.8008c-1.60059 -8 -8.7998 -12.7998 -16.7998 -11.1992l-71.2002 16
c-8 1.59961 -12.7998 8.7998 -11.2002 16.7998l17.5996 88c1.60059 8 8.80078 12.7998 16.8008 11.2002l144 -32c8 -1.60059 12 -8 10.3994 -16l-18.3994 -88.8008c-1.60059 -8 -8.80078 -12 -16.8008 -10.3994zM553.6 16.7998c0 0 0 -8.7998 -2.39941 -12
c-2.40039 -3.2002 -7.2002 -4.7998 -11.2002 -4.7998h-145.6h-4c-1.60059 0 -4 1.59961 -5.60059 2.40039c-1.59961 1.59961 -2.39941 4 -3.2002 5.59961c0 0.799805 -1.59961 3.2002 -1.59961 4l-20.7998 110.4l-8 44h-63.2002c-8 0 -14.4004 6.39941 -14.4004 14.3994
s6.40039 14.4004 14.4004 14.4004h73.5996c7.2002 0.799805 15.2002 -4.7998 16 -12l9.60059 -56l18.3994 -99.2002h116l-65.5996 273.6l-112.8 468.801h-132l-112 -468.801l-65.6006 -273.6h116.801l40 220c8 44 25.5996 71.2002 84 71.2002h1.59961h1.59961h44.8008
l-44.8008 242.399l-31.1992 -169.6c-1.60059 -8 -8.80078 -12.7998 -16.8008 -11.2002c-8 1.60059 -13.5996 8.7998 -12 16.7998l45.6006 245.601c0.799805 6.39941 7.2002 12 14.3994 12c7.2002 0 12.8008 -5.60059 13.6006 -12l62.3994 -335.2v-1.59961v-4.80078
c0 -1.59961 -2.39941 -4 -3.19922 -5.59961c-0.800781 -1.59961 -3.2002 -3.2002 -4.80078 -4c-1.59961 -0.799805 -3.19922 -0.799805 -4.7998 -0.799805h-1.59961h-61.6006h-1.59961h-1.59961c-40 0 -49.6006 -12 -56 -48.7998l-42.4004 -230.4
c0 -0.799805 -0.799805 -3.2002 -0.799805 -4c-0.799805 -1.59961 -2.40039 -4 -4 -4.7998c-1.60059 -1.60059 -4 -3.2002 -5.60059 -3.2002h-4h-146.399c-4 0 -8.7998 1.59961 -11.2002 4.7998s-4 8 -3.2002 12l69.6006 291.2l115.199 480.8
c1.60059 6.40039 8 11.2002 14.4004 11.2002h154.4c6.39941 0 12 -4.7998 13.5996 -11.2002l115.2 -480z" />
    <glyph glyph-name="aacute" unicode="&#xe1;" horiz-adv-x="633" vert-adv-y="0" 
d="M369.6 883.2c-7.19922 -2.40039 -16 0.799805 -19.1992 8l-28.8008 70.3994l-108.8 -43.1992l23.2002 -56.8008l54.4004 21.6006c7.19922 2.39941 16 -0.799805 19.1992 -8c3.2002 -7.2002 -1.59961 -16 -8.7998 -18.4004l-67.2002 -26.3994
c-7.19922 -2.40039 -16 0 -19.1992 7.19922l-33.6006 84c-3.2002 7.2002 0.799805 16 8 18.4004l136.8 52.7998c7.2002 2.40039 14.4004 -0.799805 17.6006 -8l34.3994 -84c3.2002 -7.2002 -0.799805 -15.2002 -8 -17.5996zM553.6 16.7998c0 0 0 -8.7998 -2.39941 -12
c-2.40039 -3.2002 -7.2002 -4.7998 -11.2002 -4.7998h-145.6h-4c-1.60059 0 -4 1.59961 -5.60059 2.40039c-1.59961 1.59961 -2.39941 4 -3.2002 5.59961c0 0.799805 -1.59961 3.2002 -1.59961 4l-20.7998 110.4l-8 44h-63.2002c-8 0 -14.4004 6.39941 -14.4004 14.3994
s6.40039 14.4004 14.4004 14.4004h73.5996c7.2002 0.799805 15.2002 -4.7998 16 -12l9.60059 -56l18.3994 -99.2002h116l-65.5996 273.6l-112.8 468.801h-132l-112 -468.801l-65.6006 -273.6h116.801l40 220c8 44 25.5996 71.2002 84 71.2002h1.59961h1.59961h44.8008
l-44.8008 242.399l-31.1992 -169.6c-1.60059 -8 -8.80078 -12.7998 -16.8008 -11.2002c-8 1.60059 -13.5996 8.7998 -12 16.7998l45.6006 245.601c0.799805 6.39941 7.2002 12 14.3994 12c7.2002 0 12.8008 -5.60059 13.6006 -12l62.3994 -335.2v-1.59961v-4.80078
c0 -1.59961 -2.39941 -4 -3.19922 -5.59961c-0.800781 -1.59961 -3.2002 -3.2002 -4.80078 -4c-1.59961 -0.799805 -3.19922 -0.799805 -4.7998 -0.799805h-1.59961h-61.6006h-1.59961h-1.59961c-40 0 -49.6006 -12 -56 -48.7998l-42.4004 -230.4
c0 -0.799805 -0.799805 -3.2002 -0.799805 -4c-0.799805 -1.59961 -2.40039 -4 -4 -4.7998c-1.60059 -1.60059 -4 -3.2002 -5.60059 -3.2002h-4h-146.399c-4 0 -8.7998 1.59961 -11.2002 4.7998s-4 8 -3.2002 12l69.6006 291.2l115.199 480.8
c1.60059 6.40039 8 11.2002 14.4004 11.2002h154.4c6.39941 0 12 -4.7998 13.5996 -11.2002l115.2 -480z" />
    <glyph glyph-name="adieresis" unicode="&#xe4;" horiz-adv-x="633" vert-adv-y="0" 
d="M412.8 848c-4.47949 0 -8.95996 2.56055 -10.8799 7.04004c-2.55957 5.75977 0.640625 12.7998 6.40039 15.3604c13.4395 5.75977 23.6797 15.3594 29.4395 28.7998c6.40039 13.4395 7.04004 28.7998 1.28027 42.8799c-5.76074 14.0801 -15.3604 24.96 -29.4404 31.3594
c-14.0791 5.76074 -30.0791 5.76074 -44.1602 0.640625c-14.0791 -5.12012 -25.5996 -16 -32 -29.4404c-6.39941 -13.4395 -7.03906 -28.7998 -1.2793 -42.8799s16.6396 -24.96 30.7197 -30.7197c5.75977 -2.56055 8.32031 -9.60059 5.75977 -15.3604
c-2.55957 -5.75977 -9.59961 -8.31934 -15.3604 -5.75977c-19.8398 8.32031 -35.1992 23.6797 -42.8789 43.5195s-7.04004 41.6006 1.91992 60.8008c8.95898 19.1992 24.959 33.9199 44.7998 41.5996c19.8398 7.68066 41.6006 7.04004 61.4404 -1.2793
c40.3193 -17.9209 58.8789 -65.2812 40.96 -104.961c-8.32031 -18.5596 -23.6807 -32.6396 -42.2412 -40.3203c-1.2793 -0.639648 -3.19922 -1.2793 -4.47949 -1.2793zM192.8 848c-4.47949 0 -8.95996 2.56055 -10.8799 7.04004
c-2.55957 5.75977 0.640625 12.7998 6.40039 15.3604c13.4395 5.75977 23.6797 15.3594 29.4395 28.7998c6.40039 13.4395 7.04004 28.7998 1.28027 42.8799c-5.76074 14.0801 -15.3604 24.96 -29.4404 31.3594c-14.0791 5.76074 -30.0791 5.76074 -44.1602 0.640625
c-14.0791 -5.12012 -25.5996 -16 -32 -29.4404c-6.39941 -13.4395 -7.03906 -28.7998 -1.2793 -42.8799s16.6396 -24.96 30.7197 -30.7197c5.75977 -2.56055 8.32031 -9.60059 5.75977 -15.3604c-2.55957 -5.75977 -9.59961 -8.31934 -15.3604 -5.75977
c-19.8398 8.32031 -35.1992 23.6797 -42.8789 43.5195s-7.04004 41.6006 1.91992 60.8008c8.95898 19.1992 24.959 33.9199 44.7998 41.5996c19.8398 7.68066 41.6006 7.04004 61.4404 -1.2793c40.3193 -17.9209 58.8789 -65.2812 40.96 -104.961
c-8.32031 -18.5596 -23.6807 -32.6396 -42.2412 -40.3203c-1.2793 -0.639648 -3.19922 -1.2793 -4.47949 -1.2793zM553.6 16.7998c0 0 0 -8.7998 -2.39941 -12c-2.40039 -3.2002 -7.2002 -4.7998 -11.2002 -4.7998h-145.6h-4c-1.60059 0 -4 1.59961 -5.60059 2.40039
c-1.59961 1.59961 -2.39941 4 -3.2002 5.59961c0 0.799805 -1.59961 3.2002 -1.59961 4l-20.7998 110.4l-8 44h-63.2002c-8 0 -14.4004 6.39941 -14.4004 14.3994s6.40039 14.4004 14.4004 14.4004h73.5996c7.2002 0.799805 15.2002 -4.7998 16 -12l9.60059 -56
l18.3994 -99.2002h116l-65.5996 273.6l-112.8 468.801h-132l-112 -468.801l-65.6006 -273.6h116.801l40 220c8 44 25.5996 71.2002 84 71.2002h1.59961h1.59961h44.8008l-44.8008 242.399l-31.1992 -169.6c-1.60059 -8 -8.80078 -12.7998 -16.8008 -11.2002
c-8 1.60059 -13.5996 8.7998 -12 16.7998l45.6006 245.601c0.799805 6.39941 7.2002 12 14.3994 12c7.2002 0 12.8008 -5.60059 13.6006 -12l62.3994 -335.2v-1.59961v-4.80078c0 -1.59961 -2.39941 -4 -3.19922 -5.59961c-0.800781 -1.59961 -3.2002 -3.2002 -4.80078 -4
c-1.59961 -0.799805 -3.19922 -0.799805 -4.7998 -0.799805h-1.59961h-61.6006h-1.59961h-1.59961c-40 0 -49.6006 -12 -56 -48.7998l-42.4004 -230.4c0 -0.799805 -0.799805 -3.2002 -0.799805 -4c-0.799805 -1.59961 -2.40039 -4 -4 -4.7998
c-1.60059 -1.60059 -4 -3.2002 -5.60059 -3.2002h-4h-146.399c-4 0 -8.7998 1.59961 -11.2002 4.7998s-4 8 -3.2002 12l69.6006 291.2l115.199 480.8c1.60059 6.40039 8 11.2002 14.4004 11.2002h154.4c6.39941 0 12 -4.7998 13.5996 -11.2002l115.2 -480z" />
    <glyph glyph-name="egrave" unicode="&#xe8;" vert-adv-y="0" 
d="M261.6 831.2c-8 1.59961 -12.7998 8.7998 -11.1992 16.7998l15.1992 74.4004l-114.399 25.5996l-12.7998 -60.7998l57.5996 -12.7998c8 -1.60059 12.7998 -8.80078 11.2002 -16.8008c-1.60059 -8 -8.7998 -12.7998 -16.7998 -11.1992l-71.2002 16
c-8 1.59961 -12.7998 8.7998 -11.2002 16.7998l17.5996 88c1.60059 8 8.80078 12.7998 16.8008 11.2002l143.199 -32c8 -1.60059 12.8008 -8 11.2002 -16l-18.3994 -88.8008c-1.60059 -8 -8.80078 -12 -16.8008 -10.3994zM390.4 0h-376
c-8 0 -14.4004 6.40039 -14.4004 14.4004v254.399v0.799805c0 47.2002 38.4004 85.6006 86.4004 87.2002h1.59961h235.2v100h-160c-8 0 -14.4004 6.40039 -14.4004 14.4004v179.2c0 8 6.40039 14.3994 14.4004 14.3994h212.8v106.4h-347.2v-368
c0 -8 -6.39941 -13.6006 -14.3994 -13.6006s-14.4004 5.60059 -14.4004 13.6006v382.399c0 8 6.40039 14.4004 14.4004 14.4004h376c8 0 14.3994 -6.40039 14.3994 -14.4004v-135.199c0 -8 -6.39941 -14.4004 -14.3994 -14.4004h-212.801v-150.4h159.2
c8 0 14.4004 -6.39941 14.4004 -14.3994v-128.8c0 -8 -6.40039 -13.6006 -14.4004 -13.6006h-247.2c-33.5996 0 -60.7998 -27.2002 -60.7998 -60v-0.799805v-239.2h347.2v106.4h-212.8c-8 0 -14.4004 6.39941 -14.4004 14.3994v99.2002c0 8 6.40039 14.4004 14.4004 14.4004
s14.3994 -6.40039 14.3994 -14.4004v-84.7998h212.801c8 0 14.3994 -6.40039 14.3994 -14.4004v-135.199c0 -8 -6.39941 -14.4004 -14.3994 -14.4004z" />
    <glyph glyph-name="eacute" unicode="&#xe9;" vert-adv-y="0" 
d="M289.6 883.2c-7.19922 -2.40039 -16 0.799805 -19.1992 8l-28.8008 70.3994l-108.8 -43.1992l23.2002 -56.8008l54.4004 21.6006c7.19922 2.39941 16 -0.799805 19.1992 -8c3.2002 -7.2002 -0.799805 -16 -8 -18.4004l-68.7998 -26.3994
c-7.2002 -2.40039 -15.2002 0 -18.3994 7.19922l-34.4004 84c-3.2002 7.2002 1.59961 16 8.7998 18.4004l136.8 52.7998c7.2002 2.40039 15.2002 -0.799805 18.4004 -8l33.5996 -84c3.2002 -7.2002 -0.799805 -15.2002 -8 -17.5996zM390.4 0h-376
c-8 0 -14.4004 6.40039 -14.4004 14.4004v254.399v0.799805c0 47.2002 38.4004 85.6006 86.4004 87.2002h1.59961h235.2v100h-160c-8 0 -14.4004 6.40039 -14.4004 14.4004v179.2c0 8 6.40039 14.3994 14.4004 14.3994h212.8v106.4h-347.2v-368
c0 -8 -6.39941 -13.6006 -14.3994 -13.6006s-14.4004 5.60059 -14.4004 13.6006v382.399c0 8 6.40039 14.4004 14.4004 14.4004h376c8 0 14.3994 -6.40039 14.3994 -14.4004v-135.199c0 -8 -6.39941 -14.4004 -14.3994 -14.4004h-212.801v-150.4h159.2
c8 0 14.4004 -6.39941 14.4004 -14.3994v-128.8c0 -8 -6.40039 -13.6006 -14.4004 -13.6006h-247.2c-33.5996 0 -60.7998 -27.2002 -60.7998 -60v-0.799805v-239.2h347.2v106.4h-212.8c-8 0 -14.4004 6.39941 -14.4004 14.3994v99.2002c0 8 6.40039 14.4004 14.4004 14.4004
s14.3994 -6.40039 14.3994 -14.4004v-84.7998h212.801c8 0 14.3994 -6.40039 14.3994 -14.4004v-135.199c0 -8 -6.39941 -14.4004 -14.3994 -14.4004z" />
    <glyph glyph-name="edieresis" unicode="&#xeb;" vert-adv-y="0" 
d="M345.8 848c-4.47949 0 -8.95996 2.56055 -10.8799 7.04004c-2.55957 5.75977 0.640625 12.7998 6.40039 15.3604c13.4395 5.75977 23.6797 15.3594 29.4395 28.7998c6.40039 13.4395 7.04004 28.7998 1.28027 42.8799c-5.76074 14.0801 -15.3604 24.96 -29.4404 31.3594
c-14.0791 5.76074 -30.0791 5.76074 -44.1602 0.640625c-14.0791 -5.12012 -25.5996 -16 -32 -29.4404c-6.39941 -13.4395 -7.03906 -28.7998 -1.2793 -42.8799s16.6396 -24.96 30.7197 -30.7197c5.75977 -2.56055 8.32031 -9.60059 5.75977 -15.3604
c-2.55957 -5.75977 -9.59961 -8.31934 -15.3604 -5.75977c-19.8398 8.32031 -35.1992 23.6797 -42.8789 43.5195s-7.04004 41.6006 1.91992 60.8008c8.95898 19.1992 24.959 33.9199 44.7998 41.5996c19.8398 7.68066 41.6006 7.04004 61.4404 -1.2793
c40.3193 -17.9209 58.8789 -65.2812 40.96 -104.961c-8.32031 -18.5596 -23.6807 -32.6396 -42.2412 -40.3203c-1.2793 -0.639648 -3.19922 -1.2793 -4.47949 -1.2793zM125.8 848c-4.47949 0 -8.95996 2.56055 -10.8799 7.04004
c-2.55957 5.75977 0.640625 12.7998 6.40039 15.3604c13.4395 5.75977 23.6797 15.3594 29.4395 28.7998c6.40039 13.4395 7.04004 28.7998 1.28027 42.8799c-5.76074 14.0801 -15.3604 24.96 -29.4404 31.3594c-14.0791 5.76074 -30.0791 5.76074 -44.1602 0.640625
c-14.0791 -5.12012 -25.5996 -16 -32 -29.4404c-6.39941 -13.4395 -7.03906 -28.7998 -1.2793 -42.8799s16.6396 -24.96 30.7197 -30.7197c5.75977 -2.56055 8.32031 -9.60059 5.75977 -15.3604c-2.55957 -5.75977 -9.59961 -8.31934 -15.3604 -5.75977
c-19.8398 8.32031 -35.1992 23.6797 -42.8789 43.5195s-7.04004 41.6006 1.91992 60.8008c8.95898 19.1992 24.959 33.9199 44.7998 41.5996c19.8398 7.68066 41.6006 7.04004 61.4404 -1.2793c40.3193 -17.9209 58.8789 -65.2812 40.96 -104.961
c-8.32031 -18.5596 -23.6807 -32.6396 -42.2412 -40.3203c-1.2793 -0.639648 -3.19922 -1.2793 -4.47949 -1.2793zM390.4 0h-376c-8 0 -14.4004 6.40039 -14.4004 14.4004v254.399v0.799805c0 47.2002 38.4004 85.6006 86.4004 87.2002h1.59961h235.2v100h-160
c-8 0 -14.4004 6.40039 -14.4004 14.4004v179.2c0 8 6.40039 14.3994 14.4004 14.3994h212.8v106.4h-347.2v-368c0 -8 -6.39941 -13.6006 -14.3994 -13.6006s-14.4004 5.60059 -14.4004 13.6006v382.399c0 8 6.40039 14.4004 14.4004 14.4004h376
c8 0 14.3994 -6.40039 14.3994 -14.4004v-135.199c0 -8 -6.39941 -14.4004 -14.3994 -14.4004h-212.801v-150.4h159.2c8 0 14.4004 -6.39941 14.4004 -14.3994v-128.8c0 -8 -6.40039 -13.6006 -14.4004 -13.6006h-247.2c-33.5996 0 -60.7998 -27.2002 -60.7998 -60
v-0.799805v-239.2h347.2v106.4h-212.8c-8 0 -14.4004 6.39941 -14.4004 14.3994v99.2002c0 8 6.40039 14.4004 14.4004 14.4004s14.3994 -6.40039 14.3994 -14.4004v-84.7998h212.801c8 0 14.3994 -6.40039 14.3994 -14.4004v-135.199
c0 -8 -6.39941 -14.4004 -14.3994 -14.4004z" />
    <glyph glyph-name="igrave" unicode="&#xec;" horiz-adv-x="278" vert-adv-y="0" 
d="M143.2 831.2c-8 1.59961 -12.7998 8.7998 -11.2002 16.7998l15.2002 74.4004l-114.4 25.5996l-12.7998 -60.7998l57.5996 -12.7998c8 -1.60059 12.8008 -8.80078 11.2002 -16.8008c-1.59961 -8 -8.7998 -12.7998 -16.7998 -11.1992l-71.2002 16
c-8 1.59961 -12.7998 8.7998 -11.2002 16.7998l17.6006 88c1.59961 8 8.7998 12.7998 16.7998 11.2002l143.2 -32c8 -1.60059 12.7998 -8 11.2002 -16l-18.4004 -88.8008c-1.59961 -8 -8.7998 -12 -16.7998 -10.3994zM158.4 0h-144c-8 0 -14.4004 6.40039 -14.4004 14.4004
v534.399c0 72.7998 40.7998 82.4004 75.2002 82.4004h17.5996c8 0 14.4004 -6.40039 14.4004 -14.4004s-6.40039 -14.3994 -14.4004 -14.3994h-17.5996c-28 0 -46.4004 -4 -46.4004 -53.6006v-520h116v742.4h-116v-72.7998c0 -8 -6.39941 -14.4004 -14.3994 -14.4004
s-14.4004 6.40039 -14.4004 14.4004v87.1992c0 8 6.40039 14.4004 14.4004 14.4004h144c8 0 14.3994 -6.40039 14.3994 -14.4004v-771.199c0 -8 -6.39941 -14.4004 -14.3994 -14.4004z" />
    <glyph glyph-name="iacute" unicode="&#xed;" horiz-adv-x="289" vert-adv-y="0" 
d="M180 883.2c-7.2002 -2.40039 -16 0.799805 -19.2002 8l-28 70.3994l-109.6 -43.1992l23.2002 -56.8008l54.3994 21.6006c7.2002 2.39941 16 -0.799805 19.2002 -8s-0.799805 -16 -8 -18.4004l-68 -26.3994c-7.2002 -2.40039 -16 0 -19.2002 7.19922l-33.5996 84
c-3.2002 7.2002 0.799805 16 8 18.4004l136.8 52.7998c7.2002 2.40039 14.4004 -0.799805 17.5996 -8l34.4004 -84c3.2002 -7.2002 -0.799805 -15.2002 -8 -17.5996zM158.4 0h-144c-8 0 -14.4004 6.40039 -14.4004 14.4004v534.399
c0 72.7998 40.7998 82.4004 75.2002 82.4004h17.5996c8 0 14.4004 -6.40039 14.4004 -14.4004s-6.40039 -14.3994 -14.4004 -14.3994h-17.5996c-28 0 -46.4004 -4 -46.4004 -53.6006v-520h116v742.4h-116v-72.7998c0 -8 -6.39941 -14.4004 -14.3994 -14.4004
s-14.4004 6.40039 -14.4004 14.4004v87.1992c0 8 6.40039 14.4004 14.4004 14.4004h144c8 0 14.3994 -6.40039 14.3994 -14.4004v-771.199c0 -8 -6.39941 -14.4004 -14.3994 -14.4004z" />
    <glyph glyph-name="idieresis" unicode="&#xef;" horiz-adv-x="440" vert-adv-y="0" 
d="M301.8 848c-4.47949 0 -8.95996 2.56055 -10.8799 7.04004c-2.55957 5.75977 0.640625 12.7998 6.40039 15.3604c13.4395 5.75977 23.6797 15.3594 29.4395 28.7998c6.40039 13.4395 7.04004 28.7998 1.28027 42.8799c-5.76074 14.0801 -15.3604 24.96 -29.4404 31.3594
c-14.0791 5.76074 -30.0791 5.76074 -44.1602 0.640625c-14.0791 -5.12012 -25.5996 -16 -32 -29.4404c-6.39941 -13.4395 -7.03906 -28.7998 -1.2793 -42.8799s16.6396 -24.96 30.7197 -30.7197c5.75977 -2.56055 8.32031 -9.60059 5.75977 -15.3604
c-2.55957 -5.75977 -9.59961 -8.31934 -15.3604 -5.75977c-19.8398 8.32031 -35.1992 23.6797 -42.8789 43.5195s-7.04004 41.6006 1.91992 60.8008c8.95898 19.1992 24.959 33.9199 44.7998 41.5996c19.8398 7.68066 41.6006 7.04004 61.4404 -1.2793
c40.3193 -17.9209 58.8789 -65.2812 40.96 -104.961c-8.32031 -18.5596 -23.6807 -32.6396 -42.2412 -40.3203c-1.2793 -0.639648 -3.19922 -1.2793 -4.47949 -1.2793zM105.8 848c-4.47949 0 -8.95996 2.56055 -10.8799 7.04004
c-2.55957 5.75977 0.640625 12.7998 6.40039 15.3604c13.4395 5.75977 23.6797 15.3594 29.4395 28.7998c6.40039 13.4395 7.04004 28.7998 1.28027 42.8799c-5.76074 14.0801 -15.3604 24.96 -29.4404 31.3594c-14.0791 5.76074 -30.0791 5.76074 -44.1602 0.640625
c-14.0791 -5.12012 -25.5996 -16 -32 -29.4404c-6.39941 -13.4395 -7.03906 -28.7998 -1.2793 -42.8799s16.6396 -24.96 30.7197 -30.7197c5.75977 -2.56055 8.32031 -9.60059 5.75977 -15.3604c-2.55957 -5.75977 -9.59961 -8.31934 -15.3604 -5.75977
c-19.8398 8.32031 -35.1992 23.6797 -42.8789 43.5195s-7.04004 41.6006 1.91992 60.8008c8.95898 19.1992 24.959 33.9199 44.7998 41.5996c19.8398 7.68066 41.6006 7.04004 61.4404 -1.2793c40.3193 -17.9209 58.8789 -65.2812 40.96 -104.961
c-8.32031 -18.5596 -23.6807 -32.6396 -42.2412 -40.3203c-1.2793 -0.639648 -3.19922 -1.2793 -4.47949 -1.2793zM242.4 0h-144c-8 0 -14.4004 6.40039 -14.4004 14.4004v534.399c0 72.7998 40.7998 82.4004 75.2002 82.4004h17.5996
c8 0 14.4004 -6.40039 14.4004 -14.4004s-6.40039 -14.3994 -14.4004 -14.3994h-17.5996c-28 0 -46.4004 -4 -46.4004 -53.6006v-520h116v742.4h-116v-72.7998c0 -8 -6.39941 -14.4004 -14.3994 -14.4004s-14.4004 6.40039 -14.4004 14.4004v87.1992
c0 8 6.40039 14.4004 14.4004 14.4004h144c8 0 14.3994 -6.40039 14.3994 -14.4004v-771.199c0 -8 -6.39941 -14.4004 -14.3994 -14.4004z" />
    <glyph glyph-name="ograve" unicode="&#xf2;" horiz-adv-x="582" vert-adv-y="0" 
d="M292 -12h-1.59961c-98.4004 0.824219 -116 75.8076 -123.2 107.943l-0.799805 5.76953c-11.2002 46.9668 -9.60059 164.8 -8.80078 243.079v44.4951c0 106.297 2.40039 186.226 16 224.953c13.6006 38.7275 35.2002 59.3271 65.6006 59.3271
c36.7998 0 56.7998 -17.3037 70.3994 -60.1514c15.2002 -48.6162 14.4004 -156.56 14.4004 -208.473c0 -24.7197 0.799805 -150.791 -8 -202.703c-4.7998 -28.8398 -13.5996 -60.1523 -40.7998 -74.1602c-7.2002 -3.2959 -16 -0.824219 -19.2002 6.59277
c-3.2002 7.41504 -0.799805 16.4795 6.40039 19.7744c12.7998 6.59277 20 21.4248 24.7998 52.7363c8 51.0889 8.7998 182.929 8.7998 197.76c0 46.1445 0 154.913 -13.5996 199.409c-10.4004 33.7832 -22.4004 39.5508 -43.2002 39.5508
c-12 0 -26.4004 -4.11914 -38.4004 -38.7275c-12.7998 -37.0791 -14.3994 -126.072 -14.3994 -215.889c0 -12.3594 -0.800781 -27.1904 -0.800781 -44.4951c-0.799805 -76.6318 -1.59961 -193.64 8.80078 -236.488l1.59961 -5.76758
c8 -33.7842 19.2002 -84.8721 96 -84.8721h1.59961c117.601 0.823242 159.2 201.88 159.2 374.096c0 266.152 -66.3994 390.576 -210.399 390.576c-145.601 0 -213.601 -119.479 -213.601 -376.568c0 -140.903 19.2002 -243.08 58.4004 -312.295
c2.39941 -3.29688 7.2002 -12.3604 16 -23.0723c4.7998 -5.76758 4 -15.6562 -1.60059 -20.6006c-5.59961 -4.94336 -15.1992 -4.94336 -20 1.64746c-10.3994 12.3604 -16 22.249 -18.3994 26.3691c-43.2002 74.9834 -63.2002 178.808 -63.2002 327.951
c0 273.568 79.2002 406.232 242.4 406.232c214.399 0 240 -239.784 240 -420.24c0 -195.287 -50.4004 -403.76 -190.4 -403.76zM301.6 831.2c-8 1.59961 -12.7998 8.7998 -11.1992 16.7998l15.1992 74.4004l-114.399 25.5996l-12 -60.7998l56.7998 -12.7998
c8 -1.60059 12.7998 -8.80078 11.2002 -16.8008c-1.60059 -8 -8.7998 -12.7998 -16.7998 -11.1992l-71.2002 16c-8 1.59961 -12.7998 8.7998 -11.2002 16.7998l17.5996 88c1.60059 8 9.60059 12.7998 17.6006 11.2002l143.2 -32c8 -1.60059 12 -8 10.3994 -16
l-18.3994 -88.8008c-1.60059 -8 -8.80078 -12 -16.8008 -10.3994z" />
    <glyph glyph-name="oacute" unicode="&#xf3;" horiz-adv-x="582" vert-adv-y="0" 
d="M292 -12h-1.59961c-98.4004 0.824219 -116 75.8076 -123.2 107.943l-0.799805 5.76953c-11.2002 46.9668 -9.60059 164.8 -8.80078 243.079v44.4951c0 106.297 2.40039 186.226 16 224.953c13.6006 38.7275 35.2002 59.3271 65.6006 59.3271
c36.7998 0 56.7998 -17.3037 70.3994 -60.1514c15.2002 -48.6162 14.4004 -156.56 14.4004 -208.473c0 -24.7197 0.799805 -150.791 -8 -202.703c-4.7998 -28.8398 -13.5996 -60.1523 -40.7998 -74.1602c-7.2002 -3.2959 -16 -0.824219 -19.2002 6.59277
c-3.2002 7.41504 -0.799805 16.4795 6.40039 19.7744c12.7998 6.59277 20 21.4248 24.7998 52.7363c8 51.0889 8.7998 182.929 8.7998 197.76c0 46.1445 0 154.913 -13.5996 199.409c-10.4004 33.7832 -22.4004 39.5508 -43.2002 39.5508
c-12 0 -26.4004 -4.11914 -38.4004 -38.7275c-12.7998 -37.0791 -14.3994 -126.072 -14.3994 -215.889c0 -12.3594 -0.800781 -27.1904 -0.800781 -44.4951c-0.799805 -76.6318 -1.59961 -193.64 8.80078 -236.488l1.59961 -5.76758
c8 -33.7842 19.2002 -84.8721 96 -84.8721h1.59961c117.601 0.823242 159.2 201.88 159.2 374.096c0 266.152 -66.3994 390.576 -210.399 390.576c-145.601 0 -213.601 -119.479 -213.601 -376.568c0 -140.903 19.2002 -243.08 58.4004 -312.295
c2.39941 -3.29688 7.2002 -12.3604 16 -23.0723c4.7998 -5.76758 4 -15.6562 -1.60059 -20.6006c-5.59961 -4.94336 -15.1992 -4.94336 -20 1.64746c-10.3994 12.3604 -16 22.249 -18.3994 26.3691c-43.2002 74.9834 -63.2002 178.808 -63.2002 327.951
c0 273.568 79.2002 406.232 242.4 406.232c214.399 0 240 -239.784 240 -420.24c0 -195.287 -50.4004 -403.76 -190.4 -403.76zM329.6 883.2c-7.19922 -2.40039 -16 0.799805 -19.1992 8l-28 70.3994l-109.601 -43.1992l23.2002 -56.8008l54.4004 21.6006
c7.19922 2.39941 16 -0.799805 19.1992 -8c3.2002 -7.2002 -0.799805 -16 -8 -18.4004l-68 -26.3994c-7.19922 -2.40039 -16 0 -19.1992 7.19922l-33.6006 84c-3.2002 7.2002 0.799805 16 8 18.4004l136.8 52.7998c7.2002 2.40039 14.4004 -0.799805 17.6006 -8l34.3994 -84
c3.2002 -7.2002 -0.799805 -15.2002 -8 -17.5996z" />
    <glyph glyph-name="odieresis" unicode="&#xf6;" horiz-adv-x="530" vert-adv-y="0" 
d="M375.8 848c-4.47949 0 -8.95996 2.56055 -10.8799 7.04004c-2.55957 5.75977 0.640625 12.7998 6.40039 15.3604c13.4395 5.75977 23.6797 15.3594 29.4395 28.7998c6.40039 13.4395 7.04004 28.7998 1.28027 42.8799c-5.76074 14.0801 -15.3604 24.96 -29.4404 31.3594
c-14.0791 5.76074 -30.0791 5.76074 -44.1602 0.640625c-14.0791 -5.12012 -25.5996 -16 -32 -29.4404c-6.39941 -13.4395 -7.03906 -28.7998 -1.2793 -42.8799s16.6396 -24.96 30.7197 -30.7197c5.75977 -2.56055 8.32031 -9.60059 5.75977 -15.3604
c-2.55957 -5.75977 -9.59961 -8.31934 -15.3604 -5.75977c-19.8398 8.32031 -35.1992 23.6797 -42.8789 43.5195s-7.04004 41.6006 1.91992 60.8008c8.95898 19.1992 24.959 33.9199 44.7998 41.5996c19.8398 7.68066 41.6006 7.04004 61.4404 -1.2793
c40.3193 -17.9209 58.8789 -65.2812 40.96 -104.961c-8.32031 -18.5596 -23.6807 -32.6396 -42.2412 -40.3203c-1.2793 -0.639648 -3.19922 -1.2793 -4.47949 -1.2793zM155.8 848c-4.47949 0 -8.95996 2.56055 -10.8799 7.04004
c-2.55957 5.75977 0.640625 12.7998 6.40039 15.3604c13.4395 5.75977 23.6797 15.3594 29.4395 28.7998c6.40039 13.4395 7.04004 28.7998 1.28027 42.8799c-5.76074 14.0801 -15.3604 24.96 -29.4404 31.3594c-14.0791 5.76074 -30.0791 5.76074 -44.1602 0.640625
c-14.0791 -5.12012 -25.5996 -16 -32 -29.4404c-6.39941 -13.4395 -7.03906 -28.7998 -1.2793 -42.8799s16.6396 -24.96 30.7197 -30.7197c5.75977 -2.56055 8.32031 -9.60059 5.75977 -15.3604c-2.55957 -5.75977 -9.59961 -8.31934 -15.3604 -5.75977
c-19.8398 8.32031 -35.1992 23.6797 -42.8789 43.5195s-7.04004 41.6006 1.91992 60.8008c8.95898 19.1992 24.959 33.9199 44.7998 41.5996c19.8398 7.68066 41.6006 7.04004 61.4404 -1.2793c40.3193 -17.9209 58.8789 -65.2812 40.96 -104.961
c-8.32031 -18.5596 -23.6807 -32.6396 -42.2412 -40.3203c-1.2793 -0.639648 -3.19922 -1.2793 -4.47949 -1.2793zM292 -12h-1.59961c-98.4004 0.824219 -116 75.8076 -123.2 107.943l-0.799805 5.76953c-11.2002 46.9668 -9.60059 164.8 -8.80078 243.079v44.4951
c0 106.297 2.40039 186.226 16 224.953c13.6006 38.7275 35.2002 59.3271 65.6006 59.3271c36.7998 0 56.7998 -17.3037 70.3994 -60.1514c15.2002 -48.6162 14.4004 -156.56 14.4004 -208.473c0 -24.7197 0.799805 -150.791 -8 -202.703
c-4.7998 -28.8398 -13.5996 -60.1523 -40.7998 -74.1602c-7.2002 -3.2959 -16 -0.824219 -19.2002 6.59277c-3.2002 7.41504 -0.799805 16.4795 6.40039 19.7744c12.7998 6.59277 20 21.4248 24.7998 52.7363c8 51.0889 8.7998 182.929 8.7998 197.76
c0 46.1445 0 154.913 -13.5996 199.409c-10.4004 33.7832 -22.4004 39.5508 -43.2002 39.5508c-12 0 -26.4004 -4.11914 -38.4004 -38.7275c-12.7998 -37.0791 -14.3994 -126.072 -14.3994 -215.889c0 -12.3594 -0.800781 -27.1904 -0.800781 -44.4951
c-0.799805 -76.6318 -1.59961 -193.64 8.80078 -236.488l1.59961 -5.76758c8 -33.7842 19.2002 -84.8721 96 -84.8721h1.59961c117.601 0.823242 159.2 201.88 159.2 374.096c0 266.152 -66.3994 390.576 -210.399 390.576c-145.601 0 -213.601 -119.479 -213.601 -376.568
c0 -140.903 19.2002 -243.08 58.4004 -312.295c2.39941 -3.29688 7.2002 -12.3604 16 -23.0723c4.7998 -5.76758 4 -15.6562 -1.60059 -20.6006c-5.59961 -4.94336 -15.1992 -4.94336 -20 1.64746c-10.3994 12.3604 -16 22.249 -18.3994 26.3691
c-43.2002 74.9834 -63.2002 178.808 -63.2002 327.951c0 273.568 79.2002 406.232 242.4 406.232c214.399 0 240 -239.784 240 -420.24c0 -195.287 -50.4004 -403.76 -190.4 -403.76z" />
    <glyph glyph-name="ugrave" unicode="&#xf9;" horiz-adv-x="532" vert-adv-y="0" 
d="M269.6 831.2c-8 1.59961 -12.7998 8.7998 -11.1992 16.7998l15.1992 74.4004l-114.399 25.5996l-12 -60.7998l56.7998 -12.7998c8 -1.60059 12.7998 -8.80078 11.2002 -16.8008c-1.60059 -8 -8.7998 -12.7998 -16.7998 -11.1992l-71.2002 16
c-8 1.59961 -12.7998 8.7998 -11.2002 16.7998l17.5996 88c1.60059 8 8.80078 12.7998 16.8008 11.2002l144 -32c8 -1.60059 12 -8 10.3994 -16l-18.3994 -88.8008c-1.60059 -8 -8.80078 -12 -16.8008 -10.3994zM416.8 800c8 0 15.2002 -6.40039 15.2002 -14.4004v-501.6
c0 -155.2 -12.7998 -284 -161.6 -284h-0.800781c-60.7998 0 -125.6 51.2002 -125.6 164v608h-115.2v-488c0 -134.4 25.6006 -204.8 84.7998 -236c7.2002 -3.2002 8.80078 -12 4.80078 -18.4004c-4 -6.39941 -12 -10.3994 -19.2002 -6.39941
c-69.6006 36.7998 -99.2002 114.399 -99.2002 260.8v501.6c0 8 6.40039 14.4004 14.4004 14.4004h144c8 0 14.3994 -6.40039 14.3994 -14.4004v-621.6c0 -94.4004 48.7998 -136 97.6006 -136c112.8 0 132 82.4004 132 256v488h-114.4v-483.2
c0 -61.5996 -2.40039 -110.399 -28 -136c-5.59961 -5.59961 -15.2002 -6.39941 -20.7998 -0.799805c-5.60059 5.59961 -5.60059 14.4004 0 20c18.3994 18.4004 20 65.5996 20 116.8v496.8c0 8 6.39941 14.4004 14.3994 14.4004h143.2z" />
    <glyph glyph-name="uacute" unicode="&#xfa;" horiz-adv-x="532" vert-adv-y="0" 
d="M297.6 883.2c-7.19922 -2.40039 -16 0.799805 -19.1992 8l-28.8008 70.3994l-108.8 -43.1992l23.2002 -56.8008l54.4004 21.6006c7.19922 2.39941 16 -0.799805 19.1992 -8c3.2002 -7.2002 -0.799805 -16 -8 -18.4004l-68 -26.3994
c-7.19922 -2.40039 -16 0 -19.1992 7.19922l-33.6006 84c-3.2002 7.2002 0.799805 16 8 18.4004l136.8 52.7998c7.2002 2.40039 14.4004 -0.799805 17.6006 -8l34.3994 -84c3.2002 -7.2002 -0.799805 -15.2002 -8 -17.5996zM416.8 800
c8 0 15.2002 -6.40039 15.2002 -14.4004v-501.6c0 -155.2 -12.7998 -284 -161.6 -284h-0.800781c-60.7998 0 -125.6 51.2002 -125.6 164v608h-115.2v-488c0 -134.4 25.6006 -204.8 84.7998 -236c7.2002 -3.2002 8.80078 -12 4.80078 -18.4004
c-4 -6.39941 -12 -10.3994 -19.2002 -6.39941c-69.6006 36.7998 -99.2002 114.399 -99.2002 260.8v501.6c0 8 6.40039 14.4004 14.4004 14.4004h144c8 0 14.3994 -6.40039 14.3994 -14.4004v-621.6c0 -94.4004 48.7998 -136 97.6006 -136c112.8 0 132 82.4004 132 256v488
h-114.4v-483.2c0 -61.5996 -2.40039 -110.399 -28 -136c-5.59961 -5.59961 -15.2002 -6.39941 -20.7998 -0.799805c-5.60059 5.59961 -5.60059 14.4004 0 20c18.3994 18.4004 20 65.5996 20 116.8v496.8c0 8 6.39941 14.4004 14.3994 14.4004h143.2z" />
    <glyph glyph-name="udieresis" unicode="&#xfc;" horiz-adv-x="532" vert-adv-y="0" 
d="M355.8 848c-4.47949 0 -8.95996 2.56055 -10.8799 7.04004c-2.55957 5.75977 0.640625 12.7998 6.40039 15.3604c13.4395 5.75977 23.6797 15.3594 29.4395 28.7998c6.40039 13.4395 7.04004 28.7998 1.28027 42.8799c-5.76074 14.0801 -15.3604 24.96 -29.4404 31.3594
c-14.0791 5.76074 -30.0791 5.76074 -44.1602 0.640625c-14.0791 -5.12012 -25.5996 -16 -32 -29.4404c-6.39941 -13.4395 -7.03906 -28.7998 -1.2793 -42.8799s16.6396 -24.96 30.7197 -30.7197c5.75977 -2.56055 8.32031 -9.60059 5.75977 -15.3604
c-2.55957 -5.75977 -9.59961 -8.31934 -15.3604 -5.75977c-19.8398 8.32031 -35.1992 23.6797 -42.8789 43.5195s-7.04004 41.6006 1.91992 60.8008c8.95898 19.1992 24.959 33.9199 44.7998 41.5996c19.8398 7.68066 41.6006 7.04004 61.4404 -1.2793
c40.3193 -17.9209 58.8789 -65.2812 40.96 -104.961c-8.32031 -18.5596 -23.6807 -32.6396 -42.2412 -40.3203c-1.2793 -0.639648 -3.19922 -1.2793 -4.47949 -1.2793zM135.8 848c-4.47949 0 -8.95996 2.56055 -10.8799 7.04004
c-2.55957 5.75977 0.640625 12.7998 6.40039 15.3604c13.4395 5.75977 23.6797 15.3594 29.4395 28.7998c6.40039 13.4395 7.04004 28.7998 1.28027 42.8799c-5.76074 14.0801 -15.3604 24.96 -29.4404 31.3594c-14.0791 5.76074 -30.0791 5.76074 -44.1602 0.640625
c-14.0791 -5.12012 -25.5996 -16 -32 -29.4404c-6.39941 -13.4395 -7.03906 -28.7998 -1.2793 -42.8799s16.6396 -24.96 30.7197 -30.7197c5.75977 -2.56055 8.32031 -9.60059 5.75977 -15.3604c-2.55957 -5.75977 -9.59961 -8.31934 -15.3604 -5.75977
c-19.8398 8.32031 -35.1992 23.6797 -42.8789 43.5195s-7.04004 41.6006 1.91992 60.8008c8.95898 19.1992 24.959 33.9199 44.7998 41.5996c19.8398 7.68066 41.6006 7.04004 61.4404 -1.2793c40.3193 -17.9209 58.8789 -65.2812 40.96 -104.961
c-8.32031 -18.5596 -23.6807 -32.6396 -42.2412 -40.3203c-1.2793 -0.639648 -3.19922 -1.2793 -4.47949 -1.2793zM416.8 800c8 0 15.2002 -6.40039 15.2002 -14.4004v-501.6c0 -155.2 -12.7998 -284 -161.6 -284h-0.800781c-60.7998 0 -125.6 51.2002 -125.6 164v608
h-115.2v-488c0 -134.4 25.6006 -204.8 84.7998 -236c7.2002 -3.2002 8.80078 -12 4.80078 -18.4004c-4 -6.39941 -12 -10.3994 -19.2002 -6.39941c-69.6006 36.7998 -99.2002 114.399 -99.2002 260.8v501.6c0 8 6.40039 14.4004 14.4004 14.4004h144
c8 0 14.3994 -6.40039 14.3994 -14.4004v-621.6c0 -94.4004 48.7998 -136 97.6006 -136c112.8 0 132 82.4004 132 256v488h-114.4v-483.2c0 -61.5996 -2.40039 -110.399 -28 -136c-5.59961 -5.59961 -15.2002 -6.39941 -20.7998 -0.799805
c-5.60059 5.59961 -5.60059 14.4004 0 20c18.3994 18.4004 20 65.5996 20 116.8v496.8c0 8 6.39941 14.4004 14.3994 14.4004h143.2z" />
    </font>
</defs>
</svg>
