<svg xmlns="http://www.w3.org/2000/svg" width="21.7" height="21.7" viewBox="0 0 21.7 21.7">
  <path id="Icon_zocial-dribbble" data-name="Icon zocial-dribbble" d="M0,10.85A10.629,10.629,0,0,1,1.454,5.4,10.773,10.773,0,0,1,5.4,1.454,10.629,10.629,0,0,1,10.85,0,10.629,10.629,0,0,1,16.3,1.454,10.773,10.773,0,0,1,20.246,5.4,10.629,10.629,0,0,1,21.7,10.85,10.629,10.629,0,0,1,20.246,16.3,10.773,10.773,0,0,1,16.3,20.246,10.629,10.629,0,0,1,10.85,21.7,10.629,10.629,0,0,1,5.4,20.246,10.773,10.773,0,0,1,1.454,16.3,10.629,10.629,0,0,1,0,10.85Zm1.8,0A8.749,8.749,0,0,0,4.08,16.818a12.418,12.418,0,0,1,3.3-3.884,10.787,10.787,0,0,1,4.405-2.322q-.326-.76-.629-1.367a26.366,26.366,0,0,1-8.072,1.194q-.846,0-1.259-.022,0,.087-.011.217T1.8,10.85Zm.282-2.235q.477.043,1.411.043a23.815,23.815,0,0,0,6.879-.977A21.973,21.973,0,0,0,6.749,2.8a8.809,8.809,0,0,0-2.94,2.409A9.264,9.264,0,0,0,2.083,8.615Zm3.233,9.374a8.867,8.867,0,0,0,8.723,1.3,31.865,31.865,0,0,0-1.693-7.183A9.255,9.255,0,0,0,8.322,14.3a12.309,12.309,0,0,0-3.005,3.689ZM8.637,2.1a23.061,23.061,0,0,1,3.537,4.926,10.807,10.807,0,0,0,4.449-3.147A8.8,8.8,0,0,0,10.85,1.8a8.329,8.329,0,0,0-2.213.3Zm4.318,6.467q.326.694.738,1.758,1.606-.152,3.494-.152,1.345,0,2.669.065a8.712,8.712,0,0,0-2.127-5.251,10.737,10.737,0,0,1-4.774,3.58Zm1.28,3.277a31.147,31.147,0,0,1,1.5,6.6,9.054,9.054,0,0,0,2.8-2.843,8.765,8.765,0,0,0,1.3-3.754q-1.584-.109-2.886-.108-1.194,0-2.712.108Z" transform="translate(0 0)" fill="#dccfff"/>
</svg>
