<svg xmlns="http://www.w3.org/2000/svg" class="github-icon" width="21.7" height="21.163" viewBox="0 0 21.7 21.163">
  <path id="Icon_simple-github" data-name="Icon simple-github" d="M10.85.269A10.85,10.85,0,0,0,7.419,21.412c.543.1.741-.233.741-.522,0-.258-.009-.94-.014-1.844-3.018.655-3.655-1.456-3.655-1.456A2.876,2.876,0,0,0,3.285,16c-.983-.673.076-.659.076-.659a2.275,2.275,0,0,1,1.662,1.118,2.312,2.312,0,0,0,3.16.9,2.313,2.313,0,0,1,.687-1.451c-2.41-.271-4.942-1.2-4.942-5.362A4.186,4.186,0,0,1,5.044,7.64a3.858,3.858,0,0,1,.095-2.872s.909-.291,2.984,1.112a10.229,10.229,0,0,1,5.425,0c2.062-1.4,2.97-1.112,2.97-1.112a3.964,3.964,0,0,1,.108,2.872,4.2,4.2,0,0,1,1.112,2.911c0,4.168-2.536,5.086-4.95,5.353a2.6,2.6,0,0,1,.732,2.007c0,1.452-.014,2.618-.014,2.971,0,.285.19.624.746.515A10.837,10.837,0,0,0,10.85.269" transform="translate(0 -0.269)" fill="#dccfff"/>
</svg>
