<svg xmlns="http://www.w3.org/2000/svg" width="21.73" height="21.73" viewBox="0 0 21.73 21.73">
  <path id="Icon_simple-instagram" data-name="Icon simple-instagram" d="M10.865,0C7.913,0,7.545.014,6.386.065A8.011,8.011,0,0,0,3.748.57,5.321,5.321,0,0,0,1.823,1.823,5.3,5.3,0,0,0,.57,3.748,7.988,7.988,0,0,0,.065,6.386C.011,7.545,0,7.913,0,10.865s.014,3.32.065,4.479A8.016,8.016,0,0,0,.57,17.981a5.328,5.328,0,0,0,1.253,1.925,5.313,5.313,0,0,0,1.925,1.253,8.021,8.021,0,0,0,2.637.505c1.159.054,1.527.065,4.479.065s3.32-.014,4.479-.065a8.04,8.04,0,0,0,2.637-.505,5.553,5.553,0,0,0,3.178-3.178,8.016,8.016,0,0,0,.505-2.637c.054-1.159.065-1.527.065-4.479s-.014-3.32-.065-4.479a8.035,8.035,0,0,0-.505-2.637,5.332,5.332,0,0,0-1.253-1.925A5.294,5.294,0,0,0,17.981.57,7.993,7.993,0,0,0,15.344.065C14.185.011,13.816,0,10.865,0Zm0,1.956c2.9,0,3.246.014,4.391.064a5.986,5.986,0,0,1,2.016.376,3.575,3.575,0,0,1,2.063,2.062,6,6,0,0,1,.374,2.016c.052,1.146.063,1.49.063,4.391s-.014,3.246-.067,4.391a6.114,6.114,0,0,1-.381,2.016,3.45,3.45,0,0,1-.814,1.251,3.39,3.39,0,0,1-1.249.811,6.043,6.043,0,0,1-2.024.374c-1.153.052-1.493.063-4.4.063s-3.247-.014-4.4-.067a6.161,6.161,0,0,1-2.024-.381,3.365,3.365,0,0,1-1.249-.814,3.3,3.3,0,0,1-.815-1.249,6.166,6.166,0,0,1-.38-2.024c-.041-1.141-.055-1.493-.055-4.386s.014-3.247.055-4.4a6.159,6.159,0,0,1,.38-2.023,3.221,3.221,0,0,1,.815-1.25,3.214,3.214,0,0,1,1.249-.813,6.013,6.013,0,0,1,2.011-.381c1.154-.041,1.494-.054,4.4-.054l.041.027Zm0,3.33a5.579,5.579,0,1,0,5.579,5.579A5.579,5.579,0,0,0,10.865,5.286Zm0,9.2a3.622,3.622,0,1,1,3.622-3.622A3.621,3.621,0,0,1,10.865,14.486Zm7.1-9.421a1.3,1.3,0,1,1-1.3-1.3A1.3,1.3,0,0,1,17.969,5.066Z" fill="#dccfff"/>
</svg>
