<svg xmlns="http://www.w3.org/2000/svg" width="21.7" height="21.7" viewBox="0 0 21.7 21.7">
  <path id="Icon_zocial-linkedin" data-name="Icon zocial-linkedin" d="M-.18,2.737A2.414,2.414,0,0,1,.553.928,2.62,2.62,0,0,1,2.459.216a2.542,2.542,0,0,1,1.864.7A2.531,2.531,0,0,1,5.056,2.8a2.361,2.361,0,0,1-.712,1.754,2.625,2.625,0,0,1-1.927.723H2.4A2.5,2.5,0,0,1,.532,4.556,2.487,2.487,0,0,1-.18,2.737ZM.092,21.916V7.274h4.65V21.916H.092Zm7.226,0h4.65V13.74a3.289,3.289,0,0,1,.168-1.184,3.173,3.173,0,0,1,.89-1.26,2.211,2.211,0,0,1,1.5-.515q2.346,0,2.346,3.31v7.825h4.65v-8.4A7.273,7.273,0,0,0,20.054,8.6a4.9,4.9,0,0,0-3.875-1.677,4.709,4.709,0,0,0-4.21,2.433V9.4h-.021l.021-.044V7.274H7.319q.042.7.042,4.362t-.042,10.28Z" transform="translate(0.18 -0.216)" fill="#dccfff"/>
</svg>
